<?xml version="1.0" standalone="no"?>
<!DOCTYPE svg PUBLIC "-//W3C//DTD SVG 20010904//EN"
 "http://www.w3.org/TR/2001/REC-SVG-20010904/DTD/svg10.dtd">
<svg version="1.0" xmlns="http://www.w3.org/2000/svg"
 width="720.000000pt" height="720.000000pt" viewBox="0 0 720.000000 720.000000"
 preserveAspectRatio="xMidYMid meet">
<metadata>
Created by potrace 1.14, written by Peter Selinger 2001-2017
</metadata>
<g transform="translate(0.000000,720.000000) scale(0.100000,-0.100000)"
fill="#000000" stroke="none">
<path d="M2818 6455 c-1 -1 -34 -6 -73 -10 -79 -7 -133 -14 -155 -20 -8 -2
-33 -7 -55 -10 -23 -3 -52 -8 -65 -11 -14 -3 -37 -7 -52 -10 -15 -3 -80 -21
-145 -40 -65 -20 -122 -37 -128 -38 -5 -2 -19 -7 -30 -11 -11 -5 -51 -21 -90
-37 -38 -16 -74 -31 -80 -32 -35 -11 -135 -61 -135 -68 0 -4 -7 -8 -14 -8 -14
0 -99 -46 -178 -96 -72 -46 -123 -79 -138 -91 -8 -6 -48 -37 -89 -67 -119 -90
-296 -255 -378 -356 -15 -19 -35 -42 -43 -51 -62 -66 -230 -308 -230 -329 0
-6 -4 -10 -10 -10 -5 0 -10 -6 -10 -13 0 -7 -11 -29 -25 -49 -14 -20 -25 -44
-25 -52 0 -9 -4 -16 -8 -16 -5 0 -19 -24 -32 -52 -13 -29 -33 -75 -46 -103
-35 -78 -96 -241 -110 -295 -2 -8 -15 -58 -29 -110 -26 -98 -31 -122 -41 -179
-3 -18 -7 -42 -9 -53 -3 -11 -7 -46 -11 -77 -3 -31 -8 -65 -10 -76 -4 -19 -17
-318 -15 -340 0 -5 3 -46 5 -90 5 -73 23 -232 32 -280 2 -11 11 -54 19 -95 27
-140 104 -400 127 -427 6 -7 8 -13 5 -13 -12 0 117 -274 142 -304 9 -10 14
-19 13 -20 -8 -3 147 -249 187 -298 129 -158 176 -211 268 -302 63 -62 168
-156 197 -175 11 -8 23 -18 26 -21 27 -33 365 -250 390 -250 6 0 10 -4 10 -10
0 -5 7 -10 15 -10 9 0 27 -8 42 -17 14 -10 31 -18 37 -19 6 -2 53 -21 104 -43
123 -54 290 -110 402 -136 8 -1 33 -8 55 -13 22 -6 59 -13 83 -16 24 -3 47 -8
50 -10 4 -3 36 -7 71 -11 34 -4 72 -8 84 -11 11 -2 63 -6 115 -9 52 -3 98 -7
102 -10 5 -3 11 -1 15 5 4 6 12 7 18 3 11 -7 102 -6 192 1 41 4 58 -5 129 -67
37 -32 165 -106 241 -139 33 -15 76 -33 97 -42 20 -9 38 -16 41 -16 3 0 18 -5
34 -12 15 -6 33 -12 38 -14 6 -1 44 -14 86 -28 93 -31 249 -70 344 -86 39 -7
81 -14 95 -17 53 -11 211 -21 431 -29 177 -6 231 -2 459 40 19 3 46 9 60 12
14 3 34 7 45 9 11 2 30 6 43 9 50 13 67 17 77 20 6 2 24 6 40 10 17 4 41 11
55 16 14 4 34 11 45 15 11 3 22 7 25 7 47 4 357 148 436 202 21 14 42 26 46
26 4 0 16 6 25 14 10 8 55 43 101 77 51 38 92 78 107 104 30 50 33 80 8 71
-16 -6 -16 -6 -1 11 9 10 17 21 17 26 0 4 8 22 18 40 19 36 19 38 28 127 8 75
12 228 19 734 3 197 7 361 10 363 2 2 16 6 31 9 57 10 158 65 201 109 60 60
78 102 89 200 4 28 11 62 17 77 14 36 -19 129 -65 186 -15 19 -66 39 -118 45
-84 12 -84 12 -103 92 -14 60 -24 81 -54 110 -20 19 -40 35 -43 35 -4 0 -14 6
-21 13 -31 28 -171 97 -258 127 -36 12 -75 27 -87 32 l-22 11 25 45 c14 24 31
51 39 59 8 8 15 19 15 24 0 8 59 104 83 134 4 6 30 46 58 90 28 44 64 99 80
123 16 23 29 47 29 51 0 5 4 11 8 13 5 2 28 32 52 68 44 66 167 231 179 240
16 13 163 215 187 257 37 66 77 127 89 135 5 4 6 8 2 8 -4 0 3 15 17 33 15 19
26 41 26 51 0 9 7 19 15 22 8 4 15 14 15 23 0 9 4 21 9 27 5 5 33 79 61 164
48 142 52 161 47 225 -5 73 -22 125 -42 125 -6 0 -21 9 -33 20 -12 11 -26 20
-32 20 -5 0 -11 7 -11 15 -4 40 -6 52 -18 76 -7 15 -24 33 -37 40 -13 7 -24
16 -24 21 0 4 -9 8 -20 8 -10 0 -28 9 -38 20 -54 58 -250 -51 -319 -177 -58
-108 -157 -277 -256 -438 -60 -99 -125 -205 -143 -235 -18 -30 -58 -93 -89
-140 -30 -47 -58 -93 -61 -102 -4 -10 -10 -18 -15 -18 -5 0 -9 -5 -9 -10 0 -6
-16 -34 -35 -63 -20 -30 -37 -63 -40 -75 -2 -12 -10 -29 -18 -36 -7 -8 -38
-55 -67 -106 -59 -100 -59 -100 -74 -4 -3 17 -10 44 -16 60 -6 16 -11 30 -10
32 2 4 -30 115 -39 137 -19 43 -41 105 -37 105 2 0 -9 27 -25 60 -16 33 -29
63 -29 66 0 23 -206 395 -229 414 -3 3 -23 31 -44 62 -21 31 -48 67 -60 80
-12 13 -35 42 -52 64 -35 47 -283 296 -340 341 -22 17 -58 46 -80 64 -46 37
-150 107 -239 162 -33 20 -68 41 -76 47 -8 5 -53 28 -100 50 -47 23 -96 47
-110 55 -39 20 -195 80 -290 110 -73 23 -128 38 -225 61 -39 10 -104 22 -152
29 -18 3 -50 8 -70 11 -21 3 -60 8 -88 11 -58 6 -452 13 -457 8z m3112 -2815
c0 -5 -7 -7 -15 -4 -8 4 -15 8 -15 10 0 2 7 4 15 4 8 0 15 -4 15 -10z m109
-37 c2 -2 2 -5 -1 -8 -5 -5 -98 33 -98 40 0 4 88 -25 99 -32z m-114 7 c3 -5 1
-10 -4 -10 -6 0 -11 5 -11 10 0 6 2 10 4 10 3 0 8 -4 11 -10z m199 -33 c3 4 6
1 6 -6 0 -8 -6 -11 -16 -7 -9 3 -27 9 -40 12 -13 3 -24 10 -24 15 0 4 15 2 34
-6 18 -8 36 -11 40 -8z m62 -46 c1 -6 0 -7 -3 -1 -2 5 -11 10 -18 10 -8 0 -17
4 -20 10 -4 6 2 7 16 1 13 -4 24 -13 25 -20z m71 -44 c18 -22 18 -22 -3 -4
-11 9 -26 17 -32 17 -6 0 -13 4 -16 9 -12 18 33 -2 51 -22z m-87 13 c0 -5 -2
-10 -4 -10 -3 0 -8 5 -11 10 -3 6 -1 10 4 10 6 0 11 -4 11 -10z m-355 -40 c3
-6 -1 -7 -9 -4 -18 7 -21 14 -7 14 6 0 13 -4 16 -10z m515 -47 c0 -3 -9 2 -20
12 -11 10 -20 22 -20 27 0 4 9 -1 20 -12 11 -11 20 -23 20 -27z m10 -298 c0
-8 -2 -15 -4 -15 -2 0 -6 7 -10 15 -3 8 -1 15 4 15 6 0 10 -7 10 -15z m221 6
c12 -103 -1 -122 -99 -149 -117 -32 -112 -35 -112 58 0 79 0 80 28 86 15 3 31
7 35 8 36 8 147 5 148 -3z m-227 -47 c3 -8 2 -12 -4 -9 -6 3 -10 10 -10 16 0
14 7 11 14 -7z m-1 -134 c-11 -12 -18 24 -14 67 l5 48 6 -55 c4 -30 5 -57 3
-60z m242 30 c-10 -11 -22 -20 -28 -20 -5 0 1 9 14 20 31 25 37 25 14 0z
m-334 -1673 c-10 -9 -11 -8 -5 6 3 10 9 15 12 12 3 -3 0 -11 -7 -18z"/>
</g>
</svg>
