<?xml version="1.0" standalone="no"?>
<!DOCTYPE svg PUBLIC "-//W3C//DTD SVG 20010904//EN"
 "http://www.w3.org/TR/2001/REC-SVG-20010904/DTD/svg10.dtd">
<svg version="1.0" xmlns="http://www.w3.org/2000/svg"
 width="512.000000pt" height="512.000000pt" viewBox="0 0 512.000000 512.000000"
 preserveAspectRatio="xMidYMid meet">
<metadata>
Created by potrace 1.14, written by Peter Selinger 2001-2017
</metadata>
<g transform="translate(0.000000,512.000000) scale(0.100000,-0.100000)"
fill="#000000" stroke="none">
<path d="M2339 4956 c-2 -2 -35 -6 -74 -10 -38 -3 -81 -8 -95 -10 -14 -3 -41
-7 -60 -10 -292 -44 -642 -181 -906 -355 -266 -174 -448 -350 -672 -651 -73
-97 -204 -347 -258 -488 -77 -203 -130 -421 -151 -613 -10 -94 -10 -422 0
-514 47 -450 237 -904 528 -1261 168 -207 444 -443 651 -557 23 -13 68 -38 98
-55 181 -99 528 -215 715 -238 22 -3 46 -7 53 -9 75 -25 650 -25 691 0 3 1 29
6 56 9 197 26 522 138 734 253 101 55 277 172 366 243 75 61 260 239 315 305
176 211 330 466 415 690 73 192 134 440 152 620 15 148 8 500 -11 600 -2 11
-7 40 -11 65 -9 56 -62 271 -80 325 -158 468 -417 842 -786 1137 -276 221
-582 372 -929 458 -111 27 -148 35 -235 46 -22 3 -51 8 -65 11 -27 5 -436 14
-441 9z m513 -1170 c50 -14 76 -79 53 -133 -32 -77 -141 -78 -180 -3 -26 50
-4 113 48 135 32 13 34 13 79 1z m-262 -221 c324 -36 638 -211 820 -456 106
-141 167 -304 177 -470 7 -116 6 -117 -99 -88 -40 11 -125 34 -188 51 -104 27
-596 158 -780 208 -41 11 -157 42 -257 69 -101 27 -186 52 -190 54 -5 3 -18 1
-30 -4 -23 -8 -32 -43 -14 -53 6 -4 426 -120 511 -141 13 -3 270 -72 295 -79
6 -1 30 -8 55 -15 25 -7 52 -14 60 -16 8 -2 147 -38 307 -81 186 -50 295 -84
298 -93 3 -7 -1 -24 -9 -36 -18 -27 11 -32 -386 75 -312 85 -237 65 -1007 270
-612 164 -613 164 -613 190 0 45 14 49 93 29 91 -24 94 -23 102 2 10 30 -9 44
-88 64 -38 10 -71 24 -74 31 -8 21 64 131 134 204 204 217 536 324 883 285z
m-1689 -1325 c21 -12 193 -182 227 -225 36 -45 5 -100 -48 -88 -35 8 -252 229
-256 259 -1 16 7 31 23 44 30 23 29 23 54 10z m3284 -19 c22 -38 14 -53 -98
-165 -128 -129 -145 -140 -181 -126 -14 5 -27 13 -27 17 -8 49 -3 56 112 172
65 65 124 121 131 124 19 8 52 -3 63 -22z m-527 -30 c48 -26 45 -100 -6 -119
-18 -7 -408 -10 -1154 -10 -1091 1 -1128 2 -1148 20 -45 42 -20 114 44 120 17
2 528 3 1136 2 853 -1 1110 -4 1128 -13z m-27 -251 c-5 -109 -40 -226 -107
-351 -25 -47 -103 -127 -164 -168 -53 -35 -136 -69 -211 -87 -37 -9 -1167 -11
-1234 -2 -246 33 -455 220 -508 453 -19 82 -28 203 -15 207 4 2 511 3 1125 3
l1117 0 -3 -55z m-2338 -75 c15 -4 27 -8 27 -9 1 0 3 -18 6 -40 l6 -38 -59 31
c-89 48 -110 66 -95 84 11 13 17 13 51 -3 20 -10 49 -22 64 -25z m2552 16 c0
-14 -120 -91 -142 -91 -10 0 -13 10 -11 31 3 27 11 34 58 54 60 25 95 28 95 6z"/>
<path d="M3078 3309 c-29 -17 -21 -42 32 -94 48 -47 50 -48 69 -31 14 13 18
23 12 35 -9 16 -88 101 -93 101 -2 0 -11 -5 -20 -11z"/>
<path d="M3216 3144 c-9 -8 -16 -17 -16 -19 0 -2 29 -46 64 -98 64 -94 106
-195 110 -264 2 -40 23 -60 51 -49 26 10 14 116 -24 205 -40 95 -139 241 -162
241 -4 0 -15 -7 -23 -16z"/>
</g>
</svg>
