<?xml version="1.0" standalone="no"?>
<!DOCTYPE svg PUBLIC "-//W3C//DTD SVG 20010904//EN"
 "http://www.w3.org/TR/2001/REC-SVG-20010904/DTD/svg10.dtd">
<svg version="1.0" xmlns="http://www.w3.org/2000/svg"
 width="512.000000pt" height="512.000000pt" viewBox="0 0 512.000000 512.000000"
 preserveAspectRatio="xMidYMid meet">
<metadata>
Created by potrace 1.14, written by Peter Selinger 2001-2017
</metadata>
<g transform="translate(0.000000,512.000000) scale(0.100000,-0.100000)"
fill="#000000" stroke="none">
<path d="M2395 4788 c-225 -39 -424 -132 -579 -272 l-49 -44 44 -32 c170 -123
305 -308 375 -513 37 -109 62 -287 49 -346 -9 -40 -48 -65 -91 -56 -45 8 -60
39 -68 137 -25 319 -204 585 -493 728 -44 23 -89 42 -100 45 -10 2 -45 11 -78
20 -118 33 -313 27 -462 -14 -264 -72 -507 -318 -587 -595 -26 -87 -31 -132
-30 -251 1 -135 7 -176 45 -285 83 -240 288 -449 524 -535 39 -14 84 -28 100
-31 64 -11 88 -41 100 -125 10 -74 15 -102 25 -154 14 -75 19 -104 30 -175 5
-36 12 -74 14 -85 2 -11 11 -63 20 -115 9 -52 18 -106 21 -120 3 -13 7 -42 10
-65 3 -22 17 -105 31 -185 14 -80 27 -156 29 -170 2 -14 6 -38 9 -55 3 -16 17
-100 32 -185 14 -85 27 -162 29 -170 2 -13 38 -15 245 -18 l242 -2 -6 112 c-4
62 -9 131 -11 153 -3 22 -7 83 -10 135 -8 131 -15 226 -20 285 -2 28 -7 95
-10 150 -3 55 -8 126 -11 158 -3 32 -2 67 1 78 9 27 61 52 92 44 50 -12 61
-35 68 -145 3 -41 7 -100 10 -130 2 -30 7 -98 11 -150 11 -172 13 -194 19
-275 12 -157 14 -191 21 -285 4 -52 7 -103 6 -112 -1 -17 17 -18 244 -18 l244
0 0 451 c0 269 4 458 10 468 5 10 23 24 40 31 38 16 87 -2 101 -37 5 -13 9
-224 9 -469 l0 -444 243 0 c188 0 244 3 244 13 1 32 14 227 18 267 5 48 12
146 20 275 3 44 7 105 10 135 2 30 7 98 10 150 9 155 16 213 31 241 21 42 86
49 122 13 24 -24 21 -133 -13 -549 -3 -33 -8 -98 -11 -145 -3 -47 -7 -105 -9
-130 -2 -25 -7 -96 -11 -158 l-6 -112 243 2 c154 2 244 7 245 13 0 6 4 30 8
55 4 25 10 59 12 75 3 17 7 37 9 45 2 8 6 33 10 55 10 69 135 809 140 825 2 8
6 38 10 65 3 28 8 57 10 65 2 8 6 33 10 55 7 49 11 71 35 209 12 64 27 117 37
128 9 10 35 23 57 28 177 45 310 122 436 250 233 238 309 586 198 905 -87 250
-294 453 -550 539 -43 14 -103 30 -135 35 -53 8 -267 8 -303 -1 -85 -21 -150
-43 -150 -50 0 -5 13 -28 29 -51 62 -92 149 -293 156 -364 2 -24 -4 -39 -22
-58 -52 -51 -120 -20 -143 66 -18 65 -78 194 -127 271 -57 90 -167 213 -239
268 -32 25 -60 48 -62 53 -2 4 -8 7 -14 7 -5 0 -22 9 -37 19 -72 51 -253 125
-356 145 -16 4 -41 9 -55 12 -42 10 -292 11 -345 2z"/>
<path d="M1360 640 l0 -320 1200 0 1200 0 0 320 0 320 -1200 0 -1200 0 0 -320z"/>
</g>
</svg>
