<?xml version="1.0" encoding="utf-8"?>
<!-- Generator: Adobe Illustrator 24.0.1, SVG Export Plug-In . SVG Version: 6.00 Build 0)  -->
<svg version="1.1" id="artwork2" xmlns="http://www.w3.org/2000/svg" xmlns:xlink="http://www.w3.org/1999/xlink" x="0px" y="0px"
	 viewBox="0 0 179.9 157.1" style="enable-background:new 0 0 179.9 157.1;" xml:space="preserve">
<style type="text/css">
	.st0{fill:#166563;}
	.st1{fill:#FF9400;}
	.st2{fill:#FFFFFF;}
</style>
<g>
	<circle class="st0" cx="75.2" cy="73.2" r="66.2"/>
	<path class="st1" d="M174,30.1c-0.2-1.4-0.7-1.9-1.7-2.2c-0.2-0.5-0.6-0.6-1-0.7c-0.3,0-0.5-0.1-0.7-0.4c-0.2-0.4-0.5-0.5-0.9-0.4
		c-0.6,0.2-1.1,0.2-1.7,0.4c-0.6,0.2-1.2,0.4-1.7,0.7c-1.5,0.9-2.6,2.2-3.5,3.7c-1.2,2.1-2.4,4.1-3.6,6.2l-7.3,12.1
		c-0.4,0.7-0.8,1.3-1.3,2c-1.3,2.1-2.6,4.1-3.9,6.2c-0.1,0.2-0.2,0.4-0.3,0.6c0,0,0.1,0,0.1,0.1l-0.4,0.7c-0.4,0.1-0.5,0.5-0.6,0.7
		c-1.3,2.1-2.6,4.2-3.8,6.4c-2,3.3-4,6.7-5.9,10c-1.4,2.4-2.7,4.8-4,7.2c-2.2,3.9-4.3,7.9-6.5,11.8c-0.8,1.5-1.6,2.9-2.4,4.4
		c-0.1,0.2-0.2,0.4-0.5,0.3c-1.5-0.4-2.9-0.1-4.2,0.6c-4,2-7.4,4.7-10.2,8.1c-2,2.5-4,5.2-5.7,7.9c-2.9,4.5-5.7,9.2-8.4,13.8
		c-0.2,0.4-0.2,1-0.2,1.6c0,0.1,0.1,0.3,0.2,0.4c0.4,0.3,0.8,0.5,1.2,0.5c0.8,0.6,1.9,1.3,2.9,1.9c-0.1-0.1-0.3-0.1-0.4-0.2
		c-0.4-0.2-0.8-0.4-1.1-0.6c0,0.1,0.1,0.2,0.1,0.2c1.1,0.7,2.2,1.5,3.4,2.2c1.8,1,3.7,2,5.5,2.9c1.6,0.8,3.4,1.5,5,2.4
		c1.8,1,3.7,1.7,5.6,2.3c0.7,0.2,1.3,0.4,2,0.6c0.3,0.1,0.5,0.1,0.8,0.2c0.2-0.1,0.3-0.2,0.5-0.3c0.5-0.7,1.1-1.4,1.3-2.1
		c0.4-1.2,1-2.3,1.5-3.5c0.7-1.6,1.3-3.2,1.9-4.8c0.9-2.5,1.9-4.9,2.7-7.4c1.1-3.4,2.1-6.9,3.2-10.4c0.3-1,0.6-2.1,0.9-3.2
		c0.4-2,0.1-4.1-0.3-6.1c-0.2-1-0.1-1.8,0.4-2.6c1.6-2.8,3.2-5.7,4.8-8.5c1.7-2.9,3.6-5.7,5.4-8.5c1.8-2.8,3.6-5.7,5.4-8.5
		c1.4-2.2,2.6-4.5,4-6.7c2-3.1,4-6.2,6-9.3l3-4.3c1.4-1.8,2.8-3.6,4.2-5.4c1.1-1.4,2.2-2.7,3.1-4.3c0.6-1.1,1.3-2.2,2-3.3
		c0.5-0.8,1.1-1.6,1.5-2.5c1-1.6,1.8-3.6,2.4-5.7c0.3-0.9,0.6-1.8,0.9-2.7C174.3,33,174.3,31.5,174,30.1z M142.1,65.9l-1,1.8
		c0.1-0.2,0.2-0.4,0.4-0.6C141.7,66.6,141.9,66.3,142.1,65.9z M122.6,101.1c0.2-0.4,0.5-0.9,0.7-1.3c0.6-1.1,1.2-2.1,1.7-3.2
		c0.4-0.7,0.7-1.4,1.1-2.1c0.9-1.6,1.7-3.2,2.6-4.8l-6.1,11.8C122.6,101.3,122.6,101.2,122.6,101.1z M118.8,143.7
		c-0.2,0-0.3,0-0.5,0c0.7,0,0.9-0.1,0.9-0.1C119.2,143.6,119,143.7,118.8,143.7z M126.7,126.2c-0.1,0.4-0.3,0.8-0.5,1.2
		c-0.4,1.1-0.7,2.3-1.2,3.4c-0.1,0.2-0.2,0.4-0.2,0.6c1.7-4.8,3.3-9.9,4.4-13.4c-0.2,0.9-0.5,1.8-0.8,2.7
		C127.9,122.5,127.3,124.3,126.7,126.2z M148.9,74.3c-0.8,1.3-1.6,2.7-2.3,4c-0.6,1-1.2,2-1.8,3c-0.6,0.9-1.2,1.8-1.7,2.7
		c-1,1.5-2,3-3,4.5c-0.6,0.9-1.1,1.9-1.7,2.8c-0.1,0.2-0.2,0.3-0.3,0.5l1.9-3.3L151.6,70C150.7,71.4,149.8,72.9,148.9,74.3z"/>
	<g>
		<path class="st2" d="M119.6,97.4l11-21.1l14.7-24.9l15.3-25.1c0,0,3.6-4,6.2-3.2c2.6,0.8,3.9,0.6,4.2,2.9c0.3,2.3-1,9.1-3.4,12.8
			c-2.5,3.7-9.9,14.3-9.9,14.3L148.6,66l-11.7,18.6l-9.5,16.7c0,0,1.1,5.4,0,8.7c-1.1,3.3-8.1,27.4-11.1,29.5c0,0-2.6,1.6-17.2-6.5
			c0,0-8-4.5-8.3-5.6l10.6-17.8c0,0,8.4-11.9,15.6-13.7C116.9,95.9,118.2,96.4,119.6,97.4z"/>
		<path d="M116,140.5c-0.3-0.1-0.5-0.1-0.8-0.2c-0.7-0.2-1.3-0.4-2-0.6c-2-0.5-3.9-1.3-5.6-2.3c-1.6-0.9-3.3-1.6-5-2.4
			c-1.9-0.9-3.7-1.9-5.5-2.9c-1.2-0.7-2.3-1.4-3.4-2.2c-0.1,0-0.1-0.1-0.1-0.2c0.4,0.2,0.8,0.4,1.1,0.6c0.7,0.3,1.3,0.7,2,1
			c0.6,0.4,1.2,0.8,1.9,1.1c0.4,0.2,0.7,0.4,1.1,0.6c0.6,0.3,1.2,0.7,1.8,1c1.3,0.6,2.5,1.2,3.8,1.8c1.5,0.7,3.1,1.3,4.6,2.1
			c1.2,0.6,2.5,1,3.7,1.3c0.7,0.2,1.6,0.2,2.3,0.3c0.1,0,0.3-0.1,0.5-0.2c0.5-0.5,1-1.2,1.2-1.9c0.4-1,0.9-1.9,1.3-2.9
			c0.6-1.3,1.1-2.7,1.7-4.1c0.5-1.3,1-2.6,1.5-3.8c0.4-1.1,0.8-2.3,1.2-3.4c0.1-0.4,0.3-0.8,0.5-1.2c0.6-1.8,1.2-3.6,1.7-5.4
			c0.6-2,1-4,1.7-6c0.6-1.7,0.7-3.5,0.7-5.3c0-0.8-0.3-1.7-0.5-2.5c-0.1-0.3-0.3-0.6-0.7-0.7c-0.1,0-0.2-0.3-0.1-0.4
			c0.3-0.5,0.4-1.2,1-1.6c0.3-0.2,0.4-0.6,0.6-0.9c0.9-1.6,1.8-3.1,2.8-4.7c0.8-1.3,1.5-2.6,2.3-3.8c0.7-1.2,1.5-2.3,2.2-3.5
			c0.6-0.9,1.1-1.9,1.7-2.8c1-1.5,2-3,3-4.5c0.6-0.9,1.2-1.8,1.7-2.7c0.6-1,1.2-2,1.8-3c0.8-1.3,1.5-2.7,2.3-4
			c0.9-1.5,1.8-2.9,2.7-4.3c0.9-1.3,1.8-2.6,2.7-4c1-1.5,1.8-3.1,2.8-4.6c0.1-0.2,0.3-0.3,0.4-0.4c0.1,0,0.1,0.1,0.2,0.1
			c-0.2,0.3-0.3,0.6-0.5,0.9c-2.1,3.3-4.3,6.5-6.3,9.8c-1.4,2.2-2.6,4.5-4,6.7c-1.8,2.9-3.6,5.7-5.4,8.5c-1.8,2.8-3.7,5.6-5.4,8.5
			c-1.7,2.8-3.2,5.6-4.8,8.5c-0.5,0.8-0.6,1.6-0.4,2.6c0.4,2,0.7,4,0.3,6.1c-0.2,1.1-0.5,2.1-0.9,3.2c-1,3.5-2.1,6.9-3.2,10.4
			c-0.8,2.5-1.8,4.9-2.7,7.4c-0.6,1.6-1.2,3.2-1.9,4.8c-0.5,1.2-1.1,2.3-1.5,3.5c-0.2,0.8-0.9,1.4-1.3,2.1
			C116.4,140.2,116.2,140.4,116,140.5z"/>
		<path d="M162.5,41.9c0.1,0.3,0.2,0.5,0.2,0.8c0.5-0.4,0.7-1,0.8-1.6c0-0.6,0.1-1.3,0.1-1.9c0,0,0.1,0,0.1,0c0,0.7-0.1,1.4-0.1,2.1
			c0,0,0.1,0,0.1,0c0.1-0.2,0.3-0.4,0.4-0.6c0.3-0.5,0.5-1.1,0.8-1.6c0.1-0.1,0.2-0.2,0.3-0.3c0.4-0.4,0.4-0.9,0.4-1.4
			c0-0.5,0-0.9,0-1.4c0,0,0.1,0,0.1,0c0,0.6,0,1.2,0,1.8c0.4-0.5,0.8-1,0.8-1.8c0-0.8,0.1-1.6,0.2-2.4c0,0.8,0,1.6-0.1,2.3
			c0,0,0.1,0,0.1,0c0.2-0.3,0.4-0.6,0.5-1c0.2-0.5,0.3-1,0.5-1.5c0.1-0.2,0.3-0.4,0.4-0.6c0.5-0.9,0.6-1.9,0.8-2.9
			c0.1-0.3,0.3-0.6,0.3-0.8c-0.1-0.9-0.3-1.7-0.4-2.6c-0.1-0.3-0.1-0.5,0.1-0.5c0.1,0,0.3,0.1,0.4,0.3c0.6,1.1,0.7,2.2,0.5,3.4
			c-0.2,0.9-0.5,1.8-0.7,2.7c-0.2,0.7-0.2,1.4-0.3,2c0.1,0,0.1,0,0.2,0c0.2-0.6,0.5-1.1,0.7-1.7c0.4-1.6,0.8-3.1,0.9-4.8
			c0.1-0.9,0-1.9-0.4-2.7c-0.1-0.2-0.4-0.4-0.7-0.5c-0.3-0.2-0.7-0.3-1.1-0.5c-0.2-0.1-0.5-0.1-0.7-0.1c0.4,0.4,0.8,0.7,1.2,1.1
			c0.1,0.1,0,0.3,0.1,0.5c-0.1,0-0.3,0-0.4-0.1c-0.8-0.8-1.8-1-2.9-0.9c-0.1,0-0.3,0.1-0.4,0.1c-0.1,0-0.3,0-0.3,0
			c-0.1-0.1-0.1-0.2,0-0.3c0-0.1,0.2-0.2,0.3-0.3c0.2-0.1,0.3-0.1,0.5-0.1c0.8,0.1,1.6-0.3,2.4-0.5c-0.3-0.1-0.7-0.2-1-0.2
			c-0.9,0-1.8,0-2.7,0c-0.3,0-0.5,0.1-0.7,0.3c-1.1,0.7-2,1.6-2.8,2.6c-1,1.2-1.7,2.6-2.4,4c-0.8,1.4-1.6,2.8-2.5,4.1
			c-0.5,0.8-0.9,1.6-1.4,2.4c-0.8,1.4-1.7,2.9-2.5,4.3c-0.7,1.2-1.5,2.3-2.2,3.4c-0.6,1-1.2,1.9-1.8,2.9c-0.4,0.7-0.9,1.3-1.4,1.9
			c-0.8,1.2-1.5,2.4-2.3,3.6c-0.3,0.5-0.7,0.9-1,1.4c0,0-0.1,0-0.1-0.1c0.1-0.2,0.2-0.4,0.3-0.6c1.3-2.1,2.6-4.1,3.9-6.2
			c2.2-3.5,4.4-7,6.5-10.5c2-3.2,3.8-6.5,5.7-9.8c0.9-1.5,2-2.8,3.5-3.7c0.5-0.3,1.1-0.5,1.7-0.7c0.5-0.2,1.1-0.3,1.7-0.4
			c0.4-0.1,0.7,0,0.9,0.4c0.1,0.3,0.4,0.4,0.7,0.4c0.5,0.1,0.9,0.2,1.1,0.7c0.1,0.2,0.3,0.4,0.4,0.5c0.7,0.4,1.1,0.9,1.2,1.7
			c0.3,1.5,0.2,2.9-0.1,4.3c-0.8,2.9-1.9,5.7-3.3,8.4c-0.4,0.9-1,1.7-1.5,2.5c-0.7,1.1-1.4,2.2-2,3.3c-0.8,1.6-2,2.9-3.1,4.3
			c-2,2.6-4.1,5.3-6.1,7.9c0,0,0,0-0.2,0.1c0-0.2,0.1-0.3,0.1-0.4c1-1.3,2-2.5,3-3.8c0.5-0.7,1-1.4,1.5-2.1c0,0,0.1-0.1,0.1-0.2
			c0-0.5,0-1.1,0-1.6c-0.1,0-0.1,0-0.2,0c-0.3,0.4-0.6,0.7-0.8,1.2c-0.2,0.4-0.3,0.9-0.4,1.3c0,0-0.1,0-0.1,0c0-0.1-0.1-0.2-0.1-0.4
			c-0.1,0.1-0.1,0.1-0.2,0.2c-0.6,0.8-1.1,1.6-1.7,2.5c-0.1,0.2-0.1,0.4-0.1,0.6c0,0.2-0.1,0.4-0.1,0.8c-0.2-0.2-0.3-0.3-0.4-0.4
			c-0.5,0.7-0.9,1.3-1.4,2c-1,1.5-2,3.1-3,4.6c-0.3,0.4-0.5,0.8-0.8,1.2c-0.3,0.5-0.7,0.9-1.1,1.4c0,0-0.1-0.1-0.1-0.1
			c0.3-0.5,0.6-1,0.9-1.4c0.6-1,1.2-2,1.9-2.9c0.9-1.5,1.9-3,2.9-4.4c0.1-0.2,0.2-0.3,0.4-0.5c0.7-0.7,0.4-1.6,0.5-2.4
			c0.1-1.8,0.1-3.6,0.1-5.4c0-0.2,0-0.3,0.1-0.5c0,2.3,0,4.6,0.1,6.9c0.1,0,0.1,0,0.2,0c0.3-0.6,1-1.1,1.1-1.9c0.1-0.7,0-1.5,0-2.2
			c0,0,0.1,0,0.1,0c0,0.7,0,1.4,0,2.2c0.5-0.4,0.8-0.9,0.8-1.5c0-1,0.1-2,0.2-3l0,0c0,0.5,0.1,0.9,0.1,1.4c0,0.5,0,1,0,1.5
			c0.1,0,0.1,0,0.2,0.1c0.2-0.2,0.3-0.5,0.5-0.7c0.3-0.4,0.5-0.7,0.5-1.2c-0.1-0.8,0-1.6,0-2.4c0,0,0.1,0,0.1,0c0,0.9,0,1.8,0.1,2.7
			c0.6-0.6,0.9-1.3,0.9-2.1c0-0.5,0-0.9,0-1.4c0,0,0.1,0,0.1,0c0,0.6,0.1,1.2,0.1,1.8c0.7-0.4,1.1-1.6,1-2.4c-0.1-0.7,0-1.5-0.1-2.2
			c0-0.3,0-0.5,0.1-0.8c0.1,1.1-0.1,2.3,0.2,3.4c0.6-0.5,0.6-1.2,0.6-1.8C162.5,42.1,162.5,42,162.5,41.9L162.5,41.9z M160.5,48.4
			c0-0.3-0.1-0.5-0.1-0.8c-1,0.6-0.5,1.5-0.6,2.4c0.4-0.4,0.8-0.7,0.6-1.3C160.3,48.6,160.4,48.5,160.5,48.4c0,0.1,0.1,0.3,0.2,0.5
			c1.1-1.1,1.4-2.1,1-3.4c-0.4,0.6-1,1.1-1,1.9C160.6,47.7,160.5,48.1,160.5,48.4z M162,46.9c0,0,0.1,0,0.1,0.1c0.3-0.5,0.7-1,1-1.5
			c0.5-0.8,0.8-1.6,1.4-2.3c0.6-0.8,0.4-1.6,0.4-2.6c-0.3,0.3-0.5,0.6-0.6,0.8c-0.2,0.4-0.5,0.8-0.6,1.3c-0.1,0.5,0,1-0.1,1.4
			c0,0.1-0.1,0.1-0.2,0.3c0-0.6,0-1,0-1.5c-1.1,0.8-0.6,2-0.8,3c0,0-0.1,0-0.1,0c0-0.5,0-1-0.1-1.6C161.6,45.1,162,46,162,46.9z
			 M167.7,36.2c-0.6,0.8-1.1,1.6-1.2,2.6c0-0.2-0.1-0.4-0.1-0.6c-0.7,0.8-0.6,1.6-0.4,2.6c0.3-0.6,0.7-1.1,0.9-1.6
			c0.6-1.1,1.2-2.3,1.7-3.4c0.3-0.6,0.1-1.2,0-1.7c-0.2,0.5-0.5,1-0.6,1.5c-0.1,0.5-0.1,1.1-0.2,1.6c-0.1,0-0.1,0-0.2,0
			C167.7,36.8,167.7,36.5,167.7,36.2z M165.6,39.5c-0.8,0.8-0.5,1.6-0.5,2.5C166,41.3,165.6,40.4,165.6,39.5z"/>
		<path d="M118.6,98.1c0-0.2,0-0.3,0-0.5c0,0-0.1-0.1-0.1-0.1c-0.7-0.1-1.4-0.2-2.1,0.1c-0.6,0.2-1.3,0.3-2,0.5
			c-0.1,0-0.2,0.1-0.3,0.1c-1.1,0.8-2.1,1.6-3.2,2.4c-0.5,0.4-1,0.8-1.5,1.2c-0.3,0.3-0.5,0.6-0.8,1c-0.5,0.7-1,1.4-1.5,2
			c-0.5,0.6-0.9,1.1-1.4,1.7c-0.9,1-1.8,2-2.6,3c-0.9,1.2-1.8,2.3-2.7,3.6c-1,1.5-1.9,3-2.9,4.5c-0.7,1-0.8,2.1-0.8,3.3
			c0,0.9-0.1,1.8-0.1,2.6c0,1.3,0,2.5,0,3.8c0,0.1,0,0.2,0,0.3c-0.1,0-0.1,0-0.2,0c0-1.3,0-2.6,0-4c0-1.3,0.1-2.6,0.2-4
			c-0.1,0-0.1,0-0.2-0.1c-0.1,0.3-0.2,0.6-0.3,0.9c0,0.1-0.2,0.2-0.2,0.3c-0.1-0.1-0.1-0.3-0.2-0.4c0-0.1,0-0.2,0.1-0.3
			c0.8-1.7,1.7-3.2,2.7-4.8c0.5-0.8,1.1-1.6,1.7-2.4c0.7-0.9,1.4-1.8,2.1-2.7c0.5-0.6,0.9-1.2,1.3-1.7c0.8-1,1.6-1.9,2.4-2.9
			c0.4-0.5,0.9-1,1.3-1.5c0.1-0.1,0-0.3,0-0.4c0-0.1,0-0.2,0.1-0.3c0.6-0.9,1.3-1.8,2.2-2.5c0.6-0.5,1.2-1.1,1.8-1.6
			c0.3-0.3,0.7-0.6,1-0.8c0,0-0.1-0.1-0.1-0.1c-0.9,0.7-1.7,1.3-2.6,2c-1.7,1.3-3.1,3.1-4.5,4.7c-1.1,1.3-2.1,2.7-3.1,4.1
			c-1.1,1.5-2.1,3-3.1,4.5c-1.4,2.2-2.7,4.4-4,6.6c-0.2,0.3-0.5,0.6-0.6,1c-0.1,0.5-0.2,1-0.2,1.5c0,1.3,0,2.5-0.1,3.8
			c0,0.1,0,0.1-0.1,0.2c-0.2-1.5-0.1-3-0.1-4.5c-0.5,0.6-0.9,1.2-1.2,2c-0.3,1-0.1,1.9-0.1,2.9c0,0.2,0.1,0.3,0.2,0.5
			c0.1,0.2,0.3,0.4,0.3,0.6c0,0.2-0.3,0.3-0.5,0.4c-0.6,0.2-1.2,0-1.6-0.4c-0.1-0.1-0.2-0.2-0.2-0.4c0-0.5,0-1.1,0.2-1.6
			c2.8-4.6,5.5-9.3,8.4-13.8c1.8-2.7,3.7-5.3,5.7-7.9c2.8-3.5,6.2-6.1,10.2-8.1c1.3-0.7,2.7-1,4.2-0.6c0.3,0.1,0.4-0.1,0.5-0.3
			c0.8-1.5,1.6-2.9,2.4-4.4c2.2-3.9,4.3-7.9,6.5-11.8c1.3-2.4,2.6-4.8,4-7.2c1.9-3.4,3.9-6.7,5.9-10c1.3-2.1,2.5-4.3,3.8-6.4
			c0.2-0.3,0.3-0.7,0.8-0.8c-0.5,0.8-0.9,1.5-1.4,2.2c-0.7,1.1-1.3,2.2-1.9,3.3c-0.5,0.8-1,1.6-1.5,2.4c-0.9,1.6-1.8,3.2-2.7,4.8
			c-1,1.7-2,3.5-3,5.2c-1.1,1.9-2.2,3.8-3.3,5.7c-1,1.9-2,3.8-3.1,5.7c-1.1,2-2.2,4.1-3.3,6.1c-0.4,0.7-0.7,1.4-1.1,2.1
			c-0.6,1.1-1.2,2.1-1.7,3.2c-0.2,0.4-0.5,0.9-0.7,1.3c0,0.1,0,0.2,0,0.3c0,0.3,0,0.6-0.4,0.4C119,97.8,118.8,98,118.6,98.1z
			 M91.4,127c-0.1,0.3-0.4,0.7-0.3,0.8c0.3,0.3,0.6,0.7,1.2,0.6c0-1.1-0.1-2.1-0.1-3.2c0,0-0.1,0-0.1,0
			C92,125.8,91.4,126.2,91.4,127z M119.2,96.5c-1.5-0.5-2.9,0.1-4.2,0.7c0.4,0,0.8-0.1,1.2-0.2c0.6-0.1,1.3-0.3,1.9-0.2
			C118.6,97,118.9,96.7,119.2,96.5z"/>
		<path d="M128.4,87.9c0,0.1,0.1,0.3,0.1,0.4c-0.1,0.8-0.2,1.6-0.2,2.5c-0.1,0.8-0.1,1.6-0.1,2.4c0,0.7,0.1,1.3,0.2,2
			c0.4-0.8,1.1-1.5,1.1-2.5c0-1.1,0-2.2,0.1-3.3c0.1-1,0.1-2,0.2-3c0.3-1.9,0.6-3.8,0.9-5.6c0-0.2,0.1-0.5,0.2-0.7
			c0-0.1,0.2-0.1,0.3-0.2c0.1,0,0.1,0.1,0.2,0.2c0,0.3,0,0.6,0.1,0.9c0,0-0.1,0-0.1,0c0-0.3-0.1-0.5-0.1-0.8c-0.1,0-0.1,0-0.2,0
			c-0.9,4.1-1.3,8.2-1.3,12.5c0.1-0.1,0.2-0.1,0.2-0.2c0.1-0.2,0.2-0.4,0.3-0.6c1.1-1.3,0.9-2.8,1-4.3c0.2-2.1,0.3-4.2,0.5-6.3
			c0.1-1.3,0.4-2.7,0.6-4c-0.2,2.1-0.5,4.2-0.6,6.3c-0.2,2.1-0.3,4.2-0.3,6.3c0.5-0.8,1.1-1.6,1.6-2.4c0.1-0.2,0.1-0.4,0.1-0.7
			c0.1-1.1,0.1-2.2,0.1-3.3c0.1-2,0.3-4,0.4-6c0.1-0.7,0.2-1.4,0.3-2.1c0,0,0.1,0,0.1,0c-0.2,3.6-0.5,7.3-0.7,10.9
			c0.1,0,0.1,0,0.2,0c0.4-0.6,0.7-1.3,0.8-2.1c0.1-1.7,0.1-3.4,0.2-5.1c0.1-1.2,0.2-2.5,0.3-3.7c0-0.4,0.2-0.8,0.4-1.2
			c-0.2,3.4-0.4,6.8-0.6,10.2c0.1,0,0.1,0,0.2,0c0.4-0.6,0.8-1.2,0.8-2.1c-0.1-1.5,0-3,0.1-4.4c0.1-1.9,0.2-3.9,0.4-5.8
			c0-0.3,0.1-0.5,0.2-0.8c-0.1,3.8-0.3,7.5-0.4,11.3c0.1,0,0.1,0,0.2,0.1c0.2-0.3,0.4-0.7,0.6-1c0.6-0.8,0.6-1.7,0.5-2.6
			c-0.1-1.4,0-2.8,0-4.2c0-1.3,0.1-2.6,0.1-3.9c0-0.7,0.2-1.3,0.3-2c-0.4,3.8-0.2,7.5-0.2,11.4c0.7-0.8,1.2-1.5,1.1-2.6
			c-0.1-1.8,0-3.6,0-5.5c0-0.2,0.1-0.3,0.2-0.5c0,2.1,0,4.3,0,6.4c0.1,0,0.1,0,0.2,0.1c0.4-0.6,0.7-1.3,1.1-1.9
			c0.4-0.6,0.4-1.3,0.4-2c0-1,0.1-2,0.1-3.1c0,0,0-0.1,0.1-0.2c0,1.4,0,2.6,0,3.9c0.1,0,0.1,0,0.2,0c0.4-0.7,0.8-1.4,1.2-2.1
			c0.7-1,0.5-2.1,0.5-3.2c0-1.3,0-2.7,0-4c0-0.1,0-0.1,0-0.2c0,0,0.1,0,0.1,0c0,0.5,0.1,1,0.1,1.5c0,0.7,0,1.4,0.1,2.2
			c0,0.2-0.1,0.4,0.2,0.5c0.1,0.1,0,0.5,0,0.8c0,0.2,0,0.5,0,0.7c0,0.1-0.1,0.2-0.1,0.3c-0.8,1.5-1.6,2.9-2.4,4.4c0,0.1,0,0.2,0,0.3
			c0,0.3,0,0.7-0.1,1c-0.1-0.2-0.2-0.3-0.4-0.5c-0.4,0.9-1.2,1.6-1.4,2.6c-0.6,0.2-0.9,0.8-1.2,1.3c-0.1,0.2-0.2,0.5-0.3,0.8
			c-0.1,0.2-0.3,0.3-0.4,0.5c-0.4,0.6-0.7,1.3-1.1,1.9c-0.5,0.8-1.1,1.6-1.7,2.4c-0.4,0.6-0.9,1.2-0.7,2c0,0.1-0.1,0.3-0.2,0.4
			c-0.1,0-0.2-0.1-0.4-0.2c-0.9,1-1.4,2.4-2.2,3.5c-0.8,1.1-1.4,2.5-2.1,3.7c-0.7,1.2-1.4,2.5-2,3.7c0.1-0.1,0.2-0.3,0.3-0.4
			c0.7-1.1,1.3-2.1,2-3.2c0.6-0.9,1.2-1.8,1.8-2.8c0.4-0.6,0.6-1.2,1-1.7c0.6-0.9,1.3-1.9,2-2.8c0.3-0.5,0.6-0.9,1-1.4
			c0.5-0.7,1.1-1.4,1.6-2.1c0.1-0.2,0.3-0.4,0.4-0.6c0,0,0.1,0.1,0.1,0.1c-0.4,0.7-0.9,1.3-1.3,2c-0.3,0.5-0.7,1-1,1.5
			c-0.6,0.8-1.1,1.6-1.7,2.4c-0.4,0.6-0.8,1.2-1.2,1.9c-0.6,1-1.3,2.1-1.9,3.1c-0.4,0.7-0.8,1.4-1.3,2.1c-0.4,0.7-0.9,1.4-1.3,2
			c-0.2,0.3-0.4,0.6-0.6,0.9c-0.3,0.5-0.5,0.5-1,0.3c-0.3,0.5-0.5,1-1.1,1.2c0.3-0.7,0.6-1.4,1-2.1c0.3-0.6,0.8-1.2,1.2-1.8
			c0.4-0.8,0.9-1.5,1.3-2.4c0.1-0.3,0-0.8,0-1.2c-0.1-1.6,0-3.3,0.2-4.9c0.1-0.4,0-0.8,0-1.1C128.3,88.3,128.3,88.1,128.4,87.9
			C128.4,87.9,128.4,87.9,128.4,87.9z"/>
		<path d="M148,50.1c0.7-1,1.3-2,2-3.1c0.7-1.1,1.3-2.3,2-3.4c0.9-1.5,1.8-2.9,2.6-4.4c0.4-0.6,0.7-1.3,1-1.9
			c0.3-0.5,0.6-1.1,0.9-1.6c0.9-1.4,1.7-2.8,2.6-4.2c0.9-1.3,1.5-2.9,2.7-4c0.2-0.2,0.3-0.4,0.4-0.7c0.5-0.8,1.1-1.3,2.2-1.5
			c-0.2,0.2-0.2,0.4-0.4,0.4c-0.7,0.4-1.2,0.9-1.6,1.6c-0.3,0.5-0.7,0.8-1,1.3c-0.6,0.9-1.2,1.8-1.8,2.7c-0.4,0.7-0.9,1.3-1.3,2
			c-0.2,0.3-0.4,0.7-0.6,1c-0.9,1.5-1.9,2.9-2.6,4.5c-0.2,0.5-0.6,1-0.9,1.5c-0.8,1.5-1.6,3-2.4,4.4c-0.8,1.3-1.7,2.6-2.5,3.8
			C149,49.1,148.5,49.6,148,50.1C148,50.2,148,50.1,148,50.1z"/>
		<path d="M166.3,29.7c0,0-0.1-0.1-0.1-0.2c-0.1,0.2-0.2,0.3-0.3,0.5c0,0-0.1,0-0.1,0c0.1-0.2,0.1-0.4,0.2-0.5
			c-0.3-0.2-0.5-0.3-0.7-0.4c-1-0.5-1.3-1.6-0.5-2.6c0.2-0.2,0.6-0.3,0.9-0.4c0.6-0.1,1.2,0,1.8,0.2c0.7,0.3,1.1,0.9,1,1.6
			c-0.1,0.4-0.4,0.8-0.7,1.2c-0.2,0.2-0.4,0.4-0.8,0.3C166.7,29.4,166.5,29.6,166.3,29.7z M166,28.9c-0.1-0.3-0.2-0.5-0.3-0.7
			c-0.2,0-0.4,0.1-0.7,0.1C165.4,28.5,165.7,28.7,166,28.9z"/>
		<path d="M121.4,106.7c0-0.2,0-0.4,0.1-0.7c0-0.2,0.1-0.5,0.2-0.7c-0.6-0.2-1.2-0.4-1.7-0.7c-1-0.6-1.6-1.5-1.9-2.7
			c-0.2-0.8-0.2-1.5,0-2.2c0-0.1,0.2-0.2,0.3-0.3c0,0.1,0.1,0.3,0.1,0.4c-0.2,1.3,0.3,2.5,1,3.5c0.4,0.7,1.1,1.3,2,1.4
			c0.3,0,0.4,0,0.5-0.3c0.2-0.3,0.4-0.3,0.6,0c0.2,0.4,0.4,0.3,0.7,0.1c0.6-0.4,1.1-0.7,1.7-1.1c0.1-0.1,0.3-0.1,0.5-0.1
			c-0.5,0.7-1.1,1.3-2,1.6c-0.4,0.1-0.9,0.2-1.3,0.3c-0.2,0-0.3,0.2-0.4,0.3C121.6,106,121.5,106.4,121.4,106.7L121.4,106.7z"/>
		<path d="M125.8,88.8c0.1-0.2,0.2-0.5,0.3-0.7c0.1-0.2,0.2-0.3,0.3-0.5c0.3-0.7,0.4-1.3,0.9-1.9c0.4-0.6,0.6-1.4,0.9-2.1
			c0.1-0.2,0.2-0.4,0.3-0.6c0.1-0.1,0.2-0.1,0.4-0.3c-0.5,1.1-1.1,2.1-1.5,3.1c-0.2,0.4-0.1,0.8-0.1,1.3c0.1,0,0.1,0,0.2,0
			c0.1-0.3,0.2-0.5,0.3-0.8c-0.8,3.6-0.7,7.2-0.9,10.8c-0.1,0-0.1,0-0.2,0c0-0.2-0.1-0.3-0.1-0.5c0.1-1.5,0.2-3.1,0.3-4.6
			c0.1-1.1,0.2-2.1,0.2-3.2c0.1-0.7,0.3-1.4-0.1-2.2c-0.1,0.1-0.3,0.3-0.3,0.4c-0.2,1.3-0.5,2.7-0.7,4c-0.1,0.7-0.2,1.5-0.2,2.2
			c0,1.2,0,2.5,0,3.7c0,0.4,0.1,0.9-0.2,1.3c-0.2-1.7-0.1-3.4,0-5.1c0.1-1.7,0.3-3.4,0.5-5.1C126.1,88.4,125.9,88.6,125.8,88.8
			L125.8,88.8z"/>
		<path d="M125.8,88.8c0,0.4,0,0.8,0,1.3c0,0,0,0-0.1,0c0-0.1-0.1-0.3-0.1-0.4c0,0-0.1,0-0.1,0c-0.1,0.5-0.3,1-0.3,1.5
			c-0.2,1.6-0.4,3.2-0.5,4.8c-0.1,1.3-0.1,2.6-0.1,3.9c0,0.2-0.1,0.5-0.2,0.7c-0.1-0.2-0.2-0.4-0.2-0.6c0.1-1.3,0.2-2.7,0.3-4
			c0.1-0.9,0.1-1.7,0.1-2.6c-0.1,0-0.1,0-0.2,0c-0.2,1.3-0.4,2.6-0.6,4c-0.1,1.3-0.1,2.6-0.3,4c-0.1,0-0.2,0-0.2,0
			c0-0.2-0.1-0.3-0.1-0.4c0.2-1.5,0.4-3,0.6-4.6c0.1-0.7,0.2-1.4,0.3-2.2c0.1-0.5,0.2-1,0.4-1.6c0-0.1,0-0.1,0.1-0.1
			c0.1-0.1,0.3-0.1,0.3-0.2c0.1-0.5,0.2-1,0.2-1.6c0,0-0.1-0.1-0.2-0.1C125.2,89.9,125.5,89.4,125.8,88.8
			C125.8,88.8,125.8,88.8,125.8,88.8z"/>
		<path d="M100.6,131.8c0-1.1-0.1-2.2-0.1-3.2c0-1,0-2,0.1-3c0-1.2,0-2.5,0.1-3.7c0.1-1.7,0.2-3.3,0.4-5c0.1-0.8,0.3-1.6,0.5-2.3
			c0.1-0.2,0.2-0.5,0.5-0.3c0.1,0.3,0.1,0.7,0.2,1.1c0,0,0,0-0.1,0c-0.1-0.2-0.2-0.5-0.3-0.7c0,0-0.1,0-0.1,0
			c-0.1,0.3-0.1,0.7-0.2,1c-0.2,1.3-0.4,2.7-0.5,4c-0.1,2.6-0.2,5.3-0.3,7.9c0,1.3,0,2.6-0.1,4c0,0.1,0,0.2-0.1,0.3
			C100.7,131.8,100.7,131.8,100.6,131.8z"/>
		<path d="M102.3,134.1c-0.2-6.4-0.3-12.9,0.5-19.3c-0.4,6.4-0.4,12.9-0.2,19.3C102.5,134.1,102.4,134.1,102.3,134.1z"/>
		<path d="M107.8,115.2c0,1.7,0,3.4,0,5.1c0.1,3.3,0.2,6.6,0.3,9.9c0,1.1,0,2.2,0.1,3.3c0,0.1,0,0.1,0,0.2c0,0-0.1,0-0.1,0
			c0-0.6-0.1-1.1-0.1-1.7c-0.1-1.8-0.1-3.6-0.2-5.5c0-1.9-0.1-3.8-0.1-5.6c0-1.3-0.1-2.6-0.1-3.9c0-0.5,0-1,0-1.5
			C107.6,115.5,107.7,115.3,107.8,115.2L107.8,115.2z"/>
		<path d="M120,129.8c0,0.1,0,0.1,0,0.2c-0.3,0.7-0.6,1.3-0.8,2c-0.4,0.9-0.7,1.7-1.1,2.5c-0.6,1.4-1.3,2.8-1.9,4.2
			c-0.1,0.2-0.2,0.4-0.4,0.5c-0.1,0.1-0.3,0-0.4,0c-0.1,0-0.1-0.3,0-0.4c0.9-0.8,1.2-1.9,1.7-2.9c0.6-1.3,1.2-2.6,1.8-3.9
			c0.3-0.6,0.6-1.2,0.8-1.8C119.7,130.1,119.8,129.9,120,129.8C119.9,129.8,119.9,129.8,120,129.8z"/>
		<path d="M100.3,118.5c-0.1-0.1-0.2-0.2-0.4-0.3c-0.1,0.6-0.2,1.1-0.2,1.6c-0.1,1.9-0.2,3.7-0.3,5.6c-0.1,1.4-0.1,2.8-0.1,4.2
			c0,0.3,0,0.7,0,1c-0.1,0-0.1,0-0.2,0c0-1.3,0.1-2.6,0.1-3.9c0-1.2,0-2.3,0-3.5c0.1-1.6,0.3-3.1,0.4-4.7c0-0.2,0.1-0.4,0.2-0.6
			c0-0.1,0.1-0.1,0.2-0.2c0.1,0.1,0.2,0.2,0.2,0.3C100.4,118.1,100.3,118.3,100.3,118.5z"/>
		<path d="M124.1,106.8c-0.2,1.1-0.4,2.3-0.5,3.4c-0.2,1.7-0.4,3.4-0.5,5.2c-0.1,1.7-0.2,3.4-0.3,5.1c0,0.2,0,0.3,0,0.5
			c0,0-0.1,0-0.1,0c0-0.2-0.1-0.4,0-0.6c0.1-2.2,0.2-4.4,0.4-6.6c0.1-1.6,0.3-3.1,0.5-4.7c0.1-0.6,0.2-1.2,0.3-1.9
			C123.9,107,124.1,106.9,124.1,106.8C124.1,106.8,124.1,106.8,124.1,106.8z"/>
		<path d="M115,124.6c-0.1-0.6-0.2-1.3-0.2-1.9c0-1.6,0.1-3.2,0.2-4.7c0-1.1,0-2.2,0.1-3.3c0.1-1.7,0.4-3.4,0.6-5.1
			c0-0.2,0.1-0.3,0.1-0.5c-0.7,5.1-0.8,10.3-0.6,15.5C115,124.6,115,124.6,115,124.6z"/>
		<path d="M106.1,134.8c0-0.1-0.1-0.3-0.1-0.4c-0.1-1.7-0.2-3.4-0.2-5.1c-0.1-2.2-0.1-4.4-0.1-6.6c0-0.6,0-1.2,0.1-1.8
			C105.9,125.6,106,130.2,106.1,134.8C106.1,134.8,106.1,134.8,106.1,134.8z"/>
		<path d="M112.6,136.1c-0.3,0.5-0.6,0.9-0.7,1.5c0,0.1-0.2,0.2-0.4,0.4c0-0.2-0.1-0.3-0.1-0.4c0.4-1.2,0.3-2.5,0.3-3.8
			c0-1.2,0-2.3,0.1-3.5c0.1,2,0.2,4,0.3,5.9C112.4,136.2,112.5,136.1,112.6,136.1L112.6,136.1z"/>
		<path d="M124.1,106.8C124.1,106.8,124.1,106.8,124.1,106.8c0.1-0.5,0.3-1,0.4-1.4c0.1-0.2,0.1-0.4,0.2-0.7
			c-0.8,3.8-0.7,7.6-1.1,11.4c0-0.4,0-0.9,0-1.3c0.1-1.6,0.2-3.1,0.3-4.7c0.1-1,0.2-1.9,0.3-2.9C124.2,107.2,124.1,107,124.1,106.8z
			"/>
		<path d="M110.5,101.8c0.8-0.8,1.5-1.6,2.3-2.2c0.5-0.4,1.1-0.8,1.7-1c0.4-0.1,0.8,0,1.3-0.1c0,0,0,0.1,0,0.1
			c-0.2,0.1-0.5,0.2-0.7,0.3c-1.2,0.1-2,0.9-2.8,1.6C111.7,101,111.1,101.5,110.5,101.8C110.5,101.9,110.5,101.9,110.5,101.8z"/>
		<path d="M119.5,122.5c0.1-4.1,0.5-8.2,1.1-12.3C120.3,114.3,119.9,118.4,119.5,122.5z"/>
		<path d="M122.2,111.7c-0.2,3.9-0.5,7.8-0.7,11.6c0,0-0.1,0-0.1,0C121.5,119.4,121.6,115.6,122.2,111.7z"/>
		<path d="M97.9,119.9c0,0.3,0.1,0.6,0.1,0.9c0,2.3,0,4.6-0.1,7c0,0.6,0,1.1,0,1.7c0,0.1,0,0.3,0,0.4c-0.1,0-0.1,0-0.2,0
			c0-1.2,0-2.3,0-3.5c0-0.9,0-1.8,0-2.7C97.8,122.3,97.9,121.1,97.9,119.9L97.9,119.9z"/>
		<path d="M125.3,105.4c-0.2,3-0.4,6.1-0.5,9.1c-0.1,0-0.1,0-0.2,0C124.8,111.5,124.8,108.4,125.3,105.4z"/>
		<path d="M115.8,137.6c-0.6-3-0.8-6-0.7-8.9C115.3,131.6,115.6,134.6,115.8,137.6z"/>
		<path d="M111.3,110.2c-0.4,3.9-0.2,7.8-0.2,11.7C111,118,110.8,114.1,111.3,110.2z"/>
		<path d="M112.6,136.1c0-0.2,0.1-0.5,0.1-0.7c0-1.2,0-2.4,0-3.6c0-0.4,0.1-0.8,0.2-1.2c0,1.3,0.1,2.5,0,3.8c0,1.3,0.1,2.5,0,3.8
			c-0.1,0-0.1,0-0.2,0C112.7,137.5,112.7,136.8,112.6,136.1C112.6,136.1,112.6,136.1,112.6,136.1z"/>
		<path d="M122.8,102.5c-0.5,0.7-0.6,0.7-1.3,0.6c-0.6-0.1-0.7-0.3-0.9-1c-0.1-0.3-0.2-0.6-0.3-0.9c0-0.1,0-0.3,0-0.4
			c0.1,0,0.3,0,0.4,0.1c0.2,0.3,0.3,0.5,0.4,0.8C121.5,102.6,122,102.8,122.8,102.5z"/>
		<path d="M113.8,130.1c0.1,2.3,0.2,4.7,0.3,7c0,0,0,0-0.1,0c-0.1-0.1-0.1-0.2-0.2-0.3c-0.1-1-0.2-1.9-0.2-2.9c0-1.2,0-2.4,0-3.6
			C113.7,130.2,113.7,130.2,113.8,130.1C113.8,130.1,113.8,130.1,113.8,130.1z"/>
		<path d="M93.3,129.3c-0.1-1.8-0.1-3.6-0.2-5.3c0.1,0,0.1,0,0.2,0c0,0.3,0.1,0.6,0.1,0.8c0.1,1.3,0.2,2.7,0.3,4
			C93.8,129.2,93.8,129.2,93.3,129.3z"/>
		<path d="M147.2,59.9c0.1,0.5,0.2,1.1,0.2,1.6c0.1,0.9,0.1,1.7,0.1,2.6c0,0.2-0.1,0.4-0.1,0.7c-0.1,0-0.1,0-0.2,0
			c0-0.5-0.1-0.9-0.1-1.4c0-1,0-2.1,0-3.1C147.1,60.1,147.2,60,147.2,59.9L147.2,59.9z"/>
		<path d="M110.4,111.5c0,0.1-0.1,0.2-0.1,0.3c-0.1,2.4-0.2,4.8-0.3,7.3c0,0.3,0,0.6,0,0.9c0,0-0.1,0-0.1,0c0-0.6-0.1-1.1-0.1-1.7
			c0.1-2.1,0.2-4.2,0.3-6.3C110.1,111.8,110.3,111.6,110.4,111.5L110.4,111.5z"/>
		<path d="M126.1,105.9c-0.2,2.3-0.4,4.6-0.6,6.9C125.3,112.3,125.7,107.1,126.1,105.9z"/>
		<path d="M95.3,122.3c0,2.3,0.1,4.5,0.1,6.7C95.1,128.8,95.1,123.3,95.3,122.3z"/>
		<path d="M149.5,56.7c0.1,0.1,0.2,0.2,0.2,0.2c0.1,1.5,0.1,2.9,0.2,4.4c0,0.1-0.1,0.2-0.2,0.2c0,0-0.1,0-0.1,0
			C149.5,59.9,149.5,58.4,149.5,56.7z"/>
		<path d="M123,97.9c-0.1,0.7-0.1,1.4-0.2,2.1c0,0.4-0.1,0.8,0,1.2c0,0.3-0.1,0.4-0.4,0.5c0-0.3,0-0.6,0-0.9
			c0.1-0.9,0.3-1.8,0.5-2.8C122.9,98,123,98,123,97.9L123,97.9z"/>
		<path d="M113.2,100.8c-0.1,1.3-0.2,2.6-0.4,3.8c0,0.1-0.1,0.2-0.2,0.3c0-0.1-0.2-0.2-0.1-0.2c0.2-1.2,0.4-2.5,0.5-3.7
			C113.1,100.9,113.2,100.9,113.2,100.8z"/>
		<path d="M148.6,58.1c0.4,1.7,0.4,3.9,0,4.2c0-0.5,0-0.9,0-1.3c0-0.8,0-1.7,0-2.5C148.5,58.3,148.5,58.2,148.6,58.1L148.6,58.1z"/>
		<path d="M152.2,53.7c0,1.4,0.4,2.7,0.3,4.1c-0.1,0-0.2,0-0.2,0c-0.1-1.4-0.1-2.7-0.2-4.1C152.1,53.7,152.2,53.7,152.2,53.7z"/>
		<path d="M117.8,132.1c0-1.2,0-2.5-0.1-3.7c0.1,0,0.1,0,0.2,0c0,0.5,0.1,1,0.1,1.4c0,0.6,0.1,1.2,0.1,1.7
			C118.1,131.9,118.2,132.1,117.8,132.1z"/>
		<path d="M115.9,119.7c-0.2-1.6-0.1-3.2,0.2-4.8C116.1,116.5,116,118.1,115.9,119.7z"/>
		<path d="M155.8,45.6c-0.2-0.5,0.3-4.8,0.5-5.2C156.1,42.1,155.9,43.8,155.8,45.6z"/>
		<path d="M146,66.9c0-1.2,0-2.5-0.1-3.7c0,0,0.1,0,0.1,0c0.1,1.2,0.2,2.5,0.1,3.7C146.1,66.9,146.1,66.9,146,66.9z"/>
		<path d="M138.6,71.7c0-1.4,0.1-2.7,0.6-4c-0.1,1.4-0.3,2.7-0.4,4.1C138.6,71.7,138.6,71.7,138.6,71.7z"/>
		<path d="M157.2,42.7c0,0.5,0,1,0,1.6c0,1.1-0.1,2.3-0.2,3.4c0-0.3,0-0.7,0-1c0-1.2,0.1-2.4,0.1-3.6
			C157.1,43,157.2,42.9,157.2,42.7L157.2,42.7z"/>
		<path d="M150.9,56.1c0.1,0.4,0.1,0.8,0.2,1.2c0,0.6,0.1,1.2,0.1,1.8c0,0.2-0.1,0.4-0.1,0.6c0,0-0.1,0-0.1,0
			C150.9,58.5,150.9,57.3,150.9,56.1L150.9,56.1z"/>
		<path d="M128.7,86.4c0-0.5,0-0.9,0.1-1.4c0.1-0.5,0.2-0.9,0.4-1.4c0.1-0.2,0.2-0.4,0.3-0.5c0,0,0.1,0,0.2,0c0,0,0,0.2,0,0.2
			c-0.5,0.3-0.4,0.9-0.6,1.4C128.9,85.2,128.8,85.8,128.7,86.4L128.7,86.4z"/>
		<path d="M105.6,119.3c0-1.4,0-2.8,0-4.2c0,0,0.1,0,0.1,0c0,1.4,0,2.8,0,4.2C105.7,119.3,105.6,119.3,105.6,119.3z"/>
		<path d="M122.1,111.4c0.3-1.3,0.6-2.6,0.9-3.9c0,0,0.1,0,0.1,0c-0.3,1.3-0.5,2.6-0.8,3.9C122.2,111.5,122.1,111.5,122.1,111.4z"/>
		<path d="M107.8,115.2c-0.1-0.1-0.2-0.1-0.2-0.2c0-1.1,0-2.2,0.2-3.2C107.8,112.9,107.8,114.1,107.8,115.2
			C107.8,115.2,107.8,115.2,107.8,115.2z"/>
		<path d="M148.6,58.1c0-0.4-0.1-0.8-0.1-1.2c0-0.4,0-0.8,0-1.1c0,0,0.1,0,0.1,0C148.6,56.6,148.6,57.3,148.6,58.1
			C148.6,58.1,148.6,58.1,148.6,58.1z"/>
		<path d="M151.2,47.3c-0.1,0.2-0.1,0.2-0.1,0.3c0,0,0,0-0.1,0c0-0.3,0.1-0.6,0.1-0.9c0.1,0,0.1,0,0.2,0c0.1,0.3,0.1,0.7,0.2,1
			c0,0-0.1,0-0.1,0C151.3,47.6,151.2,47.5,151.2,47.3z"/>
		<path d="M121.4,106.7c-0.2,0.7-0.3,1.4-0.5,2C120.9,108.1,121,107.4,121.4,106.7C121.4,106.7,121.4,106.7,121.4,106.7z"/>
		<path d="M123.1,97.9c0-0.2-0.1-0.3-0.1-0.5c0.1-0.4,0.2-0.9,0.3-1.3c0,0,0.1,0,0.1,0C123.3,96.8,123.2,97.4,123.1,97.9
			C123,97.9,123.1,97.9,123.1,97.9z"/>
		<path d="M97.9,119.9c0-0.6,0.1-1.2,0.3-1.7c0,0,0.1,0,0.1,0C98.2,118.7,98.1,119.3,97.9,119.9C97.9,119.9,97.9,119.9,97.9,119.9z"
			/>
		<path d="M150.9,56.1c0-0.6,0-1.2-0.1-1.8c0.1,0,0.1,0,0.2,0C151,54.9,151,55.5,150.9,56.1C150.9,56.1,150.9,56.1,150.9,56.1z"/>
		<path d="M162.6,41.9c0-0.6,0-1.1,0-1.7c0.1,0,0.1,0,0.2,0C162.6,40.8,162.6,41.4,162.6,41.9C162.5,41.9,162.6,41.9,162.6,41.9z"/>
		<path d="M110.4,111.5c-0.1-0.1-0.2-0.2-0.2-0.2c0.1-0.5,0.1-1,0.3-1.5C110.4,110.4,110.4,110.9,110.4,111.5
			C110.4,111.5,110.4,111.5,110.4,111.5z"/>
		<path d="M157.3,41c0,0.6-0.1,1.2-0.1,1.8c0,0,0,0,0,0C157.3,42.1,157.3,41.6,157.3,41L157.3,41z"/>
		<path d="M161.8,37.5c0,0.6,0,1.2,0,1.8c0,0-0.1,0-0.1,0C161.6,38.7,161.7,38.1,161.8,37.5C161.7,37.5,161.7,37.5,161.8,37.5z"/>
		<path d="M148.5,50.4c0.1-0.2,0.1-0.4,0.2-0.5c0.1,0,0.1,0,0.2,0c0.1,0.3,0.1,0.6,0.2,0.9c0,0,0,0-0.1,0c-0.1-0.2-0.2-0.3-0.2-0.5
			C148.7,50.4,148.7,50.4,148.5,50.4C148.6,50.5,148.5,50.5,148.5,50.4z"/>
		<path d="M113.7,121.6c0-0.6,0-1.2,0-1.8c0,0,0.1,0,0.1,0c0,0.6,0,1.2,0,1.8C113.8,121.6,113.7,121.6,113.7,121.6z"/>
		<path d="M157.3,41c0-0.4-0.1-0.9,0.3-1.2C157.5,40.1,157.4,40.5,157.3,41C157.3,41,157.3,41,157.3,41z"/>
		<path d="M105.8,111.9c0,0.1,0,0.2,0,0.3c0,0.5,0,0.9-0.1,1.4c0,0-0.1,0-0.1,0c0-0.5,0-1.1,0-1.6
			C105.7,111.9,105.8,111.9,105.8,111.9z"/>
		<path d="M128.7,86.4c-0.1,0.5-0.2,1-0.3,1.5c0,0,0,0,0,0C128.4,87.4,128.3,86.8,128.7,86.4C128.7,86.4,128.7,86.4,128.7,86.4z"/>
		<path d="M158.1,46.3c0-0.5-0.1-0.9-0.1-1.4c0.1,0,0.1,0,0.2,0C158.2,45.3,158.1,45.8,158.1,46.3C158.1,46.3,158.1,46.3,158.1,46.3
			z"/>
		<path d="M147.2,59.9c-0.1-0.5-0.1-0.9-0.2-1.4c0.1,0,0.1,0,0.2,0C147.2,59,147.2,59.5,147.2,59.9
			C147.2,59.9,147.2,59.9,147.2,59.9z"/>
		<path class="st2" d="M162,46.9c0-0.9-0.4-1.8,0.5-2.6c0,0.6,0,1.1,0.1,1.6c0,0,0.1,0,0.1,0c0.2-1-0.4-2.2,0.8-3c0,0.5,0,0.9,0,1.5
			c0.1-0.1,0.2-0.2,0.2-0.3c0-0.5,0-1,0.1-1.4c0.1-0.5,0.4-0.9,0.6-1.3c0.1-0.2,0.3-0.5,0.6-0.8c0,1,0.2,1.8-0.4,2.6
			c-0.5,0.7-0.9,1.5-1.4,2.3c-0.3,0.5-0.7,1-1,1.5C162.1,46.9,162,46.9,162,46.9z"/>
		<path class="st2" d="M167.7,36.2c0,0.3,0,0.6,0.1,0.8c0.1,0,0.1,0,0.2,0c0-0.5,0-1.1,0.2-1.6c0.1-0.5,0.4-1,0.6-1.5
			c0.1,0.6,0.3,1.2,0,1.7c-0.6,1.2-1.2,2.3-1.7,3.4c-0.3,0.5-0.6,1-0.9,1.6c-0.2-1-0.3-1.8,0.4-2.6c0,0.2,0.1,0.4,0.1,0.6
			C166.6,37.8,167.1,37,167.7,36.2z"/>
		<path class="st2" d="M160.5,48.4c0-0.3,0.1-0.6,0.1-0.9c0-0.8,0.6-1.3,1-1.9c0.4,1.3,0.1,2.3-1,3.4
			C160.6,48.7,160.5,48.5,160.5,48.4L160.5,48.4z"/>
		<path class="st2" d="M160.5,48.4c-0.1,0.1-0.2,0.2-0.1,0.3c0.2,0.6-0.2,0.9-0.6,1.3c0.1-0.8-0.4-1.8,0.6-2.4
			C160.4,47.8,160.4,48.1,160.5,48.4C160.5,48.4,160.5,48.4,160.5,48.4z"/>
		<path class="st2" d="M165.6,39.5c0,0.9,0.4,1.8-0.5,2.5C165.1,41.1,164.8,40.3,165.6,39.5z"/>
		<path class="st2" d="M91.4,127c0-0.7,0.6-1.2,0.7-1.8c0,0,0.1,0,0.1,0c0,1,0.1,2.1,0.1,3.2c-0.6,0.1-0.9-0.3-1.2-0.6
			C91,127.7,91.3,127.2,91.4,127z"/>
		<path class="st2" d="M119.2,96.5c-0.4,0.2-0.6,0.5-1.1,0.4c-0.6-0.1-1.3,0.1-1.9,0.2c-0.4,0-0.8,0.1-1.2,0.2
			C116.3,96.5,117.7,96,119.2,96.5z"/>
		<path class="st2" d="M166,28.9c-0.3-0.2-0.6-0.4-0.9-0.6c0.3,0,0.5-0.1,0.7-0.1C165.8,28.4,165.9,28.6,166,28.9z"/>
	</g>
	<g>
		<path class="st2" d="M75.5,83.2c-0.7,1.1-1.3,2.7-0.2,3.9c0.4,0.5,0.8,0.9,1.3,1.2c-0.3,0.7-0.4,1.5-0.4,2.4
			c0,2.9-0.4,6.8,0.6,9.8c-0.2,0.6-0.4,1.3-0.4,2.1c-0.2,3.9-0.9,8.8-0.2,12.9c-1.3,4.4-0.3,9,0.3,13.4c0,0.1,0,0.2,0,0.3
			c-1,2,0.5,4.7,1.3,6.5c0.2,0.5,0.8,0.7,1.2,1.1c0.7,0.9,1.5,1.8,2.6,2.4c0.3,0.3,0.6,0.5,1,0.7c1.2,0.8,2.4,1.7,3.7,2.4
			c0.3,0.2,0.6,0.3,0.9,0.5c3.2,2.1,7.1,3.3,10.8,4c1,0.4,2,0.6,3,0.8c2.9,1.2,6,1.9,8.2,2.2c7.6,1,17.8,1.6,24.6-2.5
			c0.1-0.1,0.2-0.2,0.4-0.2c8-0.9,18-5.7,22.1-11.9c2.9-4.4,1.9-10,1.8-15c0-5.5,0.2-11.1,0.5-16.6c0-0.6,0-1.1-0.1-1.6
			c0.9-0.3,1.9-0.5,2.8-0.9c1.4-0.5,2.8-1.2,3.7-2.4c0.7-1,1.3-2.1,1.4-3.4c0-0.5,0.2-0.9,0.1-1.4c-0.1-1.2-0.2-2.5-0.8-3.5
			c-0.5-0.9-1.3-1.8-2.4-2.2c-0.4-0.1-0.7-0.4-1-0.6l-0.1,0.1c0.8,0.6,1.6,1.2,2.3,1.7c0,0,0.1,0,0.1,0.1c0.5,1,1.1,1.9,0.8,3.1
			c-0.2,0.6-0.6,1.1-1.1,1.6c-1.6,1.4-3.6,1.6-5.5,1.9c-0.3,0.1-0.6,0.1-1,0.1c0-0.8,0.1-1.5,0.1-2.3c0,0,0,0,0-0.1
			c0.1-1.1,0.1-2.1,0.2-3.2c0.1-1,0-1.8-0.3-2.5c0.4-0.4,0.7-0.9,1.1-1.3c0.2-0.2,0.2-0.5,0.2-0.8c-0.1-0.4-0.2-0.9-0.3-1.3
			c-0.1-0.5-0.3-0.9-0.5-1.4c0,0,0-0.1-0.1-0.1c-0.9-0.7-1.5-1.8-2.6-2.3c-0.5-0.2-1-0.6-1.4-0.9c-0.9-0.7-2-0.8-3-1.2
			c-1-0.4-2.1-0.9-3.1-1.2c-2.1-0.7-4.2-1.3-6.3-1.9c-1.3-0.4-2.6-0.7-3.9-1c-1.2-0.3-2.4-0.5-3.6-0.7c-1.1-0.2-2.2-0.4-3.2-0.5
			c-0.6-0.1-1.2-0.1-1.8-0.2c-0.4-0.2-0.8-0.3-1.3-0.5c-5.8-2.2-12.3-1.9-18.5-2.7c0-0.7,0-1.4,0-2.1c-0.1,0.5-0.2,1.1-0.3,1.7
			c0,0.1,0,0.3-0.1,0.4c-1-0.1-2-0.3-3.1-0.5c-0.7-0.3-1.4-0.5-2.1-0.5c-4.8-0.6-9.7-0.7-14.5-0.4c-4.2,0.3-9.3,0.5-12.5,3.6
			c-3.5,3.2-3.1,7.4-1,11.1C75.5,83.1,75.5,83.1,75.5,83.2z M155.9,82c-0.2-0.1-0.3-0.1-0.4-0.2c-1.1-0.6-2.3-1.3-3.4-1.8
			c-0.9-0.5-1.9-0.9-2.9-1.4c-0.2-0.1-0.4-0.2-0.6-0.2c-0.9-0.2-1.8-0.4-2.7-0.6c-0.6-0.1-1.3-0.4-1.9-0.5c0,0,0-0.1,0-0.1
			c0.2,0,0.5,0,0.7,0.1c0.7,0.1,1.4,0.4,2.1,0.4c1.8,0,3.3,1.1,4.9,1.7c0.6,0.2,1.1,0.6,1.7,1c0.8,0.5,1.6,1,2.4,1.5
			C155.9,81.9,155.9,81.9,155.9,82z M164.3,95.8c0,0.1-0.1,0.1-0.2,0.2c-1,0.9-2.2,1.6-3.6,1.8c-1,0.2-1.9,0.3-2.9,0.5
			c0-0.1,0-0.2,0-0.3c2.3-0.4,4.6-1,6.6-2.3C164.3,95.8,164.3,95.8,164.3,95.8z M163,98.2c-1.8,0.5-3.6,1-5.4,1.4c0-0.1,0-0.2,0-0.3
			c1.2-0.3,2.3-0.7,3.5-1.1c0.8-0.3,1.6-0.7,2.4-1.1c0.2-0.1,0.4-0.1,0.6-0.2c0.2-0.1,0.4-0.2,0.6-0.4c0.2,0.3,0.1,0.4-1,1.3
			c0.1,0.1,0.1,0.2,0.2,0.2c0.3-0.2,0.5-0.3,0.8-0.4c0.1-0.1,0.2-0.2,0.3-0.3c0.1-0.1,0.2-0.1,0.3-0.2c0,0.1,0,0.3-0.1,0.4
			c-0.2,0.3-0.3,0.6-0.5,0.9c-0.7,0.9-1.7,1.3-2.8,1.4c-0.3,0-0.7,0.1-1,0.2c-0.8,0.3-1.7,0.6-2.6,0.8c-0.1-0.1-0.1-0.3-0.2-0.4
			C159.8,100.1,161.4,99.3,163,98.2z M156.8,86.5c0.2-0.4,0.2-0.8,0.1-1.3c-0.1-0.5-0.1-1,0.3-1.4c0.3,0.4,0.7,0.7,0.9,1.2
			c0.1,0.3,0.2,0.7,0.1,1c-0.2,0.5-0.4,0.9-0.8,1.3C157.1,87,157,86.8,156.8,86.5z M152.8,82.7c-1.7-0.9-3.4-1.7-5.2-2.5
			c-1.2-0.5-2.4-1-3.6-1.4c0-0.1,0-0.1,0.1-0.2c0.3,0.1,0.7,0.1,1,0.2c0.4,0.1,0.8,0.3,1.2,0.3c0.8,0.2,1.6,0.1,2.3,0.4
			c1.7,0.6,3.4,1.4,5.1,2.2c0.9,0.5,1.8,1.2,2.6,1.9c0.6,0.5,0.3,1.4-0.4,1.6c-0.1-0.2-0.1-0.3-0.3-0.4
			C154.7,84.1,153.8,83.3,152.8,82.7z M152.7,84.3c-1-0.6-2.1-1.3-3.2-1.8c-1.3-0.6-2.7-1.1-4.1-1.7c-0.5-0.2-0.9-0.4-1.4-0.6
			c-0.1,0-0.1-0.1-0.1-0.2c0.1,0,0.2-0.1,0.2-0.1c0.1,0,0.3,0.1,0.4,0.1c0.4,0.2,0.9,0.4,1.3,0.5c1.4,0.4,2.8,0.5,4.1,1.1
			c1.4,0.6,2.7,1.2,3.7,2.4c0.3,0.3,0.3,0.6,0.1,0.9c-0.1,0-0.3-0.1-0.4-0.1C153.2,84.7,153,84.5,152.7,84.3z M141.5,80.7
			c0.7-0.1,1.4,0.3,2.1,0.4c0.9,0.2,1.7,0.3,2.5,0.6c1.3,0.4,2.7,0.6,3.9,1.4c0.6,0.3,1,0.8,1.3,1.3c0.1,0.2,0.3,0.3,0.5,0.5
			c-0.4,0-0.9,0.1-1.3,0.2c-0.2-0.8-0.8-1.1-1.4-1.5c-0.5-0.3-1.1-0.6-1.6-0.8c-1.4-0.5-2.8-1-4.1-1.4c-0.4-0.1-0.8-0.2-1.2-0.3
			C142,80.9,141.7,80.8,141.5,80.7z M136.6,77.5c1.3,0.3,2.6,0.6,3.9,0.9c0.3,0.1,0.6,0.2,0.8,0.3c0.3,0.1,0.5,0.3,0.8,0.4
			c-1.4-0.2-2.8-0.5-4.2-0.7C137.5,78.1,137.1,77.8,136.6,77.5z M133.5,75.6c0.5,0.1,0.9,0.2,1.4,0.4c2.7,0.6,5.6,1.1,8.1,2.6
			c-0.1,0-4.9-1.3-8.3-2.2C134.3,76,133.9,75.8,133.5,75.6z M75.7,83.1c0.5,0.9,1.1,1.7,1.7,2.5c-0.2-0.2-0.5-0.3-0.7-0.5
			c0.1,0.3,0.2,0.6,0.4,0.8c0.3,0.3,0.2,0.5,0,0.8c-0.2-0.1-0.4-0.2-0.5-0.3c-0.3-0.4-0.5-0.8-0.7-1.3c-0.1-0.2-0.1-0.5-0.1-0.7
			C75.7,84,75.7,83.6,75.7,83.1z"/>
		<path d="M167.2,93.6c0,0.2-0.1,0.4-0.1,0.5c-0.1,1.7-0.6,3.2-1.6,4.5c-1.6,2-3.8,3-6.2,3.5c-0.5,0.1-0.6,0.2-0.5,0.7
			c0,0.1,0.1,0.2,0.1,0.3c0,1.4,0,2.9,0,4.3c-0.1,4.7-0.2,9.4-0.3,14.2c0,3.3-0.1,6.6-0.5,9.9c0,0.5-0.3,0.9-0.5,1.4
			c0-2.5,0-4.9,0-7.5c-1,0.6-1.9,1.2-2.9,1.7c0,0,0,0.1,0.1,0.1c0.4-0.1,0.8-0.3,1.2-0.4c0,0,0.1,0.1,0.1,0.1
			c-0.1,0.2-0.2,0.4-0.3,0.5c-0.6,0.5-1.3,1.1-2,1.6c-1.4,1-3,1.6-4.6,2.2c0,0,0,0-0.1,0l0,0c0-0.1,0.1-0.2,0.2-0.3
			c-0.2,0-0.4,0.1-0.5,0.1c-0.4,0-0.9,0-1.3,0c-0.2,0-0.3-0.1-0.5-0.1c-0.8,0.2-1.6,0.4-2.3,0.8c-2,0.9-4.1,1.6-6.2,2
			c-2.5,0.5-5,0.9-7.6,1.2c-1.6,0.2-3.3,0.3-5,0.4c-0.2,0-0.3,0-0.5,0c0,0,0-0.1,0-0.1c4.2-0.6,8.3-1.2,12.5-1.7c0,0,0-0.1,0-0.1
			c-0.6-0.2-1.5,0.1-1.8-0.9c-1.9,0.3-3.7,0.7-5.6,1c1-0.4,2.1-0.4,3.2-1c-0.3,0-0.4,0-0.5,0c-0.1,0-0.2-0.1-0.3-0.1
			c0,0,0-0.1,0-0.1c2.1,0.2,4.1-0.5,6.1-1c-0.1,0.1-0.2,0.2-0.3,0.4c1.1-0.2,2-0.4,2.9-0.6c0.8-0.2,1.6-0.4,2.4-0.6
			c0.1,0,0.3,0.1,0.4,0.2c-0.1,0.1-0.2,0.3-0.3,0.3c-0.2,0.1-0.5,0.1-0.8,0.2c-1.6,0.4-3.1,0.8-4.7,1.1c-0.7,0.2-1.5,0.3-2.3,0.4
			c0.1,0.6,0.6,0.6,0.9,0.5c1.3-0.1,2.6-0.3,3.9-0.6c1.2-0.3,2.4-0.7,3.6-1.1c0.1,0,0.1,0,0.2,0c0.3,0,0.7,0,1-0.1
			c0.6-0.2,1.2-0.4,1.7-0.6c1.4-0.7,2.9-1.4,4.3-2.1c0.6-0.3,1.1-0.7,1.7-1.1c0.6-0.3,1.2-0.7,1.8-1c0.6-0.3,1.3-0.7,1.9-1
			c0.2-0.1,0.3-0.3,0.3-0.5c0.1-0.7,0.1-1.4,0.1-2.2c0-0.7,0-1.4-0.1-2.1c0-0.6,0-1.2,0-1.8c0-1.1,0-2.1,0-3.2c0-0.8,0-1.6,0-2.5
			c-0.1,0-0.2,0-0.2,0c-0.2,0.1-0.5,0.1-0.6-0.2c0-0.1,0.2-0.3,0.3-0.5c0.1-0.2,0.5-0.3,0.5-0.4c0-0.8,0-1.7,0-2.5c-0.8,0-1,0.3-1,1
			c0,1.3,0,2.5,0,3.8c0,0.2,0.1,0.4,0.1,0.7c0.2-0.1,0.4-0.1,0.6-0.2c0,0.1,0.1,0.3,0.2,0.5c-0.3,0.2-0.6,0.3-0.8,0.5
			c-0.8,1-1.9,1.6-3.1,2c-1.4,0.5-2.7,1.1-4.1,1.4c-0.5,0.1-0.9,0.3-1.4,0.4c0.6-0.3,1.3-0.5,2-0.8c0.1-0.1,0.2-0.3,0.4-0.5
			c-1.2,0.3-2.2,0.5-3.3,0.8c0-0.1,0-0.1,0-0.2c0.1,0,0.1-0.1,0.2-0.1c0.9-0.2,1.8-0.5,2.8-0.7c0.1,0,0.2,0,0.2-0.1
			c0.1-0.4,0.2-0.8,0.3-1.3c-2.2,0.8-4.2,1.4-6.4,1.6c0.2-0.1,0.4-0.2,0.7-0.2c1.8-0.4,3.7-0.8,5.4-1.6c0.4-0.2,0.4-0.4,0.4-0.7
			c-1.1,0.2-2.2,0.4-3.3,0.6c0,0,0-0.1,0-0.1c0.1-0.1,0.2-0.1,0.4-0.2c-1.4,0.2-2.9,0.6-4.2,0.6c0.1-0.2,0.1-0.3,0.3-0.4
			c0.2-0.2,0.3-0.4,0.5-0.5c0.6-0.1,1.3-0.1,1.9-0.2c0.1,0,0.2,0.1,0.3,0.1c0.2,0,0.4,0.1,0.5,0.1c1.1-0.3,2.2-0.7,3.2-1
			c0.7-0.2,0.7-0.4,0.6-1.2c-0.9,0.2-1.7,0.5-2.6,0.7l0,0c0.1-0.1,0.2-0.2,0.3-0.2c0.3-0.1,0.6-0.2,0.9-0.3c0.5-0.2,0.9-0.3,1.4-0.5
			c0,0,0-0.1,0-0.1c-0.4,0-0.9,0.1-1.3,0.1c0-0.1,0-0.1,0-0.2c1.6-0.4,3.3-0.2,4.7-1.1c-0.1,0.2-0.3,0.3-0.4,0.4
			c-0.6,0.3-1.3,0.6-1.9,0.8c-0.6,0.3-0.7,0.4-0.4,1.1c0,0,0.1,0,0.1,0c1.2-0.4,2.4-0.9,3.7-1.3c0.2-0.1,0.3-0.3,0.3-0.4
			c0.1,0,0.3,0.2,0.3,0.1c0.3-0.2,0.6-0.4,0.7-0.7c0.1-0.4,0-0.9,0-1.3c0-0.1-0.2-0.2-0.3-0.4c0.1-0.2,0.2-0.4,0.4-0.6
			c-0.9,0.1-1.2,0.4-1,1c0.2-0.1,0.5-0.3,0.7-0.4c0,0.1,0,0.2-0.1,0.2c-0.7,0.2-0.7,0.8-0.7,1.3c0,0,0,0-0.1,0.1
			c-0.1-0.3-0.1-0.5-0.2-0.8c-0.8,0.3-1.6,0.5-2.4,0.8c0,0,0-0.1,0-0.1c0.7-0.2,1.4-0.5,2.1-0.7c0.4-0.1,0.4-0.3,0.3-0.7
			c-1.3,0.4-2.6,0.9-3.9,1.3c0.1-0.2,0.2-0.3,0.3-0.4c1.1-0.4,2.2-0.7,3.3-1.1c0.3-0.1,0.5-0.7,0.2-0.9c-0.1-0.1-0.5-0.1-0.7,0
			c-0.7,0.2-1.3,0.5-1.9,0.7c-0.6,0.2-1.3,0.3-1.9,0.5c-2.6,0.6-5.3,1.1-8,1.1c-0.6,0-1.2,0.2-1.9,0.3c0.3,0.2,0.4,0.2,0.5,0.3
			c0,0,0,0.1-0.1,0.1c-0.9,0.1-1.8,0.3-2.8,0.4c0.1-0.6,0.6-0.4,1-0.8c-1.6,0-3.2,0-4.7,0c0.5-0.1,1-0.1,1.5-0.1
			c3.1,0,6.3-0.3,9.3-1.1c1.8-0.4,3.5-1.1,5.3-1.6c0.3-0.1,0.6-0.2,0.6-0.6c0.2,0,0.4,0.2,0.5,0.1c0.9-0.3,1.7-0.6,2.5-1
			c0.5-0.2,0.5-0.2,0.5-0.8c-0.2,0.1-0.4,0.2-0.6,0.3c-0.8,0.3-1.7,0.6-2.5,0.9c-0.3,0.1-0.5,0.2-0.4,0.5c-0.1-0.2-0.2-0.3-0.5-0.3
			c-0.8,0.2-1.7,0.4-2.5,0.5c-1.9,0.4-3.8,0.7-5.7,1.1c-2.6,0.5-5.2,0.7-7.8,0.7c-0.5,0-0.9-0.2-1.4-0.3c0.2-0.2,0.4-0.3,0.6-0.4
			c1.5-0.1,2.9-0.1,4.4-0.2c1.9-0.2,3.7-0.4,5.5-0.7c2.1-0.4,4.2-0.8,6.3-1.3c1-0.2,1-0.2,1-1.2c0-0.1,0-0.1,0-0.3
			c-0.9,0.2-1.8,0.4-2.6,0.7c-1.9,0.5-3.8,1.1-5.6,1.6c-0.3,0.1-0.7,0.3-1-0.1l0,0c0.6-0.5,1.4-0.6,2.1-0.6c0.2,0,0.4,0.1,0.6,0
			c1-0.3,2.1-0.5,3.1-1c0.9-0.5,1.9-0.5,2.8-1c0.6-0.3,0.7-0.3,0.5-0.9c-2.1,0.3-4.2,0.6-6.3,0.9c0,0,0-0.1,0-0.1
			c0.1-0.1,0.3-0.1,0.4-0.2c-2,0.3-4,0.8-5.9,0.8c2.1-0.5,4.4-0.9,6.7-1.4c1.6-0.3,3.2-0.7,4.8-1.1c0.4-0.1,0.5-0.4,0.4-0.8
			c-2.4,0.4-4.9,0.8-7.3,1.2c0.2,0.6,0.1,0.7-0.5,0.8c-1,0.1-2.1,0.2-3.1,0.3c0-0.2,0.1-0.3,0.1-0.4c-0.7,0-1.3,0-1.8,0
			c0,0.2,0,0.4-0.1,0.5c-0.1,0.1-0.2,0.1-0.4,0.1c-0.5,0-0.9,0-1.5,0c0.2-0.2,0.3-0.5,0.5-0.7c0.3,0,0.7,0,1.1-0.1
			c1.8-0.2,3.6-0.4,5.4-0.7c1.8-0.3,3.6-0.7,5.5-1.2c0.8-0.2,1.5-0.6,2.3-0.9c0-0.1,0-0.1,0-0.2c-0.7,0.1-1.3,0.2-2,0.3
			c0.2-0.1,0.4-0.2,0.7-0.2c0.2-0.1,0.5-0.1,0.7-0.1c0.7-0.1,0.7-0.3,0.5-1c-0.3,0.2-0.7,0.4-1,0.5c-1.2,0.6-2.4,0.9-3.7,0.8
			c-0.2,0-0.3-0.1-0.6-0.2c0.5-0.2,0.8-0.3,1.1-0.4c1.1-0.3,2.2-0.7,3.3-1c0.1,0,0.2,0.1,0.3,0.1c0.2,0,0.4,0,0.6-0.1
			c0.1-0.1,0.1-0.3,0.1-0.5c-0.2,0-0.3-0.1-0.5-0.1c-0.4,0.1-0.8,0.2-1.2,0.3c-0.6,0.1-1.2,0.2-1.8,0.3c0-0.1,0-0.2-0.1-0.2
			c1-0.3,1.9-0.6,3-1c-0.4,0-0.6-0.1-0.9-0.1c-1.4,0.2-2.8,0.4-4.3,0.6c-0.8,0.1-1.5,0.2-2.2-0.1c0.3-0.1,0.6-0.3,1-0.4
			c0.5-0.1,1.1-0.1,1.5-0.2c1.4-0.4,2.7-0.8,4.1-1.2c0.4-0.1,0.7-0.2,1.1-0.3c0.2-0.1,0.5-0.2,0.3-0.5c-2.2,0.4-4.3,0.8-6.4,1.1
			c0-0.1,0-0.1,0-0.2c0.4-0.2,0.8-0.5,1.2-0.6c1.6-0.4,3.3-0.8,5-1.2c0.3-0.1,0.4-0.2,0.4-0.5c0-0.2,0-0.4-0.1-0.7
			c-2.1,0.6-4,1.3-6.1,1.5c1.6-0.4,3.3-0.8,4.9-1.3c-1.5,0.1-2.9,0.4-4.3,0.6c-0.9,0.1-1.8,0.1-2.8,0.1c-0.1,0-0.3-0.1-0.4-0.2
			c0-0.1,0-0.1,0-0.2c0.4,0,0.7-0.1,1.1-0.1c0.3,0,0.7,0.1,1,0c1.3-0.3,2.6-0.6,3.9-0.9c2.1-0.6,4.1-1.2,6-2.3
			c0.3-0.2,0.7-0.4,1.1-0.5c0.3-0.2,0.6-0.3,0.9-0.5c0.1-0.1,0.2-0.1,0.2-0.2c0.3,0.3,0.1,0.7-0.1,0.9c-0.6,0.5-1.1,1.1-1.8,1.5
			c-0.9,0.5-1.9,0.9-2.9,1.3c-0.3,0.1-0.5,0.3-0.4,0.6c0,0.2,0,0.4,0.1,0.6c0.1,0,0.1,0,0.2,0c0.7-0.1,1.4-0.6,2.2-0.5
			c0.1,0,0.2-0.1,0.3-0.2c0.1-0.1,0.2-0.2,0.3-0.3c0,0,0.1,0.1,0.1,0.1c-0.1,0.1-0.2,0.3-0.3,0.4c-0.7,0.6-1.6,1-2.5,1.2
			c-0.3,0.1-0.5,0.1-0.2,0.6c0.5-0.1,1-0.2,1.4-0.3c0.9-0.3,1.8-0.7,2.6-1.2c0.6-0.4,1.2-0.8,2-0.8c0.1,0,0.1-0.1,0.2-0.1
			c-0.1-0.3-0.3-0.5-0.3-0.8c0-1.2,0-2.4,0.1-3.5c0-0.5,0-0.9-0.3-1.4c-0.3,0.3-0.6,0.6-1,0.8c-1.2,0.7-2.3,1.4-3.6,1.9
			c-2,0.8-4,1.5-6.1,2.1c-1.6,0.5-3.2,0.7-4.8,1c-1,0.2-1.9,0.4-2.9,0.6l0,0c-0.2,0-0.3,0-0.5,0c-1.7,0.2-3.3,0.4-5,0.5
			c-1.6,0.2-3.1,0.4-4.7,0.5c-2.8,0.1-5.6,0.2-8.4,0.3c-2.4,0-4.8,0.1-7.2,0c-2.4-0.1-4.8-0.3-7.2-0.5c-1.6-0.1-3.1-0.4-4.6-0.6
			c-2.7-0.4-5.4-0.9-8.1-1.4c-1.9-0.4-3.8-0.8-5.8-1.2c0,0-0.1,0-0.2,0.1c4.6,1.8,9.3,3.1,14.2,3.3c-0.2,0-0.3,0.1-0.6,0.2
			c1.3,0.3,2.6,0.7,3.8,1c0,0.1,0,0.1,0,0.2c-0.4-0.1-0.9-0.2-1.3-0.4c-0.1-0.1-0.2,0-0.3,0c-0.6-0.1-1.3-0.2-1.9-0.2
			c-0.7-0.1-1.4-0.3-2.1-0.3c-0.6,0-1.3,0.2-1.9,0.1c-1.7-0.2-3.5-0.4-5.2-0.7c-1.8-0.3-3.4-0.9-5.1-1.5c-0.8-0.3-1.6-0.4-2.4-0.6
			c-0.1,0-0.1,0-0.3,0.1c0.4,0.2,0.6,0.4,0.9,0.5c-0.4,0-0.7-0.1-1-0.2C84.1,95,84,94.8,84,94.7c-0.1-0.1-0.2-0.1-0.3-0.1
			c-1.3-0.5-2.5-0.9-3.8-1.4c-0.9-0.4-1.9-0.7-2.3-1.7c0-0.1-0.2-0.1-0.4-0.1c0.2,0.4,0.4,0.7,0.5,1.1c-0.1,0-0.1,0.1-0.2,0.1
			c-0.4-0.5-0.9-1-1.3-1.5c0,0.2,0,0.3,0,0.4c0,0.9,0,1.8,0.1,2.7c0,0.1,0.2,0.3,0.4,0.4c1.3,0.4,2.6,0.7,3.9,1.1
			c0.4,0.1,0.6,0.3,0.7,0.7c0.1,0.5,0.2,1.1,0.2,1.6c0,0.8-0.1,1.6-0.2,2.5c0,0.3,0,0.5,0.2,0.6c0.3,0.1,0.5,0.2,0.8,0.4
			c1.2,0.6,2.4,1.3,3.6,1.8c1,0.4,2,0.7,3,1c1.5,0.4,3,0.9,4.4,1.3c0.5,0.1,1,0.3,1.5,0.4c-0.2,0.1-0.3,0.1-0.5,0
			c-0.5-0.1-0.9-0.2-1.4-0.3c-0.9-0.2-1.7-0.3-2.6-0.5c-1.1-0.3-2.1-0.7-3.2-1c-1.9-0.6-3.7-1.5-5.5-2.5c-0.2-0.1-0.5-0.1-0.7-0.2
			c0.1,0.2,0.2,0.5,0.3,0.7c0,0,0,0.1,0,0.1c-0.6,0.8-1.6,0.3-2.3,0.7c0,0-0.1,0-0.2,0c-0.8-0.2-1.7-0.3-2.5-0.5
			c0,0-0.1,0.1-0.1,0.1c0.2,0.2,0.4,0.5,0.7,0.7c0.3,0.2,0.7,0.4,1.1,0.6c1.1,0.6,2.2,1.2,3.3,1.7c0.2,0.1,0.6,0.5,0.9,0
			c0,0,0.1,0,0.1,0c0.6,0.2,1.3,0.3,1.9,0.5c0,0,0,0.1,0,0.1c-0.6,0.1-1.3,0.3-1.9,0.2c-0.6-0.1-1.1-0.4-1.7-0.6
			c-0.7-0.2-1.3-0.8-2.1-0.7c0.1,0.2,0.2,0.4,0.4,0.5c-0.4-0.3-0.7-0.7-1.1-1c-0.4-0.3-0.9-0.5-1.4-0.8c0,1.1,0,2,0,2.8
			c0.4,0.1,0.7,0.1,0.9,0.3c1,0.9,1.9,1.7,3.2,2.2c2,0.8,3.9,1.5,5.9,2.2c0.8,0.3,1.7,0.5,2.6,0.8c-0.7,0-1.3,0-1.9-0.1
			c-0.3,0-0.6-0.1-0.8-0.1c-1.2,0.2-2.3,0.1-3.5-0.4c-0.8-0.3-1.7-0.6-2.5-1c-1.1-0.5-2.2-1.2-3-2.2c-0.3-0.4-0.6-0.7-0.9-1.1
			c0,0-0.1,0-0.1,0c0,0.6-0.1,1.3-0.1,1.9c0,0.1,0.2,0.3,0.3,0.4c1.2,0.7,2.4,1.4,3.7,1.9c2.1,0.9,4.2,1.6,6.2,2.4
			c0.7,0.2,1.4,0.4,2.1,0.6c-0.4,0.2-1.8,0-2.2-0.2c-0.2-0.1-0.5-0.2-0.7-0.3c0,0,0,0.1-0.1,0.1c0.2,0.1,0.4,0.3,0.6,0.4
			c-1.3-0.1-1.4-0.2-1.5-1c-0.7-0.2-1.5-0.3-2.2-0.5c-0.7-0.2-1.5-0.5-2.2-0.8c-0.7-0.3-1.3-0.6-2-0.9c0,0.1-0.1,0.1-0.1,0.2
			c0.3,0.2,0.5,0.3,0.8,0.5c2,1,4.1,1.9,6.1,2.8c0.9,0.4,1.8,0.9,2.8,1.2c1.2,0.4,2.4,1,3.8,1c-0.2,0.1-0.4,0.3-0.6,0.3
			c-0.5,0-1-0.1-1.4-0.2c-2.6-0.8-5-2.1-7.5-3.2c-2-0.9-3.9-1.9-5.9-2.9c0,0.2-0.1,0.4-0.1,0.4c0.3,0.1,0.5,0.2,0.7,0.3
			c0.2,0.2,0.3,0.5,0.6,0.7c1.1,0.5,1.9,1.4,3.1,1.7c1.1,0.3,2.1,0.9,3.1,1.6c0.7,0.5,1.7,0.8,2.5,1.2c0.1,0,0.2,0.1,0.3,0.1
			c0,0,0,0,0-0.1c-0.2-0.2-0.4-0.4-0.7-0.6c0.4-0.3,2.6,0.6,2.9,1.2c-0.2,0-0.3,0-0.5-0.1c0,0.1,0,0.1,0,0.2c0.5,0.1,1,0.3,1.6,0.4
			c0.5-0.6,0.9,0.1,1.3,0.1c0.2,0,0.4,0.2,0.5,0.2c0.5-0.2,0.9,0.2,1.4,0.3c2.1,0.7,4.2,1.4,6.3,2c0.8,0.2,1.6,0.8,2.5,0.7
			c0,0,0,0,0,0c-0.6,0-1.3,0-1.9,0c-1.3,0.1-2.5,0.1-3.7-0.3c-1.4-0.5-2.8-1-4.1-1.6c-1.1-0.6-2.2-1-3.5-1.3
			c-0.7-0.2-1.4-0.5-2.1-0.8c-0.8-0.3-1.6-0.8-2.4-1.1c-0.3-0.1-0.6-0.1-0.9-0.2c-1-0.4-1.9-0.9-2.8-1.2c-0.4-0.2-0.6-0.4-0.5-0.7
			c-1.2-0.8-2.3-1.6-3.5-2.3c0,0.1-0.1,0.2-0.1,0.3c-0.1,1.8-0.1,3.6-0.2,5.4c0,0.2,0.2,0.4,0.4,0.5c0.2,0.1,0.4,0.1,0.6,0.2
			c-0.2,0.1-0.4,0-0.6,0.1c-0.1,0-0.4,0.3-0.4,0.3c0.1,0.2,0.2,0.4,0.4,0.5c0.2,0.1,0.6,0.1,0.8,0.2c1,0.5,2,1.1,3,1.6
			c0.2,0.1,0.4,0.3,0.6,0.4c0.3,0.1,0.7,0,0.8,0.4c0,0,0.2,0,0.3,0c0.2,0,0.4,0.1,0.7,0.1c-0.2,0.1-0.3,0.1-0.5,0.2
			c0.2,0.1,0.4,0.2,0.5,0.3c-1.2-0.4-2.4-0.3-3.5-1.1c-1-0.7-2.2-1.2-3-2.1c-0.1,0.3-0.1,0.5-0.1,0.7c0,2.5-0.1,4.9-0.1,7.4
			c0,0.9,0.3,1.8,0.4,2.7c0.1,0.9,0.3,1.9,0.2,2.8c-0.1,0.6,0.1,1,0.4,1.3c0.7,0.7,1.1,1.5,1.6,2.3c0.2,0.4,0.3,0.8,1,0.6
			c-0.4,0.3-0.3,0.5-0.1,0.7c0.3,0.3,0.6,0.5,1,0.7c2.2,1.2,4.5,2.1,6.8,2.8c0.4,0.1,0.8,0.2,1.3,0.3c0.4,0.1,0.8,0.1,1.2,0.2
			c-3-0.9-5.9-2.2-8.8-3.5c0.4-0.3,0.8-0.3,1.1,0.1c0.2,0.2,0.4,0.4,0.6,0.5c0.5,0.3,1.1,0.5,1.7,0.7c1.4,0.5,2.8,1,4.1,1.6
			c0-0.1,0-0.2,0-0.2c0.1,0,0.3-0.2,0.4-0.1c0.4,0.1,0.8,0.2,1.2,0.4c0.9,0.4,1.9,0.6,2.9,0.5c0.4,0,0.8-0.1,1.2-0.1
			c0,0,0,0.1,0,0.1c-0.6,0.1-1.3,0.1-1.9,0.2c3.7,1.4,7.6,1.5,11.4,2.5c-0.5-0.8-1.1-1.2-1.9-1.3c-0.5-0.1-0.9-0.2-1.4-0.3
			c-0.6-0.1-1.3-0.3-1.9-0.4c-0.1,0-0.2-0.2-0.2-0.3c0,0,0.1-0.2,0.2-0.2c0.2,0,0.4,0,0.6,0.1c1.3,0.3,2.6,0.8,3.9,1
			c1.6,0.3,3.3,0.4,4.9,0.6c0.4,0,0.9,0.1,1.3,0.1c-0.1,0.1-0.1,0.2-0.2,0.2c-0.7,0-1.4,0-2.1,0c-0.2,0-0.4,0.2-0.6,0.3
			c-0.1-0.1-0.2-0.3-0.2-0.3c-0.4,0-0.7,0-1.1,0.1c0.5,0.1,0.9,0.1,1.4,0.2c1.3,0.3,2.6,0.6,3.9,0.9c-0.3,0.7-0.9,0.4-1.5,0.4
			c-0.2,0-0.4,0-0.6,0.1c-0.6,0-1.3,0.1-1.9,0.1c-0.6-0.1-1.2-0.3-1.8-0.4c-2-0.3-4.1-0.6-6.1-0.9c-0.6-0.1-1.2-0.2-1.7-0.5
			c-0.6-0.3-1.1-0.4-1.6,0c-0.1,0-0.2,0-0.3,0c-1-0.3-2-0.6-3-0.9c-0.7-0.2-1.3-0.4-2-0.6c-0.2-0.1-0.4-0.1-0.7-0.1
			c0.3,0.3,0.6,0.5,1,0.6c0.7,0.3,1.4,0.5,2.1,0.7c2,0.7,3.9,1.5,5.9,2.2c0.8,0.3,1.7,0.3,2.5,0.5c0-0.1,0-0.1,0.1-0.2
			c-0.3-0.1-0.5-0.2-0.8-0.3c0,0,0-0.1,0-0.1c0.2,0,0.5,0,0.7,0c0.5,0.1,0.9,0.2,1.4,0.2c1.2,0.2,2.3,0.4,3.5,0.6
			c0.6,0.1,0.6,0.3,0.4,0.8c-0.2-0.1-0.4-0.1-0.6-0.2c0.9,0.6,2,0.7,3.1,0.8c1.4,0.2,2.8,0.3,4.1,0.4c0.4,0,0.8,0.2,1.2,0.2
			c0.2,0,0.5,0,0.7,0c1.3,0.1,2.6,0.2,3.9,0.2c1.1,0,2.1-0.1,3.2-0.2c0.9,0,1.8-0.1,2.7-0.1c-1-0.2-2-0.3-3-0.4
			c-1.4-0.1-2.7-0.1-4.1-0.1c-1.3,0-2.7,0-4-0.1c-1.1-0.1-2.1-0.3-3.2-0.5c-0.7-0.1-1.5-0.3-2.2-0.5c0-0.1,0-0.1,0-0.2
			c0.5,0.1,1,0.2,1.5,0.2c1.5,0.2,3,0.3,4.5,0.4c0.5,0,1.1,0.3,1.6-0.1c0.1-0.1,0.3-0.2,0.5-0.2c0.7-0.1,1.4-0.2,2.1-0.2
			c1.9,0,3.7,0.1,5.6,0c1,0,1.9-0.1,2.9-0.2c0.9-0.1,1.9-0.2,2.8-0.4c1.3-0.2,2.7-0.5,4-0.8c1.5-0.4,2.9-1,4.4-1.6
			c1.1-0.4,2.2-0.8,3.3-1.2c0.3-0.1,0.6-0.3,0.9-0.4c0.3-0.1,0.7-0.1,1-0.2c0.6-0.2,1.2-0.5,1.8-0.7c0.6-0.3,1.1-0.5,1.7-0.8
			c0.5-0.3,0.9-0.6,1.4-0.9c0.4-0.3,0.9-0.5,1.3-0.7c0,0,0-0.1-0.1-0.1c-1.5,0.6-3,1.3-4.5,1.9c-1.5,0.6-3,1.2-4.5,1.8
			c-1.5,0.5-3,0.9-4.6,1.2c0,0,0-0.1,0-0.1c0.8-0.2,1.5-0.4,2.3-0.6c0,0,0-0.1,0-0.1c-0.2,0-0.5,0.1-0.8,0.1
			c0.2-0.1,0.3-0.2,0.4-0.3c-0.3-0.1-0.5-0.1-0.6-0.2c0.7-0.1,1.4-0.1,2.2-0.3c1.2-0.3,2.3-0.8,3.4-1.1c0.5-0.2,1-0.3,1.5-0.5
			c0.5-0.2,1-0.5,1.5-0.8c1.1-0.5,2.2-0.9,3.3-1.5c1.1-0.7,2.2-1.5,3.2-2.3c0.3-0.3,0.8-0.5,1-0.8c0.6-0.9,1.6-1.2,2.5-1.7
			c0.1,0.1,0.2,0.3,0.3,0.4c-1.3,1-2.6,2-3.9,3c-0.6,0.5-1.3,0.9-2,1.3c0,0,0.1,0.1,0.1,0.1c1.3-0.8,2.5-1.5,3.8-2.3
			c0,0,0,0.1,0.1,0.1c-0.3,0.3-0.7,0.5-1,0.8c0.3,0,0.5-0.1,0.7-0.3c0.9-0.6,1.9-1.2,2.8-1.8c0.1-0.1,0.3,0,0.5,0
			c0,0.1,0,0.3-0.1,0.4c-0.3,0.3-0.7,0.5-1.1,0.8c-0.9,0.5-1.7,1.1-2.6,1.6c-0.7,0.4-1.4,0.8-2.1,1.2c-2.1,1.2-4.1,2.4-6.2,3.6
			c-1.2,0.7-2.3,1.5-3.5,2.1c-0.9,0.5-2,0.8-2.9,1.1c-0.3,0.1-0.8,0.2-0.5,0.7c-0.3,0.3-0.6,0.6-0.9,0.9c0.2,0,0.4-0.1,0.6-0.1
			c1.4-0.6,2.7-1.2,4.1-1.8c1.2-0.5,2.4-1,3.6-1.6c2-0.9,3.9-1.9,5.7-3.1c0.5-0.3,1-0.5,1.5-0.9c1.2-0.9,2.3-1.9,3.4-2.9
			c0.4-0.3,0.6-0.7,0.9-1.1c0.2-0.3,0.4-0.7,0.7-1c0.1,0.2,0.2,0.4,0.2,0.6c-0.3,1.2-0.9,2.2-1.9,3c-3.5,2.9-7.4,5.2-11.5,7.1
			c-2.4,1.1-4.9,2-7.5,2.7c-3.2,0.9-6.4,1.6-9.7,2.1c-0.1,0-0.2,0-0.3,0c0.1-0.2,0.2-0.4,0.3-0.5c0.3-0.1,0.7-0.2,1.1-0.3
			c0.5-0.1,1-0.3,1.6-0.4c0.7-0.1,1.5-0.2,2.2-0.3c0-0.1,0-0.1,0-0.2c-0.7,0.2-1.4,0.3-2.2,0.5c-3.1,0.5-6.1,1-9.2,1
			c1,0.4,2,0.1,3,0.1c1-0.1,2.1-0.2,3.1-0.3c-0.1,0.2-0.2,0.5-0.4,0.5c-1,0.2-2,0.3-2.9,0.5c-0.2,0-0.5,0.1-0.7,0.1
			c-1.7,0-3.4,0-5.1,0c-0.1,0-0.2-0.1-0.3-0.1c-1.9-0.1-3.8-0.1-5.8-0.3c-2.6-0.2-5.2-0.5-7.7-1c-4.7-0.9-9.2-2.4-13.7-4.2
			c-2.9-1.2-5.7-2.6-8.1-4.7c-2.7-2.2-4.4-5-5.1-8.4c-0.6-3-0.9-6-0.9-9.1c0-3.7,0.1-7.4,0.2-11.1c0.1-3,0.2-6,0.3-8.9
			c0-0.3-0.1-0.5-0.4-0.7c-0.7-0.3-1.3-0.6-1.9-1c-2.1-1.2-3.8-2.8-4.6-5.2c-1-3.1-0.6-5.9,1.3-8.5c0.4-0.5,0.7-1,1.2-1.3
			c0.7-0.5,1.6-0.3,2.5-0.3c-0.1-1.1,0.3-2.1,0.8-3.1c0.1-0.1,0.1-0.3,0-0.5c-0.5-1.4-1-2.7-1-4.3c0-1.7,0.1-3.4,1.5-4.6
			c2.8-2.5,6-4.2,9.8-4.4c3.2-0.2,6.3-0.4,9.5-0.5c3.9-0.1,7.8,0,11.7,0.9c0.2,0,0.4,0.2,0.5,0.3c0,0,0,0.1-0.1,0.1
			c-1.2-0.1-2.4-0.2-3.6-0.3c-1.8-0.2-3.6-0.3-5.4-0.5c-1.3-0.1-2.7-0.1-4-0.1c-2,0-4,0.1-5.9,0.3c-0.9,0.1-1.8,0.2-2.7,0.4
			c-0.7,0.1-1.3,0.4-2,0.5c-0.5,0.1-1,0.2-1.4,0.3c-1.6,0.6-2.8,1.6-3.9,2.7c-0.4,0.4-0.7,0.8-1,1.2c-0.1,0-0.1-0.1-0.2-0.1
			c0.1-0.2,0.1-0.4,0.2-0.6c1.2-1.3,2.5-2.6,4.3-3.2c0.1-0.1,0.3-0.1,0.4-0.2c-0.6,0.1-1.1,0.2-1.6,0.4c-0.8,0.4-1.6,0.9-2.3,1.4
			c-0.7,0.6-1.2,1.3-1.8,1.9c-0.2,0.3-0.5,0.6-0.5,0.9c-0.1,1.3-0.2,2.5-0.3,3.8c0,0.3,0.3,0.6,0.5,0.9c0.6,1,1,2.1,1.7,3.1
			c0.9,1.3,1.9,2.5,3,3.6c1,1,2.1,1.8,3.3,2.7c0.6,0.5,1.2,0.8,1.9,1.2c0.3,0.2,0.6,0.2,0.9,0.3c3.1,1.1,6.4,1.9,9.7,2.4
			c1.7,0.3,3.5,0.5,5.2,0.7c2.5,0.3,4.9,0.6,7.4,0.8c2.1,0.2,4.2,0.4,6.3,0.5c3.2,0,6.4,0,9.6-0.2c3.5-0.1,7.1-0.3,10.6-0.8
			c2.5-0.4,5-0.7,7.5-1.1c1.5-0.2,3-0.6,4.5-0.9c0.6-0.1,1.3-0.4,1.9-0.5c-0.2-0.7-0.2-1.3-0.7-1.7c-0.4-0.4-0.7-1-1.1-1.5
			c-1.3-1.3-2.6-2.4-4.1-3.5c-1.9-1.3-3.8-2.8-5.7-4.1c-1.4-1-3-1.9-4.5-2.7c-2-1-4-1.9-6-2.6c-1.7-0.6-3.5-0.9-5.3-1.3
			c-0.6,1.1-1.2,2.1-1.8,3.1c1.1,0.7,1.2,1.1,1.2,2.2c0,0.8-1.3,2.1-2,2.1c-2.1,0-4.2,0-6.3,0c-1.6,0-2.9-1-4.5-1.3c0,0-0.1,0-0.1,0
			c-0.7-0.5-1.4-1.1-2.2-1.6c-0.9-0.5-1.3-1.4-1.4-2.4c-0.2-1.2,0.3-1.9,1.4-2.3c0.5-0.2,1.1-0.2,1.7-0.3c0-0.1,0-0.3,0-0.4
			c0-1.4,0-2.7,0.1-4.1c0.1-0.9,0.3-1.7,0.4-2.6c0.1-0.7,0.5-1.1,1.2-1.2c1-0.2,2-0.4,2.9-0.3c2.8,0.3,5.5,1.1,7.9,2.6
			c1.2,0.8,2,1.7,2.4,3.1c0,0.2,0.1,0.4,0.2,0.5c0.2,0.2,0.4,0.4,0.6,0.4c2.1,0.2,4.2,0.4,6.2,0.6c3.9,0.4,7.9,1,11.7,2.1
			c3.5,1,6.9,2.2,10.3,3.4c2.7,1,5.3,2.4,7.5,4.2c0.3,0.3,0.7,0.7,0.8,1.1c0.3,1,0.6,2,0.7,3c0.1,0.4,0.2,0.5,0.5,0.6
			c0.9,0.1,1.7,0.3,2.6,0.4c1.2,0.2,2.1,0.7,2.7,1.8c0.5,0.8,0.8,1.7,1.1,2.6c0.1,0.3,0.1,0.6,0.2,0.9
			C167.2,92.4,167.2,93,167.2,93.6z M151.6,88.4c0.3,0.4,0.4,0.8,0.2,1.3c0.3-0.1,0.6-0.3,0.7-0.3c-0.2-0.4-0.3-0.8-0.5-1.1
			c-0.2-0.5-0.5-1.1-0.7-1.6c-0.2-0.5-0.7-0.9-0.7-1.4c-0.1-1-0.8-1.3-1.4-1.8c-0.5-0.3-1.1-0.6-1.6-0.8c-1.4-0.5-2.8-1-4.1-1.4
			c-0.8-0.2-1.6-0.4-2.5-0.6c1-0.5,1.8,0.1,2.6,0.3c0.9,0.2,1.7,0.3,2.5,0.6c1.3,0.4,2.7,0.6,3.9,1.4c0.6,0.3,1,0.8,1.3,1.3
			c0.1,0.2,0.4,0.4,0.6,0.6c0.9,1,1.8,2,2.8,3c0.2-0.1,0.5-0.3,0.8-0.5c0.2-0.1,0.3-0.3,0.5-0.4c0.8-0.4,1-1,0.8-1.9
			c-0.1-0.5-0.1-1,0.3-1.4c0.3,0.4,0.7,0.7,0.9,1.2c0.1,0.3,0.2,0.7,0.1,1c-0.3,0.8-0.9,1.5-1.6,2c-2,1.5-4.2,2.6-6.6,3.6
			c-1.7,0.7-3.6,1-5.4,1.3c-1,0.2-2,0.5-3.1,0.6c-2.3,0.3-4.6,0.7-6.9,0.9c-2.9,0.3-5.8,0.5-8.7,0.7c-1.4,0.1-2.8,0.2-4.2,0.2
			c-1.8,0.1-3.7,0.1-5.5,0.1c-2.7,0-5.5-0.3-8.2-0.6c-1.6-0.2-3.2-0.3-4.8-0.5c-1.9-0.2-3.9-0.5-5.8-0.8c-1.8-0.3-3.6-0.5-5.4-0.8
			c-1.3-0.3-2.7-0.6-4-1c-1.4-0.4-2.7-0.8-4.1-1.4c-1.6-0.6-3.1-1.4-4.6-2.1c-0.2-0.1-0.4-0.3-0.6-0.5c0.2-0.3,0.4-0.4,0.6-0.1
			c0.2,0.2,0.4,0.3,0.7,0.5c-0.4-0.5-0.7-1-1.1-1.4c-0.2-0.2-0.6-0.3-0.8-0.5c-0.5-0.3-0.9-0.7-1.5-1c0.1,0.3,0.2,0.6,0.4,0.8
			c0.3,0.3,0.2,0.5,0,0.8c-0.2-0.1-0.4-0.2-0.5-0.3c-0.3-0.4-0.5-0.8-0.7-1.3c-0.1-0.2-0.1-0.5-0.1-0.7c0-0.4,0-0.9,0-1.4
			c-0.2,0-0.2,0-0.2,0c-0.7,1.1-1.3,2.7-0.2,3.9c0.8,0.9,1.7,1.6,2.8,1.9c1,0.3,2,0.8,2.9,1.4c0.4,0.2,0.8,0.4,1.2,0.5
			c0.8,0.2,1.6,0.5,2.4,0.7c1.1,0.3,2.3,0.6,3.5,0.9c2,0.5,4,1,6,1.4c3.6,0.6,7.2,1.2,10.9,1.7c2.2,0.3,4.3,0.5,6.5,0.6
			c3.2,0.1,6.3,0,9.5,0c1.4,0,2.9,0,4.3,0c2.3-0.1,4.6-0.3,6.9-0.5c1.6-0.1,3.2-0.3,4.8-0.6c2-0.3,4-0.7,5.9-1.1
			c1.6-0.3,3.1-0.7,4.7-1.1c2.1-0.6,4.2-1.4,6.2-2.2c1.1-0.4,2.2-1.1,3.1-1.8c0.8-0.6,1.4-1.4,2-2.2c0.2-0.2,0.2-0.5,0.2-0.8
			c-0.1-0.4-0.2-0.9-0.3-1.3c-0.1-0.5-0.3-0.9-0.5-1.4c0,0,0-0.1-0.1-0.1c-0.9-0.7-1.5-1.8-2.6-2.3c-0.5-0.2-1-0.6-1.4-0.9
			c-0.9-0.7-2-0.8-3-1.2c-1-0.4-2.1-0.9-3.1-1.2c-2.1-0.7-4.2-1.3-6.3-1.9c-1.3-0.4-2.6-0.7-3.9-1c-1.2-0.3-2.4-0.5-3.6-0.7
			c-1.1-0.2-2.2-0.4-3.2-0.5c-2.4-0.3-4.9-0.5-7.3-0.7c0,0.1,0,0.2-0.1,0.3c1.2,0.4,2.4,0.9,3.7,1.3c1.3,0.4,2.4,0.9,3.6,1.6
			c1.2,0.6,2.3,1.2,3.5,1.9c0.5-0.7,1-0.4,1.6-0.3c1.5,0.4,3.1,0.7,4.6,1c0.3,0.1,0.6,0.2,0.8,0.3c0.3,0.1,0.5,0.3,0.8,0.4
			c-2.2-0.4-4.4-0.7-6.7-1.1c0,0.1,0,0.1,0,0.2c0.8,0.5,1.5,1,2.3,1.5c2.1,1.5,4.2,3,6.3,4.6c1.2,0.9,2.5,1.8,3.5,3
			c0.8,1,1.5,2.1,1.9,3.4c0.5,0,0.7-0.2,0.5-0.6c-0.3-0.7-0.6-1.4-0.9-2c-0.2-0.4-0.2-0.9-0.4-1.2c-0.5-0.6-0.9-1.2-1.7-1.5
			c-0.1,0-0.2-0.2-0.3-0.3c0,0,0.1-0.1,0.1-0.1C148.6,85.9,150.3,86.9,151.6,88.4z M164.5,89.3C164.5,89.3,164.6,89.3,164.5,89.3
			c0.5,1.1,1.2,2,0.8,3.2c-0.2,0.6-0.6,1.1-1.1,1.6c-1.6,1.4-3.6,1.6-5.5,1.9c-0.5,0.1-0.9,0.1-1.4,0.2c-0.2,0-0.4,0.1-0.5,0.3
			c-0.6,0.7-1.3,1.4-1.3,2.4c0,0.3,0,0.6,0,1c0.4-0.1,0.7-0.1,1-0.2c1.5-0.5,3.1-0.9,4.6-1.4c0.8-0.3,1.6-0.7,2.4-1.1
			c0.2-0.1,0.4-0.1,0.6-0.2c0.2-0.1,0.4-0.2,0.6-0.4c0.2,0.3,0.1,0.4-1,1.3c0.1,0.1,0.1,0.2,0.2,0.2c0.3-0.2,0.5-0.3,0.8-0.4
			c0.1-0.1,0.2-0.2,0.3-0.3c0.1-0.1,0.2-0.1,0.3-0.2c0,0.1,0,0.3-0.1,0.4c-0.2,0.3-0.3,0.6-0.5,0.9c-0.7,0.9-1.7,1.3-2.8,1.4
			c-0.3,0-0.7,0.1-1,0.2c-1.4,0.6-2.8,0.9-4.3,1c-0.2,0-0.4,0.1-0.6,0.1c0.1,0.5,0.7,0.8,0.2,1.4c-0.2-0.1-0.3-0.3-0.6-0.5
			c-0.1,0.8-0.2,1.5-0.3,2.1c0.4,0,0.7-0.1,1.1-0.1c0.3-0.6,0-1.3,0.4-1.9c0.5,1.1-0.1,2.1,0,3.1c1.3-0.3,1.2-0.9,1-2.3
			c0-0.4-0.1-0.5,0.3-0.7c-0.4,0-0.7-0.1-1-0.1c0,0,0-0.1,0-0.1c1.3-0.4,2.7-0.7,4-1.2c1.4-0.5,2.8-1.2,3.7-2.4
			c0.7-1,1.3-2.1,1.4-3.4c0-0.5,0.2-0.9,0.1-1.4c-0.1-1.2-0.2-2.5-0.8-3.5c-0.5-0.9-1.3-1.8-2.4-2.2c-0.4-0.1-0.7-0.4-1-0.6
			c0,0-0.1,0.1-0.1,0.1C162.9,88.1,163.7,88.7,164.5,89.3z M80.8,98.3c0-0.9,0-1-0.8-1.2c-1.7-0.6-3.5-1.1-5.2-1.7
			c-0.8-0.3-1.6-0.7-2.4-1.1c-0.6-0.3-0.7-1-1.1-1.4c-0.4-0.4-1.1-0.6-1.3-1.2c-0.1-0.2-0.2-0.4-0.3-0.6c-0.1-0.1-0.2-0.2-0.3-0.3
			c-0.1,0.1-0.2,0.2-0.3,0.3c-0.1,0.8-0.2,1.5-0.1,2.3c0.2,1.1,0.7,2,1.4,2.8c0.3,0.4,0.6,0.9,1,1.3c0.4,0.5,1,0.9,1.4,1.3
			c0.1,0.1,0.4,0.2,0.4,0.4c0.2,0.6,0.8,0.7,1.3,1c0.7,0.3,1.4,0.8,2.1,1c1,0.3,2.1,0.6,3.2,0.4c0.3-0.1,0.6-0.1,0.6-0.5
			c0.1-0.8,0.2-1.7,0.4-2.5c0,0,0,0,0,0C80.8,98.5,80.8,98.4,80.8,98.3z M162.3,93.9c0.2-0.1,0.4-0.1,0.6-0.2c0.6-0.1,0.9-0.5,1-1
			c0.1-0.6,0.1-1.2,0.2-1.8c0-0.5-0.3-0.8-0.8-0.8c-1.4,0.1-2.7,0.2-4.1,0.4c-0.4,0-0.5,0.3-0.5,0.7c0,1.1,0,2.3,0,3.6
			C159.9,94.5,161.1,94.2,162.3,93.9z M82.5,139.8c1.2,0.8,2.4,1.7,3.7,2.4c1.4,0.8,2.9,1.4,4.4,2c1,0.4,2.1,0.8,3.1,1.2
			c1.4,0.5,2.9,0.7,4.2,1.3c2.1,0.8,4.4,1,6.6,1.5c0.7,0.2,1.3,0.3,2,0.3c0.7,0.1,1.5,0.1,2.2,0.2c1,0.1,1.9,0.2,2.9,0.4
			c0.2,0,0.3,0,0.5-0.1c-0.5-0.1-1.1-0.2-1.6-0.3c-1.4-0.2-2.7-0.3-4.1-0.6c-1.3-0.2-2.6-0.5-3.9-0.8c-1.8-0.4-3.7-0.8-5.5-1.3
			c-2.6-0.7-5.2-1.7-7.5-3.1c-1.6-0.9-3.3-1.7-5-2.6c-1-0.5-2-1-3-1.5c-0.2-0.1-0.4-0.3-0.7-0.5c0,0-0.1,0.1-0.1,0.1
			C81.4,138.9,81.9,139.4,82.5,139.8z M75.3,90.4c-0.8,0.1-1.6,0.1-2.4,0.2c-0.6,0.1-1.1,0.2-1.7,0.4c-0.2,0.1-0.3,0.2-0.5,0.4
			c-0.1,0.1-0.1,0.2,0,0.3c0,0.1,0.2,0.2,0.2,0.1c0.5-0.4,0.6,0.2,0.9,0.3c0.3,0.1,0.5,0.4,0.8,0.5c0.9,0.4,1.8,0.8,2.7,1.2
			C75.7,92.7,75.6,91.6,75.3,90.4z M156.5,114.9c0-0.7-0.1-1.5-0.1-2.3c-0.4,0.3-0.6,0.6-0.9,0.9c0,0,0.1,0.1,0.1,0.1
			c0.2,0,0.3-0.1,0.6-0.1c-0.2,0.2-0.4,0.3-0.5,0.4c-1.1,0.7-2.1,1.5-3.3,2c-0.4,0.2-0.7,0.4-1.1,0.5c-0.6,0.2-0.3,0.7-0.4,1.1
			c0,0.1,0,0.2,0,0.3c0.3-0.1,0.5-0.1,0.8-0.2c0-0.1,0-0.2-0.1-0.3c0.9-0.3,1.7-0.7,2.6-1c0,0.2,0,0.4,0,0.6
			c0.7-0.1,1.4-0.5,1.9-1.3C155.8,115.3,155.8,115.3,156.5,114.9z M88.8,95.4c0.7,0.8,8.2,2.1,9.5,1.7c-1.1-0.2-2.2-0.5-3.3-0.7
			c-1.7-0.4-3.3-0.9-5-1.4c-0.4-0.1-0.8-0.4-1.2-0.5c-0.4-0.2-1-0.2-1.3-0.4c-0.5-0.3-1-0.3-1.4-0.5c-0.3-0.1-0.6,0-1,0
			c0,0.1-0.1,0.2-0.1,0.2c0.3,0.2,0.6,0.4,0.9,0.5c1.4,0.4,2.8,0.8,4.2,1.2c0.1,0,0.1,0.1,0.2,0.1c0,0,0,0,0,0.1
			C89.9,95.6,89.4,95.5,88.8,95.4z M111.9,76.5c0.1-0.3,0.1-0.5,0.2-0.7c0.4-1.5,0.7-2.9,1.1-4.4c0.3-1.4,0.2-1.4-1.3-1.9
			c-0.1,0.8-0.3,1.6-0.4,2.4c-0.1,0.9-0.2,1.7-0.3,2.6c0,0.5-0.1,1-0.1,1.6C111.3,76.2,111.5,76.4,111.9,76.5z M152.2,105.8
			c0.7-0.2,1.3-0.3,1.9-0.5c0,0,0,0.1,0,0.1c-0.4,0.2-0.7,0.3-1.1,0.5c-0.4,0.1-0.7,0.3-1.1,0.4c-0.5,0.1-0.6,0.3-0.5,0.7
			c0,0.2,0,0.4,0,0.6c0.2,0,0.3-0.1,0.4-0.1c0.9-0.2,1.8-0.4,2.6-0.7c0.4-0.1,0.5-0.3,0.5-0.7c-0.1-0.6-0.1-1.3-0.1-1.9
			C153.9,104.8,153.1,105.3,152.2,105.8z M84.3,93.7c0.3-0.3,0.5-0.5,0.8-0.7c-0.6-0.3-1.3-0.6-2-0.8c-0.6-0.2-1.1-0.4-1.7-0.6
			c-0.2-0.1-0.5,0-0.8,0c-0.1,0-0.2,0-0.2,0c-0.8-0.2-1.6-0.3-2.4-0.5C79.9,92.7,82.3,92.9,84.3,93.7z M156.2,100.3
			c0,0.1-0.1,0.2-0.2,0.3c2.6,0.1,4.8-1,6.9-2.4c-2.5,0.7-4.9,1.3-7.3,2c0,0,0,0.1,0,0.1C155.8,100.3,156,100.3,156.2,100.3z
			 M153.3,103.7c0,0.5-0.3,0.6-0.7,0.8c-0.2,0.1-0.5,0.2-0.7,0.3c-0.6,0.2-0.7,0.3-0.5,1c0.4-0.2,0.8-0.3,1.2-0.5
			c0.7-0.4,1.4-0.8,2.1-1.2c0.3-0.2,0.5-1.2,0.3-1.5c-0.1-0.1-0.2-0.1-0.4-0.1c0,0-0.1,0-0.1,0c-0.3,0.1-0.7,0.1-1.1,0.2
			C153.3,103.1,153.3,103.4,153.3,103.7z M109.4,74.4c0-0.1-0.1-0.2-0.1-0.3c0-0.6,0.1-1.2,0.1-1.9c0-1.5,0-2.9,0-4.4
			c-0.1,0.5-0.2,1.1-0.3,1.7c-0.2,1.1-0.4,2.3-0.5,3.4c-0.1,0.6,0,1.2,0,1.8c0,0.1,0.1,0.2,0.2,0.3c0.2,0.2,0.4,0.3,0.7,0.5
			C109.7,75.1,109.5,74.8,109.4,74.4z M109.7,67.2c0.1,0,0.3,0,0.4,0.1c0-0.1,0-0.1,0-0.1c-0.4-0.8-0.3-1.1,0.6-1.3
			c0.6-0.1,1.3-0.1,1.9,0c1.6,0.2,3.2,0.4,4.7,1c0,0,0.1,0,0.2,0c-0.2-0.1-0.4-0.3-0.5-0.3c-1.7-0.4-3.3-0.9-5-1.2
			c-0.6-0.1-1.3-0.1-1.9,0c-0.4,0.1-0.7,0.5-1.2,0.8C109.4,66.1,109.7,66.1,109.7,67.2z M157.7,108.9c0.1-0.1,0.1-0.2,0.1-0.3
			c0-0.9,0-1.8,0-2.8c0-0.1-0.2-0.3-0.2-0.3c-0.3,0.2-0.8,0.3-0.8,0.5c-0.1,1.1,0,2.2,0,3.3C157.2,109.2,157.5,109,157.7,108.9z
			 M73.8,87c-0.8,0.1-1.6,0.1-2.2,0.7c0,0.1,0,0.1,0,0.2c0.4,0.1,0.8,0.2,1.3,0.2c-0.3,0.2-0.5,0.4-0.7,0.6c0,0,0,0.1,0,0.1
			c0.7-0.1,1.5-0.1,2.3-0.2C74.1,88,73.9,87.5,73.8,87z M153.2,98.6c0.1,0.2,0.1,0.3,0.2,0.6c0.3-0.1,0.5-0.3,0.8-0.4
			c0,0,0.1,0,0.1,0.1c-0.1,0.1-0.1,0.3-0.2,0.3c-0.1,0.1-0.3,0.2-0.5,0.2c-0.3,0.1-0.5,0.3-0.4,0.6c0,0.1,0,0.2,0,0.3
			c0,0.9,0,0.9,0.8,0.5c0.3-0.1,0.5-0.3,0.8-0.5c-0.4-0.1-0.7-0.1-1-0.2c0,0,0-0.1,0-0.1c0.3,0,0.5-0.1,0.8-0.1c0-0.7-0.1-1.3-0.1-2
			C154.2,98.2,153.7,98.4,153.2,98.6z M155.4,106.5c0.2-0.1,0.4-0.1,0.6-0.2c-0.7,0.7-0.7,0.7-0.7,1.1c0.8,0,1.1-0.3,1.1-1
			c0-0.6,0-1.2,0-1.9C155.4,105,155.1,105.4,155.4,106.5z M119.5,70.5c-0.5-0.5-1.1-0.8-1.8-1.1c-0.6-0.2-1,0.1-1.5,0.3
			C117.2,70.3,118.3,70.7,119.5,70.5z M153.6,109.1c0.1,0,0.3,0,0.5,0c0.8,0,0.9-0.2,0.8-1.2c-1.2,0.5-2.3,0.9-3.5,1.4
			c-0.1,0-0.1,0.2-0.1,0.4C152.2,109.5,152.9,109.3,153.6,109.1z M117.3,79.6c-0.5,0-1,0-1.5,0.1c1.1,0.1,2.3,0.4,3.4-0.1
			c0.6-0.3,0.7-0.7,0.2-1.1c-0.1-0.1-0.3-0.2-0.5-0.4C118.8,79,118.2,79.6,117.3,79.6z M152.7,99.7c-0.4,0.1-0.7,0.1-1,0.3
			c-0.1,0.1-0.3,0.3-0.3,0.5c0,1.3,0,1.1,1.1,0.9c0.1,0,0.2,0,0.3-0.1C152.8,100.7,152.7,100.2,152.7,99.7z M154.4,128
			c-0.8,0.2-1.6,0.1-2.3,0.6c-0.9,0.6-1.9,1-2.8,1.5C151.1,129.7,152.9,129.1,154.4,128z M156.1,109.6c0.4-0.2,0.4-0.6,0.2-1
			c-0.1-0.1-0.5-0.1-0.7-0.2c-0.1-0.5,1-0.3,0.7-1.1c-0.2,0.1-0.3,0.1-0.4,0.1c-0.5,0.1-0.7,0.4-0.6,0.9c0,0.5,0,1.1,0,1.7
			C155.7,109.9,155.9,109.7,156.1,109.6z M155,101.8c0.1,0,0.1-0.3,0-0.4c-0.1-0.1-0.3-0.3-0.4-0.2c-0.4,0.1-0.8,0.2-1.2,0.4
			c-0.1,0.1-0.3,0.3-0.2,0.5c0,0.1,0.3,0.2,0.4,0.4C154.2,102.1,154.6,102,155,101.8z M152,101.7c-0.5,0-0.6,0.4-0.7,0.8
			c0,0.1,0.2,0.3,0.3,0.2c0.4-0.1,0.8-0.3,1.2-0.5c0.1,0,0.1-0.3,0.1-0.5c0-0.1-0.2-0.2-0.2-0.2C152.4,101.7,152.2,101.7,152,101.7z
			 M114.4,76.9c0.3,0.1,0.6,0.1,0.9,0.2c0.1-0.8,0.2-1.5,0.3-2.2c0,0-0.1,0-0.1,0C115.2,75.5,114.8,76.1,114.4,76.9z M151.2,114.8
			c0,0.1,0,0.1,0.1,0.2c0.4-0.1,0.8-0.3,1.2-0.4c0.9-0.3,1.8-0.5,2.7-0.7c0.1,0,0.2-0.2,0.3-0.3c0-0.1-0.1-0.1-0.1-0.2
			C153.9,113.9,152.6,114.3,151.2,114.8z M151.6,103c-0.2,0.1-0.2,0.4-0.2,0.7c0.6-0.2,1.3-0.1,1.7-1
			C152.5,102.8,152,102.9,151.6,103z M158.8,88.7c0.7-0.1,1.4-0.2,2.1-0.3c0,0,0-0.1,0-0.1c-0.2,0-0.4-0.2-0.5-0.1
			c-0.5,0.2-0.6,0-0.8-0.4C159.2,88.1,159,88.4,158.8,88.7z M153,103.4c-0.5,0.2-1,0.5-1.5,0.7c0,0,0,0,0,0.1c0.1,0,0.3,0,0.4,0
			c-0.1,0.1-0.2,0.1-0.2,0.2c0,0,0,0.1,0,0.1c0.5-0.1,0.9-0.2,1.4-0.3C153.1,103.9,153,103.7,153,103.4z M115.8,74
			c0.1,0,0.2,0.1,0.2,0.1c0.4-0.9,0.7-1.8,1.1-2.7c-0.1,0-0.2-0.1-0.2-0.1C116.5,72.2,116.1,73.1,115.8,74z M151.2,109.3
			c-0.8,0.3-1.5,0.6-2.2,0.8C150.1,110.2,151.1,109.8,151.2,109.3z M152.6,115.5c-0.9,0-1.6,0.4-1.6,0.8
			C151.6,116.1,152.1,115.8,152.6,115.5z M76.6,109.9c-0.1,0.2-0.1,0.3-0.1,0.4c0.4,0,0.8,0,1.2,0.1c0,0,0,0,0-0.1
			C77.3,110.2,77,110.1,76.6,109.9z M150.8,103.1c0.3,0,0.4-0.2,0.2-0.5c-0.4,0.2-0.8,0.4-1.3,0.5c0,0,0,0,0,0.1
			C150.1,103.2,150.5,103.1,150.8,103.1z M110,75.7c0,0,0.3,0.1,0.5,0.3c-0.1-0.5-0.1-0.8-0.1-1.1c0,0-0.1,0-0.1,0
			C110.2,75.2,110.1,75.4,110,75.7z M113.2,76.7c0.2,0,0.4,0,0.6,0c0-0.1-0.1-0.3-0.1-0.4c0-0.2,0-0.3,0-0.5c0,0-0.1,0-0.1,0
			C113.5,76,113.3,76.3,113.2,76.7z M114.1,69.1c0,0.1,0,0.1-0.1,0.2c0.4,0.1,0.9,0.2,1.3,0.3c0-0.1,0-0.1,0-0.2
			C115,69.4,114.6,69.3,114.1,69.1z M133.2,147.3c0,0,0-0.1,0-0.1c-0.5,0.2-1,0.4-1.5,0.5c0,0,0,0.1,0,0.1
			C132.2,147.7,132.7,147.5,133.2,147.3z M134.8,146c0,0,0,0.1,0,0.1c0.5-0.2,1-0.4,1.5-0.5c0,0,0-0.1-0.1-0.1
			C135.7,145.6,135.3,145.8,134.8,146z"/>
		<path d="M79.9,129.8c0.2,0,0.4,0,0.5,0c2.1,0.8,4.3,1.4,6.5,1.8c0.2,0,0.5,0.1,0.8,0.1c0.9,0,1.6,0.6,2.5,0.9
			c0.3,0.1,0.6,0.3,1,0.4c0.3,0,0.6-0.1,0.8-0.1c0-0.1,0-0.1,0.1-0.2c-0.3-0.1-0.6-0.2-1.1-0.4c0.4-0.1,0.7-0.1,0.9-0.2
			c0,0,0,0,0-0.1c-0.6-0.1-1.3-0.1-1.9-0.2c-2.2-0.4-4.5-0.9-6.7-1.4c-0.8-0.2-1.6-0.5-2.4-0.9c-1.1-0.5-2.2-1-3.3-1.5
			c-0.2-0.1-0.4-0.3-0.6-0.5c0-0.1,0.1-0.1,0.1-0.2c0.2,0,0.5,0,0.7,0.1c1.2,0.6,2.4,1.4,3.7,1.9c1.1,0.5,2.2,0.7,3.3,1.1
			c0.7,0.2,1.4,0.4,2.1,0.6c0.2,0.1,0.5,0.1,0.7,0.1c0-0.1,0-0.2,0.1-0.2c-0.4-0.2-0.9-0.4-1.3-0.6c2.2,0.5,4.4,1.2,6.7,1.2
			c-4.8-0.6-9.2-2.4-13.4-4.7c0.1-0.2,0.1-0.4,0.2-0.5c0.3,0.1,0.5,0.3,0.8,0.4c2.8,1.3,5.7,2.1,8.7,2.5c1,0.1,1.8,0.4,2.6,0.8
			c0.2,0.1,0.4,0.2,0.6,0.2c0.2,0,0.4-0.1,0.6-0.1c-0.1-0.2-0.2-0.4-0.4-0.5c-0.2-0.1-0.4-0.1-0.7-0.2c0.1-0.1,0.1-0.2,0.2-0.3
			c-2.5,0-4.8-0.3-7.1-1.3c1,0.1,2,0.3,3,0.4c0-0.1,0-0.2,0.1-0.2c-0.3-0.1-0.6-0.2-0.9-0.3c-0.5-0.2-1-0.3-1.4-0.5
			c-1-0.3-2-0.7-3-1c-0.5-0.2-1-0.4-1.6-0.6c-0.3-0.1-0.7-0.1-1-0.2c-0.2,0-0.3,0-0.6,0c0,0.1,0,0.3,0,0.5c-0.5-0.2-0.9-0.4-1.3-0.7
			c0-0.5-0.1-0.6-0.7-0.5c-0.2,0-0.4-0.2-0.7-0.3c0,0,0-0.1,0.1-0.1c0.2,0,0.4-0.1,0.7-0.1c0-0.1,0-0.1,0-0.1c-0.3-0.1-0.8-0.3-1,0
			c-0.1,0.1,0.2,0.6,0.5,0.8c0.5,0.3,1,0.6,1.6,0.9c0.2,0.1,0.4,0.3,0.6,0.4c-0.2,0.1-0.4,0.2-0.5,0.3c0.1,0.2,0.2,0.4,0.4,0.5
			c0.7,0.4,1.5,0.8,2.2,1.1c1.1,0.5,2.2,1.1,3.3,1.7c-0.2,0-0.4,0-0.5,0c-2.4-0.8-4.6-1.8-6.7-3.3c-0.2-0.2-0.5-0.4-0.7-0.5
			c-0.1-0.1-0.3,0-0.5,0.1c0,0.2,0,0.3,0.1,0.4c0.1,0.2,0.3,0.3,0.5,0.5c-0.6,0.4-0.6,0.5,0,0.9c0.8,0.5,1.7,1,2.5,1.5
			C79.7,129.6,79.8,129.7,79.9,129.8C79.9,129.8,79.9,129.8,79.9,129.8z"/>
		<path d="M149,132.8c1.6-0.8,3.1-1.6,4.7-2.4c0.6-0.3,1.2-0.6,1.8-1c0.2-0.1,0.4-0.4,0.5-0.6c0,0,0.1,0.1,0.1,0.1
			c-0.8,1-1.7,2.1-2.6,3.2c1.1,0.2,1.4-0.9,2.3-1c-3.2,2.9-7.3,4.5-11.1,6.4c0.2-0.2,0.5-0.3,0.8-0.5c0.3-0.1,0.6-0.3,0.8-0.5
			c0.2-0.1,0.5-0.3,0.7-0.4c-3.1,1.1-6.2,2-9.4,2.6c0.3-0.2,0.6-0.4,0.9-0.5c1.5-0.5,2.9-0.9,4.4-1.4c2.7-0.8,5.2-2.1,7.6-3.5
			c0.3-0.2,0.5-0.4,0.8-0.5c0,0,0-0.1-0.1-0.1c-0.3,0.1-0.5,0.2-0.8,0.3c-1.8,0.8-3.7,1.4-5.7,1.5c-0.6,0-1.2-0.1-1.8,0
			c-0.7,0.1-1.3,0.3-2,0.4c-0.8,0.1-1.6,0.2-2.3,0.4c0.4-0.2,0.7-0.3,1.1-0.5c0.3-0.1,0.6-0.2,0.9-0.2c0.2,0,0.5,0.1,0.7,0.1
			c0.7-0.1,1.4-0.3,2.1-0.4c1.9-0.5,3.8-1.1,5.6-1.9c0.8-0.4,1.7-0.9,2.5-1.3c0.6-0.3,1.1-0.8,1.7-1.2c0.7-0.5,1.4-0.9,2.1-1.4
			c0.5-0.4,1-0.8,1.5-1.2c0,0.2,0,0.3,0,0.3c-2.7,2.4-5.7,4.2-8.9,5.7C148.3,133.1,148.7,133,149,132.8z M149.9,134
			c0,0,0.1,0.1,0.1,0.1c0.5-0.3,1-0.6,1.5-0.9c0-0.1-0.1-0.1-0.1-0.2C150.9,133.5,150.4,133.8,149.9,134z"/>
		<path d="M90.6,128c-0.1-0.1-0.3-0.1-0.4-0.2c-0.1,0-0.3-0.1-0.4-0.2c0.4,0,0.8,0,1.2,0c0.4,0,0.8-0.1,1.2-0.2
			c-2.7-0.1-5.3-0.7-7.7-1.7c-0.1-0.1-0.2-0.2-0.4-0.4c0.3,0,0.5,0,0.8,0.1c-0.3-0.2-0.4-0.3-0.7-0.6c0.3,0.1,0.6,0.1,0.7,0.2
			c2.3,0.9,4.6,1.4,7,1.9c1.4,0.3,2.8,0.4,4.2,0.8c0.8,0.2,1.5,0.1,2.2-0.1c-0.2-0.1-0.5-0.2-0.7-0.2c-0.4,0-0.8,0.1-1.2-0.2
			c-0.4-0.2-0.9-0.1-1.3-0.3c-1.2-0.3-2.4-0.6-3.6-1c-1.9-0.6-3.8-1.3-5.6-1.9c-1-0.4-2-0.8-3-1.2c-0.4-0.1-0.8-0.1-1.3-0.2
			c-0.1,0-0.2,0-0.2-0.1c-0.1,0-0.2-0.1-0.3-0.1c-0.6,0.5-1-0.2-1.6-0.3c0.7,0.4,1.3,0.8,1.9,1.2c0,0.1-0.1,0.1-0.1,0.2
			c-0.6-0.2-1.3-0.3-1.9-0.5c-0.5-0.2-1.1-0.4-1.6-0.6c-0.2-0.1-0.4-0.3-0.6-0.4c-0.1-0.1-0.2-0.1-0.3-0.1c-0.1,0-0.2,0.2-0.1,0.2
			c0.1,0.3,0.2,0.7,0.4,0.8c0.9,0.5,1.8,0.8,2.7,1.3c0.7,0.3,1.4,0.7,2.1,1.1c0.8,0.4,1.6,0.7,2.4,1c1.2,0.4,2.4,0.7,3.6,1.1
			c0.5,0.2,1,0.4,1.5,0.6C89.9,127.9,90.3,128,90.6,128C90.6,128,90.6,128,90.6,128z"/>
		<path d="M141,125.3c4.2-0.5,8.1-1.9,11.7-4.1c0.9-0.5,1.8-1,2.7-1.6c0-0.1-0.1-0.1-0.1-0.2c-0.2,0.1-0.4,0.2-0.7,0.4
			c0-0.1,0.1-0.2,0.1-0.3c-0.8,0.4-1.6,0.7-2.5,1.1c1.1-0.9,2.1-1.8,3.1-2.6c0-0.1-0.1-0.1-0.1-0.2c-0.8,0.3-1.6,0.7-2.5,1
			c-0.5,0.2-1,0.5-1.5,0.8c-0.6,0.3-0.6,0.3-0.8-0.3c0.1,0.6-0.3,0.8-0.7,0.9c-0.2,0-0.3,0.1-0.5,0.2c-1.1,0.9-2.4,1-3.7,1.4
			c-1.3,0.4-2.6,0.6-4,0.9c-0.5,0.1-1.1,0.2-1.6,0.3c-0.1,0-0.2,0-0.3-0.1c-0.3-0.5-0.7-0.4-1.1-0.2c-0.3,0.1-0.6,0.3-0.9,0.5
			c0,0.1,0,0.1,0.1,0.2c0.6,0,1.1-0.1,1.7-0.2c1-0.1,2-0.2,3-0.5c2.5-0.6,5-1.3,7.6-2c0.2,0,0.3-0.1,0.5-0.1c0,0,0,0.1,0,0.1
			c0.1-0.1,0.2-0.3,0.3-0.3c0.9-0.4,1.8-0.8,2.7-1.2c-0.5,1.1-6,3.3-10.3,4.1c0.2,0,0.3,0.1,0.5,0.1c-0.5,0.1-0.8,0.2-1.2,0.3
			c0.1-0.2,0.2-0.2,0.2-0.3c-7.2,1.2-14.4,2.3-21.7,3.5c0,0,0,0.1,0,0.1c0.1,0,0.3,0.1,0.4,0c0.9-0.2,1.8-0.3,2.7-0.5
			c0.7-0.1,1.4-0.1,2.1-0.2c1.3-0.2,2.6-0.4,3.9-0.6c1.4-0.2,2.8-0.4,4.2-0.6c0.7-0.1,1.4-0.3,2.1-0.4c1-0.1,2.1-0.3,3.1-0.4
			c2.6-0.3,5.1-0.8,7.6-1.5c1.2-0.3,2.4-0.7,3.6-1C147.6,123.8,144.3,124.6,141,125.3z"/>
		<path d="M92.6,122.2c0.8-0.3,1.7,0.1,2.4-0.4c-2.5,0.4-4.8-0.1-7.2-0.6c0-0.2,0-0.4,0-0.5c-1.3-0.6-2.6-1.2-3.9-1.8
			c-0.6-0.3-1.2-0.5-1.9-0.7c-0.2-0.1-0.5-0.5-0.6,0.1c-1.2-0.7-2.4-1.3-3.5-2c0,0,0,0.1-0.1,0.1c0.3,0.2,0.6,0.4,0.9,0.6
			c-0.4,0.4-0.2,0.7,0.2,0.9c0.1,0.1,0.2,0.2,0.3,0.3c0.5,0.5,0.7,0.5,1.4,0.3c-0.1-0.2-0.2-0.4-0.4-0.6c0,0,0-0.1,0.1-0.1
			c0.2,0.1,0.4,0.3,0.6,0.4c2.1,1.1,4.1,2.3,6.4,3c1.1,0.3,2.2,0.5,3.3,0.8c0.7,0.2,1.3,0.5,1.9,0.7c0.9,0.3,1.8,0.7,2.7,0.9
			c1.2,0.3,2.3,0.6,3.5,0.9c2,0.5,4,0.8,6,0.8c1.1,0,2.1,0,3.2-0.1c-2.2-0.4-4.4-0.6-6.6-1.2c-1.5-0.4-2.9-0.7-4.4-1
			c-1-0.2-2-0.5-3-0.7c-0.4-0.1-0.9,0-1.3,0C92.6,122.3,92.6,122.2,92.6,122.2z"/>
		<path d="M86,137.2c0.9,0.4,1.8,0.9,2.8,1.1c2.1,0.6,4.2,1.1,6.3,1.7c0.5,0.1,1,0.1,1.5,0.2c0.5,0.1,0.9,0.3,1.5,0.5
			c-7.4,0.2-14-2-19.9-6.4c0.3-0.1,0.6-0.1,0.8,0c0.6,0.2,1.1,0.5,1.6,0.7c1.5,0.5,3.1,1.1,4.6,1.5c2.5,0.7,4.9,1.4,7.4,2.1
			c0.5,0.1,0.9,0.3,1.4,0.4c0,0,0,0.1,0,0.1C91.3,138.5,88.7,137.9,86,137.2C86,137.2,86,137.2,86,137.2z M82.5,136.3
			c0,0,0-0.1,0.1-0.1c-0.8-0.4-1.6-0.7-2.4-1c0,0,0,0.1-0.1,0.1C80.9,135.6,81.7,136,82.5,136.3z"/>
		<path d="M108.4,137.6c-0.6-0.1-1.2-0.2-1.8-0.3c-1.3-0.2-2.7-0.3-4-0.8c-0.1,0-0.2,0-0.2-0.1c0.2,0,0.3,0,0.5,0
			c0.4,0,0.9,0.1,1.2-0.4c0-0.1,0.3-0.1,0.5-0.1c0.7,0.1,1.4,0.2,2.2,0.2c0.2,0,0.3,0,0.5-0.1c-0.4-0.1-0.8-0.2-1.3-0.2
			c-2.2-0.1-4.4-0.6-6.5-1.1c-0.4-0.1-0.8-0.2-1.2-0.3c-0.2-0.1-0.4-0.2-0.5-0.4c-0.3-0.4-1.3-0.6-1.7-0.4c-0.2,0.1-0.4,0.1-0.6,0.1
			c-0.5,0-1-0.1-1.4,0.2c-0.1,0.1-0.3,0.1-0.5,0.1c-2.3-0.1-4.6-0.4-6.9-1c-1.5-0.4-2.9-1-4.3-1.5c-0.9-0.3-1.6-0.7-2.4-1.2
			c-0.3-0.2-0.3-0.3-0.1-0.6c0,0,0,0,0,0c-0.6,0-1.1,0-1.7,0c-0.1,0-0.2,0.1-0.2,0.2c0,0.1,0.1,0.3,0.1,0.3c0.3,0.3,0.6,0.5,0.9,0.8
			c-0.3,0.1-0.6,0.1-0.9,0.2c0,0.1,0,0.1,0,0.2c1.4,0.8,2.9,1.4,4.5,1.8c-1.3-0.5-2.5-1.1-3.8-1.6c0.7-0.2,1.3,0.1,1.8,0.4
			c0.3,0.2,0.6,0.3,0.9,0c-0.4-0.3-0.9-0.6-1.3-0.8c0,0,0,0,0-0.1c0.3,0.1,0.6,0.2,1,0.3c0.5,0.2,1,0.3,1.4,0.5
			c0.4,0.2,0.7,0.5,1.1,0.7c0.9,0.5,1.8,1.1,2.7,1.6c1.5,0.7,3,0.9,4.6,1.1c0.1,0,0.2,0,0.4-0.1c-1.5-0.5-2.9-1-4.4-1.6
			c0,0,0,0,0-0.1c1,0.2,2,0.3,3,0.4c1.3,0.1,2.6,0.2,3.9,0.4c0.6,0.1,1.2,0.1,1.9,0.1c2.1-0.1,3.9,0.8,5.9,1.1
			c0.3,0,0.6,0.1,0.9,0.3c-0.5,0-1.1,0-1.6,0c0,0,0,0.1,0,0.1c0.3,0,0.6,0.1,0.8,0.1c0,0,0,0.1,0,0.1c-0.5-0.1-1-0.2-1.5-0.3
			c0,0.1,0,0.2-0.1,0.3c1.3,0.5,2.5,0.8,3.9,0.9C105.6,137.3,107,137.5,108.4,137.6L108.4,137.6z"/>
		<path d="M153.7,123.5c-4.3,2.5-9,4.2-13.9,5c3.5,0.2,15-4.3,16.6-6.4c-0.6,0.4-1.1,0.7-1.7,1c0,0,0-0.1-0.1-0.1
			c0.1-0.1,0.2-0.2,0.3-0.3c-0.3,0.1-0.5,0.1-0.7,0.2c0.9-0.8,2.1-1.1,2.7-2c-0.2,0-0.5,0-0.7,0.1c-0.5,0.1-0.9,0.3-1.4,0.5
			c-0.3,0.1-0.5,0.3-0.8,0.5c0,0,0,0.1,0.1,0.1c0.1,0,0.3,0,0.6,0c-0.2,0.2-0.4,0.3-0.5,0.3c-1.6,0.7-3.1,1.4-4.7,2.1
			c-0.4,0.2-0.9,0.2-1.3,0.3c-0.9,0.3-1.9,0.6-2.8,0.7c-0.5,0.1-1,0.3-1.5,0.5c-0.5,0.1-1.1,0.4-1.6,0.3c-0.6-0.1-1.2,0.1-1.7,0.2
			c-0.2,0-0.6,0.1-0.6,0.5c0,0.1-0.4,0.2-0.6,0.3c-0.8,0.2-1.6,0.4-2.4,0.5c-0.1,0-0.3,0-0.5,0c0-0.1,0.1-0.3,0.1-0.5
			c-0.9,0-1.9,0-2.7,0.5c0,0.1,0,0.1,0,0.2c0.7-0.1,1.5-0.1,2.2-0.2c0,0.1,0,0.1,0,0.2c-3,0.5-5.9,1.1-8.9,1.6
			c4.5-0.7,9-1.2,13.4-2.3C145,126.2,149.3,124.7,153.7,123.5z"/>
		<path d="M89,96.8c0,0.1,0,0.1,0.1,0.2c0.8,0.3,1.6,0.7,2.4,1c1.1,0.4,2.3,0.8,3.5,1.1c0.7,0.2,1.4,0.2,2.1,0.3
			c1.5,0.3,3,0.7,4.6,1c1.9,0.3,3.9,0.5,5.8,0.6c0.7,0.1,1.4,0,2.1-0.1c-0.2-0.1-0.3-0.2-0.5-0.3c-2.1-0.3-4.2-0.6-6.3-0.9
			c-1-0.2-2.1-0.4-3.1-0.6c-0.1,0-0.2-0.1-0.3-0.2C95.8,98.6,92.4,98.2,89,96.8z"/>
		<path d="M128.6,140.1c-1,0.1-2.1,0-3,0.4c-1.6,0.7-3.1,0.2-4.6,0.2c-1.4-0.1-2.8-0.2-4.3-0.4c-0.5-0.1-1-0.3-1.5-0.3
			c-0.7,0-1.3,0.1-2,0.2c-0.4,0-0.6,0.2-0.2,0.7c-0.6,0.1-1.1,0.1-1.6,0.1c-1.5,0-3,0-4.6-0.1c-0.4,0-0.8,0-1-0.5
			c0-0.1-0.2-0.1-0.4-0.1c-0.6,0-1.1,0-1.6-0.3c-0.5-0.2-1.1-0.2-1.6-0.3c-0.6-0.1-1.2-0.1-1.8-0.1c-0.1,0-0.2,0-0.2,0.1
			c0,0.1,0,0.2,0.1,0.3c0.1,0.1,0.2,0.1,0.4,0.2c1.1,0.1,2.1,0.3,3.2,0.4c0.5,0.1,1.1,0.1,1.5,0.3c1.9,0.9,4,0.4,6,0.4
			c0.9,0,1.8-0.1,2.7-0.2c0.2,0,0.3-0.2,0.5-0.2c0.5-0.1,0.9-0.3,1.4-0.3c0.7,0,1.5,0.1,2.2,0.1c0.7,0,1.4,0,2.1,0
			c1.8,0,3.6,0.2,5.3,0.1c0.9,0,1.9-0.2,2.8-0.4C128.4,140.5,128.5,140.3,128.6,140.1z"/>
		<path d="M156.9,123.3c-0.3,0-0.4,0-0.7,0c-0.3,0.2-0.8,0.5-1.4,0.8c0.1-0.3,0.1-0.5,0.2-0.6c0,0-0.1,0-0.1-0.1
			c-0.1,0.2-0.3,0.3-0.4,0.5c-0.6,0.5-1.2,1-1.9,1.5c-0.4,0.3-0.8,0.7-1.3,1c-0.8,0.4-1.5,0.8-2.3,1.1c-1.6,0.6-3.2,1.2-4.8,1.8
			c-1.2,0.4-2.5,0.8-3.7,1.1c0,0,0,0.1,0,0.4c0.6-0.2,1.1-0.3,1.7-0.5c1.1-0.3,2.3-0.7,3.4-1.1c1.3-0.4,2.6-0.9,3.9-1.3
			c0.6-0.2,1.2-0.2,1.9-0.4c0.6-0.1,1.2-0.3,1.8-0.5c0.5-0.2,0.6-0.5,0.5-1c0.5-0.2,1-0.4,1.5-0.6c-0.8-0.3-1.5,0.4-2.3,0.4
			c0.3-0.2,0.6-0.4,0.9-0.6C154.8,124.7,156,124.1,156.9,123.3z"/>
		<path d="M127,141.7c0.1,0,0.1,0.1,0.2,0.1c2.1,0.1,4.2,0.2,6.3-0.3c1.9-0.4,3.8-0.8,5.7-1.2c0.2,0,0.4-0.1,0.6-0.2
			c0.1-0.1,0.1-0.3,0-0.5c0-0.1-0.3-0.1-0.3-0.1c-0.8,0.5-1.6,0.5-2.5,0.7c-1.5,0.3-3,0.6-4.5,0.8c-1.3,0.2-2.6,0.2-3.9,0.2
			c-0.4,0-0.8,0-1.2,0c-0.2,0-0.4,0.2-0.6,0.2C127,141.6,127,141.7,127,141.7z"/>
		<path d="M78.3,115.4c-0.2,0-0.4-0.1-0.7-0.1c0.1,0.2,0.2,0.5,0.3,0.5c0.5,0.3,1,0.6,1.6,0.8c0.8,0.3,1.7,0.8,2.5,0.8
			c0.8,0,1.4,0.4,2.1,0.6c0.7,0.2,1.4,0.6,2.2,0.8c1.4,0.4,2.8,0.7,4.2,0.9c0.3,0.1,0.6-0.1,0.9-0.2c-2,0-3.9-0.6-5.8-1.4
			c-1.9-0.8-3.8-1.6-5.6-2.4c-0.7-0.3-1.3-0.7-1.8-1.1c-0.1-0.1-0.1-0.4-0.3-0.7c-0.1,0-0.3,0.1-0.5,0.2c0.1,0.2,0.1,0.4,0.3,0.5
			C77.8,114.9,78.1,115.1,78.3,115.4C78.3,115.3,78.3,115.3,78.3,115.4z"/>
		<path d="M127.1,144.7c0-0.7-0.3-0.8-0.8-0.7c-0.9,0.2-1.8,0.4-2.7,0.5c-1.7,0.1-3.3,0.1-5,0.1c-0.7,0-1.4,0-2.1-0.1
			c-1.2-0.2-2.3-0.4-3.5-0.6c-0.6-0.1-1.1-0.3-1.7-0.4c0,0,0,0.1-0.1,0.1c0.3,0.2,0.6,0.4,0.9,0.5c2,0.6,4,1,6.1,0.9
			c1.9,0,3.7-0.1,5.5-0.2c0.9,0,1.8-0.1,2.8-0.1C126.8,144.8,127,144.7,127.1,144.7z"/>
		<path d="M86.1,109c1.5,1.1,3.3,1.7,5.1,2.3c0.8,0.3,1.6,0.7,2.4,1c0.7,0.3,1.4,0.5,2.2,0.7c0.5,0.1,0.9,0,1.2-0.5
			c-0.2,0-0.3-0.1-0.4-0.1c-0.9,0.3-1.7-0.1-2.5-0.3c-1.3-0.4-2.6-1-3.9-1.5c0,0-0.1-0.1-0.2-0.2c0.8,0.1,1.5,0.2,2.3,0.3
			c0-0.1,0-0.1,0-0.2C90.3,109.7,88.3,109.1,86.1,109L86.1,109z"/>
		<path d="M123.2,143.1c-0.6-0.3-7.1-0.9-9-0.8c1.2,1,3,1,4.1,1c0.5,0,1-0.1,1.5,0.1c0.9,0.2,1.9,0.2,2.9,0.2
			C122.9,143.5,123,143.3,123.2,143.1z"/>
		<path d="M140.7,114.8c0.3,0.1,0.5,0.2,0.8,0.2c1,0,2,0,3.1-0.1c1.5-0.1,2.9-0.7,4.3-1.4c-0.1,0-0.2,0-0.3,0
			c-1,0.4-2.1,0.2-3.2,0.5c-0.8,0.2-1.7,0-2.6,0c0,0,0,0-0.1,0c-0.7,0.2-1.3,0.4-2,0.5C140.7,114.6,140.7,114.7,140.7,114.8z"/>
		<path d="M87.5,104.3c0.7,0.4,1.5,0.7,2.2,1.1c0.4,0.1,0.8,0.1,1.2,0.2c0.4,0.1,0.7,0.3,1.1,0.4c0.3,0.1,0.6,0.3,0.9,0.4
			c0.8,0.3,1.7,0.6,2.5,0.9c0,0.1,0,0.1,0,0.2c-0.6,0-1.1,0-1.7,0c-1.5-0.1-2.9-0.7-4.3-1.3c-1.2-0.5-2.4-1.1-3.6-1.6
			c0.2,0.1,0.4,0.2,0.6,0.4c1.2,0.6,2.3,1.3,3.5,1.9c1.4,0.7,2.9,1.1,4.5,1.1c0.6,0,1.3-0.3,1.8-0.6c-0.9-0.3-1.9-0.5-2.8-0.8
			c-1.2-0.4-2.5-0.9-3.7-1.4C88.9,104.7,88.2,104.5,87.5,104.3L87.5,104.3z"/>
		<path d="M128.1,119.3c0.8,0.8,7.6,0.3,10.3-0.6c-0.7-0.2-1.3,0.2-1.9,0.1c-0.6-0.1-1.2,0.3-1.8,0.2c0.3-0.1,0.5-0.1,0.7-0.2
			C133,118.9,130.5,119.1,128.1,119.3z"/>
		<path d="M83.6,97.1c0,0-0.2,0.1-0.4,0.3c0.4,0.4,0.7,0.9,1,1.2c1.8,1.5,4,2,6.3,2.1c0.4,0,0.8,0,1.1,0.1c-1.4-0.4-2.8-0.8-4.2-1.2
			C85.9,99,84.7,98.2,83.6,97.1z"/>
		<path d="M77.4,132c1.2,1.1,2.5,1.8,3.8,2.5c0.4,0.2,0.9,0.5,1.3,0.7c0.3,0.1,0.6,0.3,1,0.1c0.1-0.1,0.3,0,0.6,0
			c-0.2-0.1-0.4-0.3-0.5-0.4c-1.7-0.9-3.3-1.9-5-2.8C78.3,131.9,77.9,131.7,77.4,132z"/>
		<path d="M119.9,101.8c1.4,0,2.8,0,4.2,0c0.8,0,1.5,0,2.3,0c0.8-0.1,1.6-0.3,2.4-0.4c1.6-0.3,3.2-0.6,4.7-0.9
			c0.3-0.1,0.6-0.2,0.9-0.3c0-0.1,0-0.1,0-0.2c-0.5,0.1-1.1,0.1-1.6,0.3c-1.4,0.5-2.9,0.6-4.3,0.8c-0.9,0.1-1.8,0.3-2.7,0
			c-0.2,0-0.4,0-0.5,0.1c-1.1,0.6-2.3,0.4-3.5,0.5C121.1,101.7,120.5,101.7,119.9,101.8C119.9,101.7,119.9,101.8,119.9,101.8z"/>
		<path d="M131,103.5c-1.2,0.1-2.4,0.2-3.6,0.4c-2.3,0.3-4.6,0.6-6.9,0.5c-0.6,0-1.3,0-1.9-0.1c-0.1,0-0.2,0-0.4,0
			c0,0.1,0,0.1,0,0.2c0.2,0.1,0.3,0.2,0.5,0.2c1.5,0,3.1,0,4.6-0.1c1.3-0.1,2.6-0.2,3.8-0.4c1.3-0.2,2.6-0.3,3.9-0.5
			C131,103.6,131,103.6,131,103.5z"/>
		<path d="M84.4,135.1c0.3,0.2,0.6,0.4,1,0.6c0.3,0.2,0.6,0.2,0.9,0.4c0.8,0.5,1.2,0.6,2.1,0.8c0.7,0.1,1.4,0.4,2.1,0.6
			c1,0.4,2,0.5,3,0.6c0.1,0,0.2,0,0.2-0.1c-0.2,0-0.5,0-0.7-0.1c-1.2-0.7-2.7-0.7-3.9-1.2c-1.4-0.6-2.9-1.1-4.4-1.7c0,0-0.1,0-0.2,0
			C84.4,135,84.4,135.1,84.4,135.1z"/>
		<path d="M77,92.9c0.5,0.4,0.8,0.6,1.1,0.9c0.9,0.8,1.9,1.2,3,1.6c0.5,0.2,1.1,0.4,1.6,0.6c0.5,0.1,0.9,0.1,1.4,0.2
			c0-0.1,0-0.1,0-0.2c-0.7-0.3-1.4-0.5-2-0.8c-1.2-0.6-2.4-1.2-3.6-1.8c-0.3-0.1-0.5-0.3-0.8-0.4C77.5,92.8,77.3,92.9,77,92.9z"/>
		<path d="M134.8,99.8c0,0.2-0.1,0.3-0.1,0.6c1.9,0.3,3.5-0.6,5.3-0.9c-1.2-0.8-2.4-0.2-3.7-0.1C135.8,99.5,135.3,99.6,134.8,99.8z"
			/>
		<path d="M139.6,102c-0.6,0.1-1.2,0.2-1.8,0.3c0,0,0-0.1,0-0.1c0,0,0.1-0.1,0.2-0.1c-0.9,0.1-1.7,0.1-2.6,0.2c-0.6,0-1.1,0-1.7,0
			c-0.3,0-0.7,0-0.8,0.4c-0.1,0.3,0.4,0.6,0.8,0.6c0.6-0.1,1.2-0.2,1.7-0.3c1.1-0.2,2.3-0.3,3.4-0.5c0.2,0,0.5-0.2,0.7-0.3
			C139.6,102.1,139.6,102.1,139.6,102z"/>
		<path d="M95.9,109.4c0.1,0.2,0.2,0.3,0.3,0.4c-0.5,0.2-0.9,0.2-1.3,0c-0.9-0.3-1.7-0.6-2.5-0.9c-0.3-0.1-0.5-0.2-0.8-0.2
			c0.1,0.1,0.1,0.1,0.2,0.2c1.1,0.4,2.3,0.9,3.4,1.3c0.4,0.1,0.9,0.2,1.2-0.3c0-0.1,0.2-0.1,0.3,0c0.9,0.3,1.9,0.5,2.8,0.8
			c1,0.2,2,0.4,3,0.6c0.1,0,0.2,0,0.2,0c0,0,0.1-0.1,0.1-0.1c-0.2-0.1-0.3-0.3-0.5-0.3c-1.3-0.3-2.6-0.5-3.8-0.8
			c-0.7-0.2-1.4-0.4-2.2-0.6C96.3,109.4,96.1,109.4,95.9,109.4z"/>
		<path d="M117.9,139.1c2.4-0.4,4.7,0.2,7.1,0.4c-0.2-0.3-0.5-0.4-1.4-0.5c-0.5-0.1-1-0.2-1.4-0.3c0.1-0.6,0-0.7-0.6-0.7
			c-0.6,0-1.3-0.1-1.8,0.5c-0.1,0.1-0.5,0.1-0.7,0.1C118.7,138.7,118.3,138.7,117.9,139.1z"/>
		<path d="M131.5,138.4c0.4,0.2,0.6,0.3,0.9,0.4c1.6,0.3,3-0.2,4.5-0.8c0.1-0.1,0.2-0.3,0.3-0.4c-0.2,0-0.3-0.1-0.5-0.1
			c-1.6,0.2-3.2,0.5-4.7,0.8C131.8,138.3,131.7,138.3,131.5,138.4z"/>
		<path d="M111.8,121.1c-1.6-0.2-3.2-0.4-4.8-0.6c0-0.1,0-0.1,0-0.2c0.1-0.1,0.3-0.2,0.5-0.3c-0.5,0-0.9,0-1.3,0
			c-0.9,0.1-1.7-0.1-2.5-0.4c-0.2-0.1-0.5-0.3-0.6,0.2c0,0-0.2,0.1-0.3,0.1c-0.2,0-0.4-0.1-0.7-0.1c0,0.1,0,0.1,0,0.2
			c0.3,0.1,0.6,0.3,0.9,0.3c1.3,0.1,2.5,0.2,3.8,0.4c1.2,0.1,2.4,0.3,3.6,0.5c0.5,0.1,1,0.1,1.6,0.2
			C111.8,121.1,111.8,121.1,111.8,121.1z"/>
		<path d="M147.6,127.3c-0.2,0.1-0.4,0.2-0.7,0.3c-1,0.4-1.9,0.7-3,0.7c-0.8,0-1.7,0.3-2.5,0.4c-1.6,0.3-3.1,0.5-4.7,0.9
			c0.1,0,0.2,0.2,0.4,0.1c1.4-0.2,2.8-0.3,4.2-0.6c1.8-0.4,3.7-0.8,5.5-1.3C147,127.8,147.3,127.6,147.6,127.3
			C147.6,127.4,147.6,127.3,147.6,127.3z"/>
		<path d="M116.9,130c-2.5,0.1-5,0.2-7.5,0.2c2.1,0.4,4,0.4,6,0.3c0.2,0,0.3,0,0.5,0C116.3,130.6,116.7,130.5,116.9,130z"/>
		<path d="M94.8,117.2c-0.3-0.2-0.6-0.5-0.9-0.6c-1.3-0.6-2.7-1.2-4-1.8c-0.2-0.1-0.4-0.3-0.6-0.5c-0.2,0.2-0.2,0.5,0.1,0.6
			c0.7,0.4,1.3,0.8,2,1.1c1.1,0.4,2.2,0.8,3.3,1.1C94.7,117.3,94.7,117.2,94.8,117.2z"/>
		<path d="M86,122.9c0.4,0.2,0.7,0.2,1.1,0.1c0.5,0,1.1,0.3,1.6,0.4c0.7,0.2,1.3,0.3,2,0.5c0.3,0.1,0.6,0.1,0.9,0.2
			c0,0,0-0.1,0.1-0.1c-0.2-0.1-0.5-0.3-0.7-0.4c-1.2-0.4-2.3-0.8-3.5-1.1c-0.2-0.1-0.5-0.1-0.7-0.1c-0.2,0-0.5,0-0.4,0.4
			C86.2,122.8,86.1,122.9,86,122.9z"/>
		<path d="M123.6,122.4c3.2-0.2,6.5-0.4,9.6-1.4c-3.2,0.4-6.4,0.8-9.7,1.2C123.6,122.3,123.6,122.4,123.6,122.4z"/>
		<path d="M139.6,114c-1,0.1-2,0.1-3,0.2c0-0.1-0.1-0.2-0.2-0.2c-0.6,0-1.2,0-1.8,0c0,0.1,0,0.1,0,0.2c0.1,0.1,0.2,0.1,0.4,0.2
			c0,0,0,0.1,0,0.1c-1.2,0.2-2.4,0.4-3.6,0.6c0,0,0,0.1,0,0.1c2.7-0.3,5.5-0.6,8.2-0.9C139.7,114.1,139.6,114,139.6,114z"/>
		<path d="M105.7,139.7c0.7,0.1,1.4,0.1,2,0.2c1.6,0,3.3,0.1,4.9,0.1c0.4,0,0.7,0,1.1-0.1c-2.7-0.5-5.3-0.2-8-0.3
			C105.7,139.6,105.7,139.7,105.7,139.7z"/>
		<path d="M112.8,126.7c-2.6,0.3-5.2,0.1-7.8-0.2c0,0.1,0,0.1,0,0.2c0.5,0.1,1,0.3,1.5,0.3c2,0.2,4.1,0.4,6.1,0
			c0.1,0,0.2-0.1,0.4-0.1C112.8,126.8,112.8,126.7,112.8,126.7z"/>
		<path d="M143.8,118.4c-1.2,0.2-2.4,0.3-3.6,0.5c0,0.2,0,0.3-0.1,0.5c1,0.3,1.9,0,2.9-0.2c0.2,0,0.3-0.2,0.4-0.4
			C143.5,118.7,143.6,118.6,143.8,118.4z"/>
		<path d="M131.6,97.7c-3,0.3-6,0.7-9,1C125.6,98.7,128.6,98.5,131.6,97.7z"/>
		<path d="M136.5,116.8c-1.3,0-2.5,0-3.8,0c0,0,0-0.1,0-0.1c0.1,0,0.3,0,0.4-0.1c0,0,0-0.1,0-0.1c-0.6,0-1.1-0.1-1.7-0.1
			c0.1,0.1,0.1,0.2,0.3,0.3c-0.4,0-0.7,0-1.1,0.1C132.7,117.2,134.6,117.2,136.5,116.8z"/>
		<path d="M86.1,109c-0.1-0.1-0.2-0.3-0.4-0.5c0-0.1,0.1-0.3,0.2-0.4c-1.1-0.3-2.1-0.5-3.1-0.8c0.4,0.4,0.9,0.8,1.4,1.2
			c0.3,0.2,0.8,0.2,1.2,0.2C85.5,108.8,85.8,108.9,86.1,109C86.1,109,86.1,109,86.1,109z"/>
		<path d="M117.5,114.1c-1-0.6-1.9-0.6-2.7-0.6c-0.1,0-0.3,0.1-0.4,0.2c-0.1,0.1-0.2,0.2-0.2,0.3c0.1,0.1,0.3,0.2,0.4,0.2
			c0.8,0.1,1.6,0.1,2.3,0.1C117.1,114.3,117.3,114.2,117.5,114.1z"/>
		<path d="M128.1,107.5c-0.5-0.6-4.5-0.4-5.2,0.2c0.1,0.1,0.3,0.2,0.4,0.1c1.5-0.4,3.1-0.4,4.6-0.3
			C127.9,107.5,128,107.5,128.1,107.5z"/>
		<path d="M150.1,123.2c-0.2,0-0.4-0.1-0.5-0.1c-1,0.3-2,0.7-3,1.1c-0.1,0-0.1,0.2-0.2,0.2c0.1,0,0.2,0.1,0.2,0.1
			c1,0,1.9-0.3,2.7-0.7c0.2-0.1,0.4-0.3,0.7-0.5C150.1,123.3,150.1,123.3,150.1,123.2z"/>
		<path d="M136.2,107.7c1.4,0,2.7,0,4.1,0c0.1-0.2,0.1-0.3,0.2-0.5c-1.5,0.1-2.9-0.1-4.3,0.3C136.2,107.5,136.2,107.6,136.2,107.7z"
			/>
		<path d="M117.6,135.6c0.9,0,1.7,0,2.6,0c0.2,0,0.3-0.1,0.5-0.2c-0.1-0.2-0.2-0.4-0.4-0.4c-0.5-0.1-1.1-0.1-1.6,0
			c-0.3,0-0.6,0.1-0.8,0.2c-0.1,0-0.2,0.2-0.3,0.3C117.5,135.5,117.5,135.5,117.6,135.6z"/>
		<path d="M131.5,123.6c0.9,0,1.9,0,2.8,0c0.1-0.4,0-0.6-0.4-0.7c-0.7,0-1.4,0-2,0.1c-0.2,0-0.3,0.2-0.5,0.4
			C131.5,123.5,131.5,123.6,131.5,123.6z"/>
		<path d="M94.2,128.5c0.8,0.3,6.2,1.3,6.9,1c-2.4-0.4-4.6-0.8-6.9-1.2C94.2,128.4,94.2,128.4,94.2,128.5z"/>
		<path d="M107.9,138.8c-1.8,0-3.6-0.9-5.5-0.6c0,0.1,0,0.1,0,0.2c1.8,0.2,3.7,0.4,5.5,0.6C107.9,139,107.9,138.9,107.9,138.8z"/>
		<path d="M139.2,96c-0.9,0.2-1.8,0.4-2.7,0.7c-0.3,0.1-0.6,0.2-0.9,0.3c0,0,0,0.1,0,0.1c0.7-0.1,1.4-0.3,2.1-0.4
			c0.9-0.1,1.7-0.5,2.6-0.2c0.1,0,0.2-0.1,0.3-0.2c-0.1-0.1-0.2-0.2-0.2-0.3C140,96,139.6,96,139.2,96C139.2,96,139.2,96,139.2,96z"
			/>
		<path d="M105.7,123.8c1.8,0.4,3.7,0.6,5.6,0.6c0-0.1,0-0.1,0-0.2c-1.9-0.2-3.7-0.4-5.6-0.6C105.7,123.7,105.7,123.8,105.7,123.8z"
			/>
		<path d="M118.9,120.8c-1,0.1-2.1-0.4-3.2,0.5c0.3,0.1,0.4,0.2,0.5,0.1c0.8,0,1.6-0.1,2.4-0.1c0.1,0,0.3-0.2,0.4-0.3
			C119,120.9,119,120.8,118.9,120.8z"/>
		<path d="M147.5,119.6c-1.1,0.3-2.2,0.6-3.3,0.9c-0.1,0-0.3,0-0.4,0c-0.1,0-0.2,0.1-0.3,0.2c0.1,0.1,0.2,0.2,0.3,0.2
			c0.3,0,0.6,0,0.9-0.1c1-0.3,1.9-0.7,2.9-1C147.5,119.7,147.5,119.6,147.5,119.6z"/>
		<path d="M100,121.7c0.3,0.5,4.4,1,5.7,0.7C103.9,122.1,102,121.9,100,121.7z"/>
		<path d="M129,137.7c-0.1,0-0.1,0-0.2,0c-0.3-0.1-0.5,0.1-0.8-0.2c-0.2-0.2-0.7,0-1.1,0.1c-0.8,0.1-1.7,0.2-2.6,0.2
			c0.2,0.1,0.3,0.2,0.5,0.2c1.4-0.1,2.8-0.2,4.2-0.2C129,137.8,129,137.8,129,137.7z"/>
		<path d="M130.3,129.9c0.4,0,0.8,0,1.2,0c0.3,0,0.6,0,0.9-0.1c0.3-0.1,0.4-0.3,0.1-0.7c-0.8,0.3-1.7,0.2-2.4,0.7
			C130.2,129.8,130.2,129.8,130.3,129.9z"/>
		<path d="M89.5,107.5c-0.5-0.3-1-0.6-1.6-0.8c-0.6-0.2-1.2-0.3-1.8-0.4c1.4,0.6,2.9,1.3,4.3,1.9c0,0,0,0,0-0.1
			C90.1,108,89.7,107.8,89.5,107.5C89.4,107.6,89.5,107.5,89.5,107.5z"/>
		<path d="M84.8,134.1c1.5,0.8,5.8,2,6.5,1.8C89.1,135.3,87,134.7,84.8,134.1z"/>
		<path d="M119.2,127.6c-1.1,0.2-2.2-0.6-3.1,0c0.5,0.2,1,0.3,1.6,0.5C118.1,128.2,119,128,119.2,127.6z"/>
		<path d="M132.9,143.7c-1.1,0-4.8,0.6-5,1c1.7-0.3,3.4-0.5,5-0.8C132.9,143.8,132.9,143.8,132.9,143.7z"/>
		<path d="M148.2,114.5c-0.5,0.1-0.9,0.1-1.4,0.2c-1.8,0.3-3.5,0.7-5.3,1.1c1.1-0.2,2.2-0.3,3.3-0.5c0.8-0.1,1.6-0.3,2.3-0.4
			C147.6,114.7,147.9,114.6,148.2,114.5C148.2,114.5,148.2,114.5,148.2,114.5z"/>
		<path d="M85.5,100c0.4,0.2,0.9,0.4,1.2,0.6c1.1,0.6,2.2,1,3.4,1.3c0.4,0.1,0.7,0.3,1.1,0.4c0.4,0.1,0.8,0.2,1.2,0.2
			c-0.7-0.2-1.3-0.4-2-0.6c-1.4-0.5-2.8-1.1-4.2-1.6C86,100.2,85.8,100.1,85.5,100L85.5,100z"/>
		<path d="M104.7,139.3c-2-0.1-4.1-0.2-6.1-0.3C100.6,139.5,102.6,139.5,104.7,139.3z"/>
		<path d="M93.4,102.9c1.9,0.9,4.1,1.1,6.1,1.8c0,0,0-0.1,0-0.1C97.5,103.9,95.5,103.4,93.4,102.9z"/>
		<path d="M139.3,115.4c0,0.2,0,0.3,0,0.6c0.7,0,1.3-0.1,2-0.1C141,115.3,140.1,115.1,139.3,115.4z"/>
		<path d="M123.1,119.7c1.2,0.5,2,0.5,2.4-0.1C124.7,119.3,124,119.5,123.1,119.7z"/>
		<path d="M133.6,136.2c0.9,0.1,1.5,0,2.3-0.5c-0.2-0.1-0.3-0.2-0.4-0.2C134.7,135.4,133.6,135.9,133.6,136.2z"/>
		<path d="M148.9,129.1c-1,0.2-1.8,0.4-2.8,0.6C147,130.1,148.7,129.7,148.9,129.1z"/>
		<path d="M149.1,131.2c-0.6,0.2-1.1,0.3-1.7,0.5c-1.1,0.3-2.2,0.7-3.2,1.1c0.1,0,0.3,0,0.4,0c1.5-0.5,2.9-1,4.4-1.4
			C149,131.4,149,131.3,149.1,131.2C149.1,131.2,149.1,131.2,149.1,131.2z"/>
		<path d="M143.6,101.5c-0.5,0.1-1,0.2-1.5,0.4c-0.1,0-0.1,0.2-0.2,0.3c0.1,0.1,0.2,0.2,0.3,0.2c0.3,0,0.6,0,0.9-0.1
			C143.5,102.2,143.8,102.1,143.6,101.5z"/>
		<path d="M104,116.9c-0.1-0.1-0.3-0.2-0.4-0.2c-0.7-0.1-1.4-0.1-2.2-0.2c-0.1,0-0.2,0.1-0.4,0.2c0.1,0.1,0.2,0.2,0.3,0.2
			c0.7,0.1,1.4,0.1,2.1,0.2c0.1,0,0.3,0,0.4,0C104,116.9,104,116.9,104,116.9z"/>
		<path d="M133.9,126.2c0.9,0.2,1.8,0.2,2.6-0.4c0-0.1,0-0.1,0-0.2c-0.9,0.2-1.7,0.3-2.6,0.5C133.9,126.1,133.9,126.2,133.9,126.2z"
			/>
		<path d="M124.2,136.9c-1.1,0-2.1-0.1-3.1,0.4c0,0.1,0,0.1,0,0.2c1-0.1,2.1-0.2,3.1-0.4C124.2,137,124.2,137,124.2,136.9z"/>
		<path d="M141.9,97.6c-0.3-0.3-1.4-0.5-1.8-0.3C140.5,97.9,141.3,98.1,141.9,97.6z"/>
		<path d="M132,131.8c-0.6-0.1-1.1-0.2-1.6-0.3c0,0-0.1,0.1-0.1,0.1c0.1,0.2,0.1,0.4,0.3,0.5C130.9,132.4,131.6,132.2,132,131.8z"/>
		<path d="M127.4,129.9c0,0.2,0.1,0.4,0.1,0.6c-0.1,0.1-0.2,0.2-0.5,0.4c0.6,0,1.1,0.1,1.6,0.1c0.1,0,0.2-0.1,0.3-0.2
			c-0.1-0.1-0.2-0.2-0.3-0.2c-0.2-0.1-0.4-0.1-0.6-0.1c-0.1-0.2-0.3-0.4-0.4-0.6C127.5,129.8,127.5,129.9,127.4,129.9z"/>
		<path d="M143.5,102.8c-0.7,0.1-1.3,0.3-2,0.4c0,0.1,0,0.1,0,0.2c0.6,0,1.2,0,1.8,0c0.1,0,0.2-0.3,0.3-0.4
			C143.6,102.9,143.6,102.9,143.5,102.8z"/>
		<path d="M156.1,118c1.3-0.7,1.3-0.7,1.4-1.1c-0.6-0.2-1,0.2-1.4,0.5C156,117.4,156.1,117.7,156.1,118z"/>
		<path d="M135.1,107.4c-0.2-0.2-0.3-0.4-0.4-0.4c-0.6,0.1-1.3-0.1-1.9,0.3c0,0,0,0.1,0,0.1C133.5,107.4,134.2,107.4,135.1,107.4z"
			/>
		<path d="M138.2,136.6c1.7-0.1,3.3-0.5,4.9-0.8c0-0.1,0-0.1,0-0.2C141.4,135.9,139.8,136.3,138.2,136.6z"/>
		<path d="M85.2,104.1c-0.1-0.1-0.1-0.1-0.2-0.2c0.2-0.1,0.3-0.1,0.6-0.2c-0.3-0.2-0.5-0.4-0.7-0.4c-0.4,0-0.8,0.1-1.2,0.1
			c0,0-0.1,0-0.2,0C84.1,103.6,84.6,103.9,85.2,104.1C85.1,104.2,85.1,104.1,85.2,104.1z"/>
		<path d="M127,113.3c-0.6,0-1.2-0.1-1.8-0.1c0,0,0,0.1,0,0.1C126.4,114,126.6,114,127,113.3z"/>
		<path d="M94.3,100.7c2.2,1.1,2.7,1.2,3.3,0.9c-0.5-0.1-1.1-0.2-1.7-0.4C95.4,101.1,94.8,100.9,94.3,100.7z"/>
		<path d="M94.1,135.3c0.5,0.5,2.2,1.1,2.6,0.8C95.9,135.8,95,135.6,94.1,135.3z"/>
		<path d="M129.3,109.9c-0.6,0.1-1.1,0.2-1.7,0.3C128.4,110.6,129,110.6,129.3,109.9z"/>
		<path d="M97.3,139.7c-1-0.2-1.9-0.4-2.9-0.5c0,0.1,0,0.1,0,0.2c1,0.2,1.9,0.3,2.9,0.5C97.3,139.8,97.3,139.7,97.3,139.7z"/>
		<path d="M113.7,127.7c-0.8,0.1-1.7,0.2-2.5,0.4C112.1,128.2,112.9,128,113.7,127.7z"/>
		<path d="M98.2,116.3c0.4-0.1,0.6-0.1,0.9-0.1c0.3,0,0.5,0,1,0c-0.2-0.2-0.3-0.4-0.4-0.4C99.2,115.7,98.7,115.8,98.2,116.3z"/>
		<path d="M121.3,122.6c0.7-0.1,1.4-0.1,2.1-0.2c0-0.1,0-0.1,0-0.2c-0.7,0.1-1.4,0.1-2.1,0.2C121.3,122.5,121.3,122.5,121.3,122.6z"
			/>
		<path d="M80.3,121.6c-0.3-0.1-0.6-0.3-1-0.4c-0.1,0.2-0.2,0.4-0.4,0.6c0.4,0,0.9,0,1.3,0C80.2,121.7,80.2,121.6,80.3,121.6z"/>
		<path d="M108.4,137.6c1.1,0.2,2.3,0.2,3.4,0C110.7,137.6,109.5,137.6,108.4,137.6C108.4,137.6,108.4,137.6,108.4,137.6z"/>
		<path d="M98,130.9c0.4,0.1,0.8,0.1,1.3,0.2c-0.1-0.2-0.2-0.5-0.3-0.5C98.6,130.6,98.2,130.4,98,130.9z"/>
		<path d="M107.7,118.6c-1-0.2-2-0.5-2.9-0.1C105.7,118.5,106.7,118.6,107.7,118.6z"/>
		<path d="M90.8,124.7c0.8,0.2,1.6,0.5,2.3,0.7c0,0,0-0.1,0-0.1c-0.8-0.2-1.6-0.5-2.3-0.7C90.9,124.6,90.8,124.7,90.8,124.7z"/>
		<path d="M140.6,125.3c-0.9,0.1-1.9,0.2-2.8,0.3c0,0,0,0.1,0,0.1c0.9-0.1,1.8-0.2,2.8-0.2C140.6,125.4,140.6,125.4,140.6,125.3z"/>
		<path d="M129.3,144.8c0.9-0.1,1.9-0.3,2.8-0.4c0,0,0-0.1,0-0.1c-0.9,0.1-1.9,0.3-2.8,0.4C129.2,144.7,129.3,144.7,129.3,144.8z"/>
		<path d="M85.5,100c-0.8-0.5-1.6-0.9-2.5-1.4c0,0,0,0,0,0.1c0.4,0.2,0.7,0.5,1.1,0.7c0.4,0.2,0.8,0.5,1.2,0.7
			C85.4,100.1,85.5,100,85.5,100C85.5,100,85.5,100,85.5,100z"/>
		<path d="M96.2,138.6c-0.8-0.2-1.5-0.3-2.3-0.5c0,0,0,0.1,0,0.1c0.8,0.2,1.5,0.3,2.3,0.5C96.2,138.7,96.2,138.6,96.2,138.6z"/>
		<path d="M129,127.8c0.3,0.1,0.7,0.3,1.1,0.4c-0.1-0.2-0.2-0.5-0.3-0.5C129.5,127.5,129.1,127.4,129,127.8z"/>
		<path d="M122.2,118.1c-0.6,0-1.3-0.1-1.9-0.1c0,0,0,0.1,0,0.1c0.6,0,1.3,0.1,1.9,0.1C122.2,118.2,122.2,118.2,122.2,118.1z"/>
		<path d="M140.8,135.7c-0.7,0.2-1.4,0.3-2.1,0.5c0,0,0,0.1,0,0.1c0.7-0.1,1.4-0.3,2.1-0.4C140.9,135.8,140.8,135.8,140.8,135.7z"/>
		<path d="M87.5,104.3c-0.4-0.2-0.8-0.4-1.2-0.5c0,0,0,0.1,0,0.1C86.5,104.3,87,104.4,87.5,104.3C87.5,104.3,87.5,104.3,87.5,104.3z
			"/>
		<path d="M131.2,106.4c-0.4,0-0.8,0.1-1.1,0.1c0,0,0,0.1,0,0.1c0.4,0,0.8,0,1.2,0C131.3,106.6,131.3,106.5,131.2,106.4z"/>
		<path d="M141.9,108.6c-0.8,0-1.5,0-2.3,0c0,0.1,0,0.1,0,0.2C140.4,108.7,141.2,108.7,141.9,108.6
			C141.9,108.6,141.9,108.6,141.9,108.6z"/>
		<path d="M143.5,132.9c-0.6,0.1-1.2,0.3-1.9,0.4c0,0,0,0,0,0.1c0.6-0.1,1.3-0.3,1.9-0.4C143.5,133,143.5,133,143.5,132.9z"/>
		<path d="M111.2,143.1c-0.6,0-1.1,0-1.6,0c0,0,0,0.1,0,0.1c0.2,0,0.5,0.1,0.7,0.1C110.7,143.3,110.9,143.2,111.2,143.1z"/>
		<path d="M87.3,123.4c0.6,0.2,1.3,0.5,1.9,0.7c0,0,0-0.1,0-0.1C88.7,123.8,88,123.6,87.3,123.4C87.3,123.4,87.3,123.4,87.3,123.4z"
			/>
		<path d="M98.2,138.9c-0.5-0.1-1-0.2-1.5-0.2c0,0,0,0.1,0,0.1c0.5,0.1,1,0.2,1.5,0.3C98.2,139,98.2,139,98.2,138.9z"/>
		<path d="M117.6,117.7c-0.4,0-0.9,0-1.3-0.1c0,0,0,0.1,0,0.1c0.4,0,0.9,0.1,1.3,0.1C117.6,117.8,117.6,117.8,117.6,117.7z"/>
		<path d="M109.6,119.1c0.6,0.1,1.2,0.2,1.8,0.3c0,0,0-0.1,0-0.1C110.8,119.2,110.2,119.1,109.6,119.1
			C109.7,119.1,109.7,119.1,109.6,119.1z"/>
		<path d="M130.9,78.8c0.9,0.7,1.9,1.4,2.8,2.1c1.4,1,2.8,1.9,4.2,2.9c1.8,1.3,3.5,2.6,5.2,4c0.6,0.5,0.9,1.2,1.4,1.9
			c0.1,0.1,0.2,0.1,0.4,0.2c0-0.2,0.2-0.3,0.1-0.5c-0.1-0.4-0.2-0.9-0.3-1.3c-0.2-0.8-0.7-1.3-1.2-1.9c-1.3-1.4-3-2.5-4.5-3.6
			c-0.9-0.6-1.9-1.1-2.8-1.6c0,0,0,0,0,0c-0.9-0.4-1.7-0.9-2.6-1.3c-0.2-0.1-0.4-0.1-0.7-0.2C132.2,79.2,131.6,79,130.9,78.8
			C131,78.7,130.9,78.8,130.9,78.8z"/>
		<path d="M132.3,82c0.2,0.2,0.5,0.4,0.7,0.6c1.2,0.9,2.4,1.7,3.5,2.6c0.7,0.6,1.4,1.2,2.2,1.8c0.3,0.3,0.7,0.5,1.1,0.7
			c0.1,0.1,0.3,0,0.5,0c0.1,0,0.1-0.3,0-0.4c-0.5-1-1.3-1.7-2.1-2.4c-0.4-0.3-0.7-0.6-1.1-0.9c-1.2-0.8-2.5-1.5-4-1.8
			c-0.2,0-0.4-0.2-0.6-0.4C132.4,81.9,132.4,82,132.3,82z"/>
		<path d="M115.6,84.2c0.4,0.3,0.9,0.6,1.3,0.9c0.3,0.2,0.5,0.4,0.7,0.6c0.6,0.8,1.4,1.3,2.2,1.9c0.4,0.3,0.7,0.6,1.1,0.9
			c0.2,0.1,0.4,0.1,0.7,0.1c0-0.2,0.1-0.6,0-0.7c-0.5-0.6-1-1.3-1.6-1.7c-0.9-0.6-2-1.1-3-1.6c-0.2-0.1-0.4-0.2-0.6-0.3
			c-0.2-0.1-0.5-0.1-0.8-0.1C115.6,84.1,115.6,84.2,115.6,84.2z"/>
		<path d="M86.3,70.3c-2.1,0-3.9,0.5-5.5,2c-1.5,1.4-2.6,2.9-3.2,4.8C79.5,73.6,82.3,71.2,86.3,70.3z"/>
		<path d="M91.5,70.7c1.6-0.2,3.1-0.4,4.6-0.5c1.5-0.1,3.1-0.1,4.6-0.2c1.5-0.1,3,0.5,4.5,0.2c-1.3-0.1-2.6-0.5-3.9-0.6
			c-1.2-0.1-2.4-0.1-3.6-0.1c-1.2,0-2.5,0.1-3.7,0.3c-0.8,0.1-1.6,0.4-2.3,0.6C91.7,70.5,91.7,70.6,91.5,70.7z"/>
		<path d="M130.5,83.2c0.1,0.1,0.1,0.3,0.2,0.4c1.3,0.9,2.6,1.8,3.8,2.7c0,0,0,0,0,0c0.2,0.1,0.4,0.6,0.6,0.2
			c0.1-0.2,0.1-0.8-0.1-0.9c-0.6-0.5-1.2-1-1.9-1.4c-0.8-0.4-1.6-0.7-2.4-1.1C130.6,83.1,130.6,83.2,130.5,83.2z"/>
		<path d="M93.6,71.7c2.9,0,5.8,0,8.7,0c0,0,0-0.1,0-0.1c-2.6-0.8-5.2-0.9-7.8-0.4C94.1,71.3,93.9,71.5,93.6,71.7z"/>
		<path d="M85.5,72.3c-1.1,0.3-2.3,0.1-3.3,0.8c-0.8,0.6-1.3,1.4-1.4,2.4c0,0.1-0.1,0.2-0.1,0.3c0,0.2,0.1,0.3,0.2,0.5
			c0.8-1.5,1.8-2.7,3.3-3.3c0.2-0.1,0.5-0.1,0.8-0.2c0.2-0.1,0.4-0.2,0.6-0.3C85.6,72.5,85.6,72.4,85.5,72.3z"/>
		<path d="M94.8,73.1c1,0.4,4.4,0.6,5.2,0.2C99.6,72.3,96.6,72.1,94.8,73.1z"/>
		<path d="M102,78.8c-2.5-0.6-5-0.7-7,1.3c-0.4,0.4-0.4,0.4-0.2,0.9C96.7,78.7,99.4,78.9,102,78.8z"/>
		<path d="M123.2,77.6c0.1,0.1,0.2,0.3,0.3,0.3c1.4,0.5,2.9,0.9,4.4,1.4c0.3,0.1,0.5,0.1,0.6-0.3C126.8,78.1,125.2,77.5,123.2,77.6z
			"/>
		<path d="M124.9,87.3c0.3,0.3,0.6,0.6,0.8,0.9c0.3,0.3,0.6,0.6,0.8,1c0.3,0.3,0.6,0.7,0.9,1c0.1,0.1,0.3,0.4,0.6,0.2
			c0.3-0.2,0.4-0.5,0.2-0.8c-0.3-0.5-0.7-0.9-1.1-1.3c-0.6-0.4-1.2-0.7-1.8-1C125.1,87.3,125,87.4,124.9,87.3z"/>
		<path d="M87.1,85.4c0.3,1.3,2.6,2.5,4.3,2.1C89.9,86.8,88.5,86.1,87.1,85.4z"/>
		<path d="M83.3,87.1c-0.2-0.2-0.4-0.5-0.6-0.7c-0.6-0.8-1.2-1.5-1.8-2.3c-0.2-0.3-0.5-0.6-0.7-0.9c-0.1-0.2-0.4-0.2-0.6-0.3
			c0.7,1.1,1.4,2.2,2.2,3.3c0.2,0.3,0.6,0.5,1,0.7C82.8,86.9,83,87.1,83.3,87.1C83.2,87.1,83.2,87.1,83.3,87.1z"/>
		<path d="M127.5,77c-0.2-0.1-0.3-0.4-0.5-0.4c-1.3-0.4-2.5-0.7-3.8-1c-0.5-0.1-0.6,0-0.6,0.3c0.8,0.2,1.6,0.3,2.4,0.5
			c0.8,0.2,1.6,0.4,2.4,0.7C127.4,77.1,127.4,77,127.5,77z"/>
		<path d="M89.2,88.5c-0.7-0.4-1.4-0.9-2-1.3c-0.8-0.5-1.5-1-2.4-1.6c0.1,0.2,0.2,0.3,0.2,0.4c0.6,0.9,1.4,1.5,2.4,1.9
			c0.6,0.3,1.2,0.5,1.8,0.7C89.1,88.6,89.2,88.6,89.2,88.5z"/>
		<path d="M127.1,82.1c0-0.7-1.6-1.4-3.5-1.7c0.1,0.2,0.2,0.4,0.3,0.5c0.8,0.3,1.6,0.6,2.4,0.9C126.6,81.9,126.8,82,127.1,82.1z"/>
		<path d="M81.9,78.8c0.8-0.5,1.7-1,2.2-1.9C82.1,77.2,81.5,77.7,81.9,78.8z"/>
		<path d="M110.5,88.8c0.3,0.9,0.5,1.7,0.8,2.6c0.5-0.1,0.8-0.4,0.6-0.9c-0.2-0.6-0.6-1.1-0.9-1.6c-0.1-0.1-0.2-0.1-0.3-0.2
			C110.6,88.7,110.6,88.8,110.5,88.8z"/>
		<path d="M88.5,75.1c1.3-0.5,2.6-1,3.9-1.6C92,73.1,89.3,74.2,88.5,75.1z"/>
		<path d="M108.1,82.7c-2.6,1.5-2.8,1.7-2.6,2.3C106.2,84.1,107.6,84,108.1,82.7z"/>
		<path d="M117.3,82.4c1.4,0.6,2.7,1.4,3.8,2.4c0,0,0.1-0.1,0.1-0.1c-0.1-0.2-0.1-0.4-0.2-0.5c-0.7-0.5-1.3-0.9-2-1.4
			c-0.3-0.2-0.7-0.5-1-0.7C117.6,82.1,117.4,82.2,117.3,82.4z"/>
		<path d="M88.4,77.4c0.9-0.7,2.3-0.6,3.1-1.5C90.4,76.3,89.2,76.4,88.4,77.4z"/>
		<path d="M119.7,82.3c0.3,0.3,0.6,0.7,0.9,0.9c0.4,0.3,0.9,0.6,1.3,0.9c0.1,0,0.2,0,0.3-0.1c0-0.1,0-0.2,0-0.3
			c-0.1-0.1-0.2-0.2-0.3-0.3c-0.5-0.4-1.1-0.7-1.6-1.1C120,82.3,119.9,82.3,119.7,82.3z"/>
		<path d="M101.9,90.6c-0.3-0.4-1.6-0.6-2.2-0.4C100.5,90.3,101.1,90.5,101.9,90.6z"/>
		<path d="M92.4,87.2c-0.1-0.4-0.8-0.9-1.4-0.8C91.5,86.7,91.9,86.9,92.4,87.2z"/>
		<path class="st2" d="M80.8,98.6c-0.1,0.8-0.2,1.7-0.4,2.5c-0.1,0.4-0.3,0.4-0.6,0.5c-1.1,0.2-2.2-0.1-3.2-0.4
			c-0.7-0.2-1.4-0.7-2.1-1c-0.5-0.2-1.1-0.3-1.3-1c-0.1-0.2-0.3-0.2-0.4-0.4c-0.5-0.4-1-0.8-1.4-1.3c-0.4-0.4-0.6-0.9-1-1.3
			c-0.7-0.8-1.2-1.7-1.4-2.8c-0.1-0.8-0.1-1.5,0.1-2.3c0-0.1,0.2-0.2,0.3-0.3c0.1,0.1,0.2,0.2,0.3,0.3c0.1,0.2,0.2,0.4,0.3,0.6
			c0.2,0.6,0.9,0.8,1.3,1.2c0.4,0.4,0.5,1.1,1.1,1.4c0.8,0.4,1.6,0.8,2.4,1.1c1.7,0.6,3.5,1.1,5.2,1.7c0.8,0.3,0.9,0.4,0.8,1.2
			C80.8,98.4,80.8,98.5,80.8,98.6C80.8,98.6,80.8,98.6,80.8,98.6z M75.8,100c-0.3-0.1-0.5-0.1-1-0.3c0.2,0.2,0.3,0.3,0.4,0.4
			c1.1,0.6,2.2,1.2,3.5,1.2c0.2,0,0.4,0.1,0.6,0.1c0.4,0.1,0.7-0.2,0.7-0.5c0-0.2,0-0.3-0.3-0.3c-1.3-0.1-2.6-0.3-3.9-0.9
			C75.8,99.8,75.8,99.9,75.8,100z M79,99.2c-0.9,0.2-1.7-0.2-2.5-0.5c-0.3-0.1-0.6,0-0.9,0.1c0.8,0.8,1.8,1.3,2.9,1.3
			c0.6,0,1-0.3,1-0.8C79.3,99.3,79.2,99.2,79,99.2z M76.5,97.4c-0.1,0.1-0.3,0.2-0.5,0.4c0.6,0.4,1,0.8,1.6,1
			c0.3,0.2,0.8,0.2,1.1,0.2c0.5,0,0.5-0.5,0.6-0.9C77.7,98.2,77.2,97.8,76.5,97.4z M75.8,96.4c0.2,0.6,1.9,1.1,2.9,0.8
			C77.7,96.9,76.7,96.6,75.8,96.4z"/>
		<path class="st2" d="M111.1,76.1c0.2,0.1,0.4,0.2,0.8,0.4c0.1-0.3,0.1-0.5,0.2-0.7c0.4-1.5,0.7-2.9,1.1-4.4
			c0.3-1.4,0.2-1.4-1.3-1.9c-0.1,0.8-0.3,1.6-0.4,2.4c-0.1,0.9-0.2,1.7-0.3,2.6C111.1,75,111.1,75.6,111.1,76.1z"/>
		<path class="st2" d="M78,91.2c1.9,1.5,4.3,1.7,6.3,2.6c0.3-0.3,0.5-0.5,0.8-0.7c-0.6-0.3-1.3-0.6-2-0.8c-0.6-0.2-1.1-0.4-1.7-0.6
			c-0.2-0.1-0.5,0-0.8,0c-0.1,0-0.2,0-0.2,0C79.6,91.5,78.8,91.3,78,91.2z"/>
		<path class="st2" d="M108.8,66c0.6,0.1,0.9,0.1,0.9,1.2c0.1,0,0.3,0,0.4,0.1c0-0.1,0-0.1,0-0.1c-0.4-0.8-0.3-1.1,0.6-1.3
			c0.6-0.1,1.3-0.1,1.9,0c1.6,0.2,3.2,0.4,4.7,1c0,0,0.1,0,0.2,0c-0.2-0.1-0.4-0.3-0.5-0.3c-1.7-0.4-3.3-0.9-5-1.2
			c-0.6-0.1-1.3-0.1-1.9,0C109.6,65.3,109.2,65.7,108.8,66z"/>
		<path class="st2" d="M74.3,88.7c-0.2-0.6-0.4-1.1-0.6-1.7c-0.8,0.1-1.6,0.1-2.2,0.7c0,0.1,0,0.1,0,0.2c0.4,0.1,0.8,0.2,1.3,0.2
			c-0.3,0.2-0.5,0.4-0.7,0.6c0,0,0,0.1,0,0.1C72.8,88.8,73.5,88.7,74.3,88.7z"/>
		<path class="st2" d="M116.2,69.7c1,0.6,2.1,1,3.3,0.8c-0.5-0.5-1.1-0.8-1.8-1.1C117,69.2,116.7,69.5,116.2,69.7z"/>
		<path class="st2" d="M115.5,74.8c-0.4,0.7-0.7,1.3-1.1,2.1c0.3,0.1,0.6,0.1,0.9,0.2c0.1-0.8,0.2-1.5,0.3-2.2
			C115.6,74.8,115.6,74.8,115.5,74.8z"/>
		<path class="st2" d="M159.5,87.7c-0.3,0.4-0.5,0.7-0.8,1c0.7-0.1,1.4-0.2,2.1-0.3c0,0,0-0.1,0-0.1c-0.2,0-0.4-0.2-0.5-0.1
			C159.9,88.4,159.7,88.2,159.5,87.7z"/>
		<path class="st2" d="M116.9,71.3c-0.4,0.9-0.7,1.8-1.1,2.7c0.1,0,0.2,0.1,0.2,0.1c0.4-0.9,0.7-1.8,1.1-2.7
			C117,71.3,117,71.3,116.9,71.3z"/>
		<path class="st2" d="M77.6,110.3c-0.3-0.1-0.6-0.3-1-0.4c-0.1,0.2-0.1,0.3-0.1,0.4c0.4,0,0.8,0,1.2,0.1
			C77.6,110.4,77.6,110.4,77.6,110.3z"/>
		<path class="st2" d="M110.3,74.9c-0.1,0.3-0.2,0.6-0.3,0.8c0,0,0.3,0.1,0.5,0.3C110.5,75.6,110.4,75.2,110.3,74.9
			C110.4,74.9,110.3,74.9,110.3,74.9z"/>
		<path class="st2" d="M113.6,75.8c-0.1,0.3-0.2,0.6-0.4,1c0.2,0,0.4,0,0.6,0c0-0.1-0.1-0.3-0.1-0.4C113.6,76.1,113.7,76,113.6,75.8
			C113.6,75.8,113.6,75.8,113.6,75.8z"/>
		<path class="st2" d="M115.4,69.5c-0.4-0.1-0.9-0.2-1.3-0.4c0,0.1,0,0.1-0.1,0.2c0.4,0.1,0.9,0.2,1.3,0.3
			C115.4,69.6,115.4,69.5,115.4,69.5z"/>
		<path d="M155.8,85.2c0.7-0.2,1-1.1,0.4-1.6c-0.8-0.7-1.7-1.4-2.6-1.9c-1.6-0.8-3.4-1.5-5.1-2.2c-0.7-0.3-1.6-0.3-2.3-0.4
			c-0.4-0.1-0.8-0.2-1.2-0.3c-0.3-0.1-0.6-0.1-1-0.2c0,0.1,0,0.1-0.1,0.2c1.2,0.5,2.4,0.9,3.6,1.4c1.7,0.8,3.5,1.5,5.2,2.5
			c1,0.6,1.9,1.4,2.8,2.1C155.7,84.9,155.8,85,155.8,85.2z"/>
		<path d="M153.8,85.1c0.3-0.3,0.3-0.7,0-1.1c-1-1.2-2.4-1.8-3.7-2.4c-1.3-0.6-2.7-0.7-4.1-1.1c-0.5-0.1-0.9-0.3-1.3-0.5
			c-0.1,0-0.3-0.1-0.4-0.1c-0.1,0-0.2,0.1-0.2,0.1c0,0.1,0.1,0.2,0.1,0.2c0.5,0.2,0.9,0.4,1.4,0.6c1.4,0.6,2.7,1.1,4.1,1.7
			c1.1,0.5,2.1,1.2,3.2,1.8C153.1,84.5,153.4,84.8,153.8,85.1z"/>
		<path d="M143,78.5c-2.5-1.6-5.3-2-8.1-2.6c-1-0.2-1.9-0.5-2.9-0.8c-0.3-0.1-0.6-0.2-0.7,0.2C131.4,75.4,143,78.5,143,78.5z"/>
		<path d="M155.9,82c0-0.1,0-0.2,0-0.2c-0.8-0.5-1.6-1-2.4-1.5c-0.6-0.3-1.1-0.7-1.7-1c-1.6-0.7-3-1.7-4.9-1.7
			c-0.7,0-1.4-0.3-2.1-0.4c-0.2,0-0.5,0-0.7-0.1c0,0,0,0.1,0,0.1c0.6,0.2,1.3,0.4,1.9,0.5c0.9,0.2,1.8,0.4,2.7,0.6
			c0.2,0,0.4,0.1,0.6,0.2c1,0.5,1.9,0.9,2.9,1.4c1.2,0.6,2.3,1.2,3.4,1.8C155.6,81.9,155.7,82,155.9,82z"/>
		<path d="M156.4,98.5c1.4-0.2,2.8-0.5,4.1-0.7c1.4-0.2,2.6-0.9,3.6-1.8c0.1-0.1,0.1-0.1,0.2-0.2c0,0,0-0.1,0-0.1
			c-2.4,1.5-5.1,2.1-7.9,2.5C156.4,98.3,156.4,98.4,156.4,98.5z"/>
		<path d="M75.9,99.6c0,0.1,0,0.2,0,0.3c-0.3-0.1-0.5-0.1-1-0.3c0.2,0.2,0.3,0.3,0.4,0.4c1.1,0.6,2.2,1.2,3.5,1.2
			c0.2,0,0.4,0.1,0.6,0.1c0.4,0.1,0.7-0.2,0.7-0.5c0-0.2,0-0.3-0.3-0.3C78.4,100.4,77.1,100.3,75.9,99.6z"/>
		<path d="M79.5,99.3c-0.2,0-0.3-0.1-0.5-0.1c-0.9,0.2-1.7-0.2-2.5-0.5c-0.3-0.1-0.6,0-0.9,0.1c0.8,0.8,1.8,1.3,2.9,1.3
			C79.1,100.1,79.5,99.8,79.5,99.3z"/>
		<path d="M79.4,98.1c-1.7,0.1-2.2-0.3-2.9-0.7c-0.1,0.1-0.3,0.2-0.5,0.4c0.6,0.4,1,0.8,1.6,1c0.3,0.2,0.8,0.2,1.1,0.2
			C79.3,98.9,79.3,98.5,79.4,98.1z"/>
		<path d="M78.7,97.2c-1-0.3-2-0.6-2.9-0.8C76,96.9,77.7,97.5,78.7,97.2z"/>
	</g>
</g>
<g>
	<path class="st2" d="M27.4,36.1h10.9c1.8,0,3.1,0.4,4,1.2s1.2,2.1,1.2,4v2.6c0,1.8-0.4,3.1-1.2,4c-0.8,0.8-2.1,1.2-4,1.2h-6.2v5.2
		h-4.7V36.1z M38.8,41.3c0-1-0.5-1.6-1.6-1.6h-5.2v5.7h5.2c1,0,1.6-0.5,1.6-1.6V41.3z"/>
	<path class="st2" d="M53.5,44.3c-1.1,0-2.2,0.3-3.4,0.8v9.2h-4.6V40.5h4l0.3,1.7c1.5-1.3,3.1-2,4.7-2h1.2v4H53.5z"/>
	<path class="st2" d="M71.6,50.4c0,1.3-0.4,2.3-1.1,3.1c-0.7,0.7-1.8,1.1-3.1,1.1h-6c-1.3,0-2.3-0.4-3.1-1.1
		c-0.7-0.7-1.1-1.8-1.1-3.1v-6c0-1.3,0.4-2.3,1.1-3.1c0.7-0.7,1.8-1.1,3.1-1.1h6c1.3,0,2.3,0.4,3.1,1.1c0.7,0.7,1.1,1.8,1.1,3.1
		V50.4z M67,44.8c0-0.7-0.3-1-1-1h-3.1c-0.7,0-1,0.3-1,1V50c0,0.7,0.3,1,1,1H66c0.7,0,1-0.3,1-1V44.8z"/>
	<path class="st2" d="M83.1,40.5H88l-5.2,13.8h-5.2l-5.2-13.8h4.8l3,9.4L83.1,40.5z"/>
	<path class="st2" d="M101.7,54.1c-3.3,0.3-6.4,0.5-9.1,0.5c-1.2,0-2.1-0.4-2.8-1.1c-0.7-0.7-1.1-1.7-1.1-2.8v-6.2
		c0-1.3,0.4-2.3,1.1-3.1c0.7-0.7,1.8-1.1,3.1-1.1h5.2c1.3,0,2.3,0.4,3.1,1.1c0.7,0.7,1.1,1.8,1.1,3.1v4.8h-9v1
		c0,0.3,0.1,0.5,0.3,0.6c0.2,0.2,0.4,0.3,0.7,0.3c1.7,0,4.2-0.1,7.5-0.4V54.1z M94.3,43.5c-0.7,0-1,0.3-1,1V46h4.4v-1.4
		c0-0.7-0.3-1-1-1H94.3z"/>
	<path class="st2" d="M112.3,44c-0.9,0-2,0.2-3.1,0.5v9.8h-4.5V40.5h4l0.3,1.3c0.8-0.5,1.7-0.9,2.5-1.2c0.9-0.3,1.6-0.4,2.2-0.4h1.2
		c1.2,0,2.1,0.4,2.8,1.1c0.7,0.7,1.1,1.7,1.1,2.8v10.1h-4.5V45c0-0.3-0.1-0.5-0.3-0.6c-0.2-0.2-0.4-0.3-0.7-0.3H112.3z"/>
	<path class="st2" d="M30.8,60.2c0.8,0,1.5,0.2,1.9,0.6c0.5,0.4,0.7,0.9,0.7,1.6c0,0.5-0.1,1-0.4,1.4c-0.2,0.4-0.6,0.7-1.1,0.8v0
		c0.2,0,0.5,0.1,0.6,0.2c0.2,0.1,0.3,0.2,0.4,0.4c0.1,0.2,0.2,0.3,0.2,0.5s0.1,0.4,0.1,0.6c0,0.2,0,0.4,0,0.6s0,0.4,0.1,0.6
		c0,0.2,0.1,0.4,0.1,0.6c0.1,0.2,0.1,0.4,0.3,0.5h-1.3c-0.1-0.1-0.1-0.2-0.2-0.4c0-0.2,0-0.3-0.1-0.5c0-0.2,0-0.4,0-0.6
		c0-0.2,0-0.4-0.1-0.6c0-0.2-0.1-0.4-0.1-0.6s-0.1-0.4-0.2-0.5c-0.1-0.1-0.2-0.3-0.4-0.3s-0.4-0.1-0.7-0.1h-2.8v3.7h-1.1v-8.6H30.8z
		 M31,64c0.2,0,0.5-0.1,0.6-0.2c0.2-0.1,0.3-0.3,0.4-0.5c0.1-0.2,0.2-0.5,0.2-0.8c0-0.4-0.1-0.8-0.4-1.1c-0.2-0.3-0.6-0.4-1.2-0.4
		h-2.8v3h2.4C30.5,64.1,30.8,64.1,31,64z"/>
	<path class="st2" d="M40.9,60.2v1h-4.8v2.7h4.5v1h-4.5v3h4.8v1h-6v-8.6H40.9z"/>
	<path class="st2" d="M47.5,61.4c-0.4-0.3-1-0.5-1.6-0.5c-0.5,0-1,0.1-1.3,0.3S44,61.6,43.7,62c-0.2,0.3-0.4,0.7-0.5,1.1
		c-0.1,0.4-0.2,0.8-0.2,1.3c0,0.5,0.1,1,0.2,1.4s0.3,0.8,0.5,1.1c0.2,0.3,0.5,0.6,0.9,0.8s0.8,0.3,1.3,0.3c0.4,0,0.7-0.1,1-0.2
		s0.5-0.3,0.8-0.5c0.2-0.2,0.4-0.5,0.5-0.8c0.1-0.3,0.2-0.6,0.2-1h1.1c-0.1,1.1-0.5,1.9-1.1,2.5s-1.5,0.9-2.6,0.9
		c-0.7,0-1.2-0.1-1.7-0.3s-0.9-0.5-1.2-0.9s-0.6-0.9-0.7-1.4c-0.2-0.5-0.2-1.1-0.2-1.8c0-0.6,0.1-1.2,0.3-1.8c0.2-0.5,0.4-1,0.8-1.4
		c0.3-0.4,0.8-0.7,1.3-1s1.1-0.4,1.7-0.4c0.4,0,0.9,0.1,1.3,0.2c0.4,0.1,0.8,0.3,1.1,0.5c0.3,0.2,0.6,0.5,0.8,0.9
		c0.2,0.3,0.3,0.8,0.4,1.2h-1.1C48.2,62.1,47.9,61.7,47.5,61.4z"/>
	<path class="st2" d="M52.2,60.2v8.6H51v-8.6H52.2z"/>
	<path class="st2" d="M57.8,60.2c0.9,0,1.5,0.2,2,0.7c0.4,0.4,0.7,1.1,0.7,1.9c0,0.8-0.2,1.4-0.7,1.9c-0.4,0.4-1.1,0.7-2,0.7h-2.6
		v3.5h-1.1v-8.6H57.8z M57.5,64.3c0.6,0,1.1-0.1,1.4-0.4c0.3-0.3,0.5-0.7,0.5-1.2c0-0.5-0.2-0.9-0.5-1.2s-0.8-0.4-1.4-0.4h-2.2v3.1
		H57.5z"/>
	<path class="st2" d="M67.8,60.2v1H63v2.7h4.5v1H63v3h4.8v1h-6v-8.6H67.8z"/>
	<path class="st2" d="M73.5,61.3c-0.4-0.3-0.9-0.4-1.5-0.4c-0.2,0-0.5,0-0.7,0.1c-0.2,0-0.4,0.1-0.6,0.2c-0.2,0.1-0.3,0.3-0.4,0.5
		c-0.1,0.2-0.2,0.4-0.2,0.7c0,0.3,0.1,0.5,0.2,0.6s0.4,0.3,0.6,0.4c0.3,0.1,0.6,0.2,0.9,0.3s0.7,0.1,1,0.2c0.3,0.1,0.7,0.2,1,0.3
		s0.6,0.3,0.9,0.4s0.5,0.4,0.6,0.7c0.2,0.3,0.2,0.6,0.2,1.1c0,0.5-0.1,0.8-0.3,1.2c-0.2,0.3-0.5,0.6-0.8,0.8
		c-0.3,0.2-0.7,0.4-1.1,0.4c-0.4,0.1-0.8,0.1-1.2,0.1c-0.5,0-0.9-0.1-1.4-0.2c-0.4-0.1-0.8-0.3-1.1-0.5c-0.3-0.2-0.6-0.6-0.8-0.9
		c-0.2-0.4-0.3-0.8-0.3-1.3h1.1c0,0.4,0.1,0.7,0.2,0.9c0.1,0.3,0.3,0.5,0.6,0.6c0.2,0.2,0.5,0.3,0.8,0.4S72,68,72.3,68
		c0.3,0,0.5,0,0.8-0.1c0.3,0,0.5-0.1,0.7-0.2c0.2-0.1,0.4-0.3,0.5-0.5c0.1-0.2,0.2-0.5,0.2-0.8c0-0.3-0.1-0.5-0.2-0.7
		c-0.2-0.2-0.4-0.3-0.6-0.4C73.3,65.1,73,65,72.7,65c-0.3-0.1-0.7-0.1-1-0.2c-0.3-0.1-0.7-0.2-1-0.3s-0.6-0.2-0.9-0.4
		c-0.3-0.2-0.5-0.4-0.6-0.6c-0.2-0.3-0.2-0.6-0.2-1c0-0.4,0.1-0.8,0.3-1.1c0.2-0.3,0.4-0.6,0.7-0.8s0.6-0.4,1-0.5s0.8-0.1,1.1-0.1
		c0.4,0,0.8,0.1,1.2,0.2c0.4,0.1,0.7,0.3,1,0.5c0.3,0.2,0.5,0.5,0.7,0.8c0.2,0.3,0.3,0.7,0.3,1.2h-1.1C74.1,62,73.9,61.6,73.5,61.3z
		"/>
</g>
<rect x="32.7" y="68.8" transform="matrix(6.123234e-17 -1 1 6.123234e-17 -42.2328 109.5851)" class="st2" width="2" height="14.2"/>
</svg>
